<svg width="14" height="23" viewBox="0 0 14 23" fill="none" xmlns="http://www.w3.org/2000/svg">
<path d="M7.2 20.24C6.08 20.24 5.072 20.104 4.176 19.832C3.28 19.544 2.424 19.048 1.608 18.344C1.4 18.168 1.24 17.968 1.128 17.744C1.016 17.52 0.96 17.296 0.96 17.072C0.96 16.704 1.088 16.384 1.344 16.112C1.616 15.824 1.952 15.68 2.352 15.68C2.656 15.68 2.928 15.776 3.168 15.968C3.776 16.464 4.376 16.84 4.968 17.096C5.576 17.352 6.32 17.48 7.2 17.48C7.792 17.48 8.336 17.392 8.832 17.216C9.328 17.024 9.728 16.776 10.032 16.472C10.336 16.152 10.488 15.792 10.488 15.392C10.488 14.912 10.344 14.504 10.056 14.168C9.768 13.832 9.328 13.552 8.736 13.328C8.144 13.088 7.392 12.904 6.48 12.776C5.616 12.648 4.856 12.456 4.2 12.2C3.544 11.928 2.992 11.592 2.544 11.192C2.112 10.776 1.784 10.296 1.56 9.752C1.336 9.192 1.224 8.568 1.224 7.88C1.224 6.84 1.488 5.952 2.016 5.216C2.56 4.48 3.288 3.92 4.2 3.536C5.112 3.152 6.12 2.96 7.224 2.96C8.264 2.96 9.224 3.12 10.104 3.44C11 3.744 11.728 4.136 12.288 4.616C12.752 4.984 12.984 5.408 12.984 5.888C12.984 6.24 12.848 6.56 12.576 6.848C12.304 7.136 11.984 7.28 11.616 7.28C11.376 7.28 11.16 7.208 10.968 7.064C10.712 6.84 10.368 6.632 9.936 6.44C9.504 6.232 9.048 6.064 8.568 5.936C8.088 5.792 7.64 5.72 7.224 5.72C6.536 5.72 5.952 5.808 5.472 5.984C5.008 6.16 4.656 6.4 4.416 6.704C4.176 7.008 4.056 7.36 4.056 7.76C4.056 8.24 4.192 8.64 4.464 8.96C4.752 9.264 5.16 9.512 5.688 9.704C6.216 9.88 6.848 10.04 7.584 10.184C8.544 10.36 9.384 10.568 10.104 10.808C10.84 11.048 11.448 11.36 11.928 11.744C12.408 12.112 12.768 12.584 13.008 13.16C13.248 13.72 13.368 14.408 13.368 15.224C13.368 16.264 13.08 17.16 12.504 17.912C11.928 18.664 11.168 19.24 10.224 19.64C9.296 20.04 8.288 20.24 7.2 20.24ZM8.928 21.536C8.928 21.952 8.784 22.296 8.496 22.568C8.224 22.856 7.88 23 7.464 23C7.064 23 6.728 22.856 6.456 22.568C6.184 22.296 6.048 21.952 6.048 21.536V2.24C6.048 1.824 6.184 1.48 6.456 1.208C6.744 0.919999 7.096 0.775999 7.512 0.775999C7.928 0.775999 8.264 0.919999 8.52 1.208C8.792 1.48 8.928 1.824 8.928 2.24V21.536Z" fill="black"/>
</svg>
