<svg width="36" height="36" viewBox="0 0 36 36" fill="none" xmlns="http://www.w3.org/2000/svg">
<path d="M34.3382 3.99323C34.7971 3.99323 35.1694 4.3621 35.1694 4.81717C35.1694 5.27224 34.7971 5.64111 34.3382 5.64111C33.8787 5.64111 33.5063 5.27224 33.5063 4.81717C33.5063 4.3621 33.8787 3.99323 34.3382 3.99323Z" fill="#181713"/>
<path d="M21.5492 9.57038C22.0082 9.57038 22.3805 9.93925 22.3805 10.3943C22.3805 10.8494 22.0082 11.2183 21.5492 11.2183C21.0903 11.2183 20.718 10.8494 20.718 10.3943C20.718 9.93925 21.0903 9.57038 21.5492 9.57038Z" fill="#181713"/>
<path d="M18.352 2.40827C18.8109 2.40827 19.1832 2.77714 19.1832 3.23221C19.1832 3.68728 18.8109 4.05615 18.352 4.05615C17.8924 4.05615 17.5208 3.68728 17.5208 3.23221C17.5208 2.77714 17.8924 2.40827 18.352 2.40827Z" fill="#181713"/>
<path d="M10.3591 2.40827C10.818 2.40827 11.1903 2.77714 11.1903 3.23221C11.1903 3.68728 10.818 4.05615 10.3591 4.05615C9.89951 4.05615 9.52783 3.68728 9.52783 3.23221C9.52783 2.77714 9.89951 2.40827 10.3591 2.40827Z" fill="#181713"/>
<path d="M8.56896 14.4506C8.44064 14.3872 8.44065 14.2604 8.44065 14.1337C8.44065 13.8168 8.63281 13.69 9.0165 13.6266V14.7041C8.82434 14.5773 8.69665 14.514 8.56896 14.4506ZM9.46404 16.2252C9.65557 16.2886 9.84709 16.352 9.97541 16.4787C10.1031 16.5421 10.1669 16.6689 10.1669 16.7956C10.1669 17.1125 9.97542 17.2393 9.52788 17.2393L9.46404 16.2252ZM8.44065 17.1125C8.12081 16.9858 7.80158 16.859 7.54558 16.6689C7.41789 16.6055 7.35404 16.5421 7.35404 16.5421L6.71436 17.7464C7.35405 18.19 8.18527 18.4435 8.95202 18.5069V19.521H9.52788V18.5069C9.78326 18.5069 10.0393 18.4435 10.2946 18.3802C10.8066 18.2534 11.1903 17.9365 11.4463 17.4928C11.7017 17.0492 11.7017 16.352 11.5102 15.9083C11.3819 15.5914 11.0626 15.2745 10.5506 15.021C10.0393 14.8309 9.52788 14.7041 9.46404 14.7041V13.5633C10.0393 13.6266 10.7428 14.0069 10.8705 14.1337L11.5102 12.9928C11.2542 12.8661 10.9982 12.7393 10.679 12.6126C10.3591 12.4858 9.97542 12.4224 9.59173 12.359V11.4717H9.0165V12.359C8.18527 12.4224 7.54557 12.8027 7.22572 13.4999C7.09804 13.7534 7.09805 14.0069 7.09805 14.3238C7.09805 14.9576 7.35405 15.4013 7.99311 15.7182C8.44065 15.9717 8.95202 16.0351 9.14419 16.0985V17.2393C8.82434 17.2393 8.63282 17.1759 8.44065 17.1125Z" fill="#181713"/>
<path d="M9.14409 10.3945C12.0215 10.3945 14.3236 12.6762 14.3236 15.5283C14.3236 18.3804 12.0215 20.6621 9.14409 20.6621C6.26672 20.6621 3.96458 18.3804 3.96458 15.5283C3.96458 12.6762 6.26672 10.3945 9.14409 10.3945ZM9.14409 22.2466C12.9165 22.2466 15.9222 19.2043 15.9222 15.5283C15.9222 11.8522 12.8527 8.80998 9.14409 8.80998C5.43486 8.80998 2.36597 11.7888 2.36597 15.5283C2.36597 19.2677 5.43486 22.2466 9.14409 22.2466Z" fill="#181713"/>
<path d="M27.6877 34.3521V13.3099C29.5424 12.169 30.9488 11.2183 31.9077 10.5212V34.3521H27.6877ZM21.8692 16.4789C23.2756 15.7817 24.6827 15.0212 26.0891 14.2606V34.3521H21.8692V16.4789ZM16.0499 21.5493C16.8812 20.5986 17.5209 19.4578 17.9046 18.2535C18.6713 17.9366 19.4387 17.6197 20.2705 17.2395V34.3521H16.0499V21.5493ZM10.2307 24.5916C11.7661 24.4014 13.2364 23.831 14.4513 23.0071V34.4155H10.2307V24.5916ZM4.41214 23.324C5.6909 24.0845 7.09797 24.5282 8.63274 24.6549V34.3521H4.41214V23.324ZM1.59861 15.5282C1.59861 11.4085 4.98736 7.98595 9.20796 7.98595C13.4279 7.98595 16.8173 11.3451 16.8173 15.5282C16.8173 19.7113 13.4279 23.0704 9.20796 23.0704C4.98736 23.0704 1.59861 19.6479 1.59861 15.5282ZM35.1694 34.3521H33.5708V8.93665C33.5708 8.61975 33.3786 8.36623 33.1233 8.23947C32.8673 8.11271 32.5474 8.11271 32.2914 8.30285C32.2914 8.30285 30.0537 10.0775 26.5366 12.169C23.8508 13.7535 21.1018 15.2113 18.3521 16.3521C18.8635 10.9648 14.579 6.40145 9.20796 6.40145C4.15676 6.40145 0 10.4578 0 15.5282C0 18.1268 1.08723 20.4085 2.81353 22.1197V34.3521H1.59861C1.15108 34.3521 0.767384 34.7324 0.767384 35.1761C0.767384 35.6197 1.15108 36 1.59861 36C9.20796 36 18.8635 36 35.1694 36C35.6169 36 36 35.6197 36 35.1761C35.9362 34.669 35.5525 34.3521 35.1694 34.3521Z" fill="#181713"/>
<path d="M3.96451 1.64788C4.41204 1.64788 4.79573 2.02817 4.79573 2.47183C4.79573 2.91549 4.41204 3.29577 3.96451 3.29577C3.51697 3.29577 3.13328 2.91549 3.13328 2.47183C3.19712 2.02817 3.51697 1.64788 3.96451 1.64788ZM3.96451 4.81689C5.30711 4.81689 6.39434 3.73943 6.39434 2.40845C6.39434 1.07746 5.30711 -9.53674e-07 3.96451 -9.53674e-07C2.6219 -9.53674e-07 1.53467 1.07746 1.53467 2.40845C1.53467 3.73943 2.6219 4.81689 3.96451 4.81689Z" fill="#181713"/>
<path d="M27.9429 1.64785C28.8386 1.64785 29.5422 2.34503 29.5422 3.23236C29.5422 4.11968 28.8386 4.81686 27.9429 4.81686C27.0478 4.81686 26.3449 4.11968 26.3449 3.23236C26.3449 2.34503 27.0478 1.64785 27.9429 1.64785ZM27.9429 6.40137C29.7337 6.40137 31.1401 5.007 31.1401 3.23236C31.1401 1.45771 29.7337 0.0633469 27.9429 0.0633469C26.1528 0.0633469 24.7463 1.45771 24.7463 3.23236C24.7463 5.007 26.1528 6.40137 27.9429 6.40137Z" fill="#181713"/>
</svg>
