<svg width="67" height="67" viewBox="0 0 67 67" fill="none" xmlns="http://www.w3.org/2000/svg">
<g opacity="0.5">
<path d="M7.28701 28.8329C5.21135 30.8516 4.39446 33.8249 3.91948 36.6795C2.96003 42.498 3.06924 48.4923 4.24719 54.268C4.70317 56.4909 5.35388 58.7613 6.84531 60.4665C8.84972 62.7607 12.0795 63.6441 15.1242 63.5634C18.164 63.4826 21.1137 62.5612 24.0538 61.7775C26.9939 60.9985 30.0575 60.343 33.0641 60.8085C38.7354 61.6824 43.4709 66.399 49.2086 66.3847C54.8466 66.3705 59.6297 61.4164 60.8456 55.9114C62.0568 50.4064 60.3517 44.626 57.6633 39.6672C55.6114 35.8864 52.923 32.3573 49.3702 29.9301C45.6986 27.4222 41.2955 26.2063 36.9067 25.4749C29.5826 24.2542 22.0446 24.2731 14.7442 25.6506C12.051 26.1588 9.25342 26.9235 7.28701 28.8329Z" fill="#56227F" fill-opacity="0.2"/>
<path d="M0.591695 6.00387C-0.201519 7.79454 -0.00204683 9.87486 0.0976987 11.8508C0.197444 13.8932 0.168904 15.9594 0.648632 17.94C1.13311 19.9254 2.2113 21.8681 3.95922 22.8086C5.57415 23.673 7.47879 23.5686 9.27896 23.4356C12.3806 23.2123 15.6817 22.9131 18.1089 20.9086C20.1798 19.2035 21.296 16.3963 21.2295 13.6319C21.163 10.8676 19.9756 8.17917 18.1707 6.13201C15.0833 2.63142 10.1292 1.04505 5.73088 2.1565C3.60298 2.69322 1.5084 3.93771 0.591695 6.00387Z" fill="#56227F" fill-opacity="0.2"/>
<path d="M35.429 20.8149C40.4352 20.1927 44.7243 15.9369 45.1565 11.1633C45.5887 6.3898 42.1167 1.60672 37.2814 0.314779C34.9208 -0.316942 32.0852 -0.060421 30.38 1.65425C28.8173 3.22643 28.5893 5.55866 28.1333 7.67231C27.4066 11.0874 25.9342 14.8492 27.7724 17.8273C29.2495 20.2164 32.5126 21.1759 35.429 20.8149Z" fill="#56227F" fill-opacity="0.2"/>
<path d="M57.6336 29.7547C61.2102 29.9589 64.6491 27.5175 66.0835 24.2354C67.5227 20.9533 67.1142 17.0441 65.4708 13.857C64.6253 12.2184 63.2812 10.6225 61.4572 10.347C60.1035 10.1427 58.7641 10.7033 57.5482 11.3255C55.0973 12.5747 52.8078 14.1326 50.7417 15.947C48.9558 17.5239 47.2269 19.5853 47.3884 21.9602C47.5594 24.3921 49.654 26.2207 51.7202 27.5174C53.5203 28.6526 55.5057 29.6359 57.6336 29.7547Z" fill="#56227F" fill-opacity="0.2"/>
</g>
</svg>
