<svg width="557" height="822" viewBox="0 0 557 822" fill="none" xmlns="http://www.w3.org/2000/svg">
<path d="M-491.02 786.369C-428.99 783.127 -288.967 774.167 -144.356 753.733C-31.0571 737.713 62.832 717.895 134.675 694.829C167.651 684.24 195.949 672.984 219.489 661.094C225.487 658.067 231.177 655.002 236.553 651.891C242.183 648.644 247.475 645.337 252.425 641.993C257.613 638.496 262.415 634.956 266.846 631.371C271.513 627.593 275.754 623.767 279.581 619.89C283.646 615.782 287.239 611.609 290.35 607.392C293.276 603.441 295.785 599.446 297.872 595.397C298.161 594.83 298.447 594.27 298.729 593.699L312.855 564.701C312.566 565.268 312.284 565.838 311.998 566.399C309.918 570.419 307.441 574.382 304.537 578.304L304.534 578.31C301.417 582.541 297.831 586.717 293.765 590.825C289.945 594.705 285.7 598.537 281.037 602.309C276.612 605.897 271.807 609.444 266.632 612.931C261.685 616.285 256.396 619.586 250.759 622.845C245.361 625.969 239.646 629.053 233.618 632.089C227.84 635.012 221.773 637.891 215.421 640.73C195.903 649.462 173.689 657.838 148.804 665.825C76.9549 688.903 -16.9342 708.721 -130.233 724.725C-274.323 745.096 -413.857 754.056 -476.226 757.333L-491.02 786.369Z" fill="white"/>
<path d="M-520.757 844.731C-459.407 841.551 -318.404 832.617 -172.75 812.024C-59.448 796.014 34.4347 776.193 106.287 753.124C156.509 737.004 195.875 719.317 224.108 700.243C229.264 696.763 234.043 693.235 238.449 689.669C243.109 685.888 247.357 682.065 251.194 678.185C255.259 674.076 258.848 669.91 261.956 665.683C264.879 661.739 267.388 657.744 269.481 653.699C269.77 653.131 270.049 652.568 270.332 651.997C272.648 647.247 274.585 642.093 276.157 636.538C273.046 640.756 269.456 644.922 265.388 649.037C261.564 652.907 257.313 656.736 252.65 660.508C248.225 664.096 243.41 667.646 238.229 671.146C233.304 674.471 228.041 677.753 222.44 680.99C195.94 696.316 161.901 710.674 120.485 723.97C48.6292 747.045 -45.2535 766.866 -158.558 782.882C-303.688 803.39 -444.193 812.337 -505.888 815.549L-520.757 844.731Z" fill="white"/>
<path d="M-550.499 903.103C-489.885 899.983 -347.888 891.066 -201.153 870.333C-87.8477 854.316 6.04146 834.498 77.8875 811.427C146.992 789.237 195.552 764.092 222.842 736.44L222.845 736.433C226.882 732.334 230.449 728.197 233.55 723.998C236.48 720.042 238.988 716.047 241.075 711.998C241.367 711.44 241.656 710.873 241.932 710.3L255.708 682.005C255.565 682.286 255.422 682.566 255.27 682.85C253.186 686.892 250.684 690.89 247.764 694.828L247.76 694.834C244.646 699.058 241.044 703.234 236.982 707.352C233.165 711.21 228.949 715.017 224.315 718.779C195.738 741.939 151.513 763.202 92.0883 782.282C20.2327 805.357 -73.6501 825.178 -186.952 841.188C-333.14 861.838 -474.638 870.769 -535.627 873.915L-550.499 903.103Z" fill="white"/>
<path d="M-580.161 961.322C-520.333 958.266 -377.301 949.378 -229.472 928.481C-116.171 912.47 -22.288 892.649 49.5676 869.574C138.521 841.022 193.427 807.561 212.758 770.139C213.047 769.588 213.333 769.011 213.606 768.444C215.906 763.725 217.836 758.601 219.411 753.071C195.352 785.692 143.083 815.08 63.6907 840.566C-8.16496 863.641 -102.048 883.462 -215.346 899.482C-362.628 920.298 -505.149 929.205 -565.367 932.287L-580.161 961.322Z" fill="white"/>
<path d="M304.537 578.305C307.441 574.383 309.917 570.42 311.998 566.4C312.284 565.84 312.566 565.269 312.855 564.702C331.176 527.062 326.206 463.92 298.047 376.931C274.959 305.601 236.348 218.439 183.277 117.859C113.192 -14.971 35.9196 -136.655 4.16028 -185.478L-10.332 -157.035C21.194 -108.588 98.7915 13.5266 169.148 146.863C222.222 247.437 260.829 334.605 283.921 405.93C308.546 481.984 315.44 539.823 304.537 578.305Z" fill="white"/>
<path d="M281.038 602.31C285.701 598.538 289.946 594.706 293.766 590.826C299.056 553.039 291.023 500.88 269.724 435.084C246.636 363.753 208.028 276.585 154.951 176.001C84.3241 42.1575 6.39775 -80.3814 -24.8981 -128.446L-39.4617 -99.8635C-8.41499 -52.2064 69.8464 70.7761 140.754 205.156C193.824 305.736 232.441 392.901 255.529 464.232C273.681 520.318 282.197 566.496 281.038 602.31Z" fill="white"/>
<path d="M250.76 622.847C256.396 619.587 261.685 616.286 266.632 612.932C264.942 580.177 256.497 540.232 241.325 493.384C218.243 422.056 179.622 334.882 126.555 234.311C55.3682 99.3955 -23.2379 -24.0274 -54.0292 -71.2734L-68.5961 -42.6843C-38.0601 4.13476 40.8874 128.005 112.364 263.453C165.428 364.03 204.042 451.201 227.13 522.532C239.438 560.577 247.329 594.06 250.76 622.847Z" fill="white"/>
<path d="M215.421 640.732C221.773 637.893 227.841 635.014 233.618 632.091C229.404 608.082 222.51 581.262 212.93 551.677C189.848 480.35 151.231 393.185 98.154 292.601C26.3974 156.601 -52.8978 32.2812 -83.1561 -14.1074L-97.6516 14.3416C-67.6612 60.2807 11.9849 185.06 84.031 321.609C137.104 422.183 175.718 509.354 198.807 580.685C205.763 602.159 211.297 622.178 215.421 640.732Z" fill="white"/>
</svg>
