<svg width="36" height="36" viewBox="0 0 36 36" fill="none" xmlns="http://www.w3.org/2000/svg">
<path d="M19.1788 34.3434V22.4283H30.3293V24.7858H23.1293C22.6834 24.7858 22.3004 25.1681 22.3004 25.6142V28.8C22.3004 29.246 22.6834 29.6283 23.1293 29.6283H30.3293V31.1575H23.1293C22.6834 31.1575 22.3004 31.5398 22.3004 31.9858C22.3004 32.4319 22.6834 32.8142 23.1293 32.8142H30.3293V34.3434H19.1788ZM6.43532 32.7504H13.6353C14.0813 32.7504 14.4636 32.3681 14.4636 31.9221C14.4636 31.4761 14.0813 31.0938 13.6353 31.0938H6.43532V29.5009H8.02826C8.4742 29.5009 8.85652 29.1186 8.85652 28.6726V25.4867C8.85652 25.0407 8.4742 24.6584 8.02826 24.6584H6.43532V22.2372H17.5858V34.3434H6.43532V32.7504ZM6.43532 26.3788H7.26359V27.9717H6.43532V26.3788ZM14.7187 17.6495L16.8212 20.8354H5.98937L3.88689 17.6495H14.7187ZM21.9823 17.6495H32.8141L30.7116 20.8354H19.8798L21.9823 17.6495ZM30.3293 27.9717H23.9576V26.3788H30.3293V27.9717ZM34.9172 17.2672C35.2989 16.7575 34.9172 16.0566 34.2798 16.0566H21.5364C21.2813 16.0566 21.0268 16.1841 20.8996 16.4389L18.3505 20.1982L15.8021 16.4389C15.6742 16.2478 15.4197 16.0566 15.1646 16.0566H2.42119C1.78439 16.0566 1.40206 16.7575 1.78438 17.2672L4.84239 21.8549C4.84239 22.6195 4.84239 34.4708 4.84239 35.1717C4.84239 35.6177 5.22471 36 5.67066 36C7.07274 36 29.7555 36 31.1576 36C31.6035 36 31.9858 35.6177 31.9858 35.1717C31.9858 34.4708 31.9858 22.6195 31.9858 21.8549L34.9172 17.2672Z" fill="#181713"/>
<path d="M20.7716 31.1578C21.2289 31.1578 21.5999 31.5286 21.5999 31.9861C21.5999 32.4436 21.2289 32.8145 20.7716 32.8145C20.3143 32.8145 19.9434 32.4436 19.9434 31.9861C19.9434 31.5286 20.3143 31.1578 20.7716 31.1578Z" fill="#181713"/>
<path d="M15.9931 31.1578C16.4504 31.1578 16.8213 31.5286 16.8213 31.9861C16.8213 32.4436 16.4504 32.8145 15.9931 32.8145C15.5358 32.8145 15.1648 32.4436 15.1648 31.9861C15.1648 31.5286 15.5358 31.1578 15.9931 31.1578Z" fill="#181713"/>
<path d="M34.28 24.0213C34.28 23.5753 33.8976 23.193 33.4517 23.193C33.0058 23.193 32.6228 23.5753 32.6228 24.0213V32.8143C32.6228 33.2603 33.0058 33.6426 33.4517 33.6426C33.8976 33.6426 34.28 33.2603 34.28 32.8143V24.0213Z" fill="#181713"/>
<path d="M3.24941 23.193C2.80347 23.193 2.42114 23.5753 2.42114 24.0213V32.8143C2.42114 33.2603 2.80347 33.6426 3.24941 33.6426C3.69536 33.6426 4.07768 33.2603 4.07768 32.8143V24.0213C4.01406 23.5753 3.63174 23.193 3.24941 23.193Z" fill="#181713"/>
<path d="M5.9259 4.77881C5.86229 4.7151 5.79867 4.65138 5.79867 4.52395C5.79867 4.26908 5.98953 4.14164 6.30824 4.14164V4.96996C6.11739 4.90625 5.98952 4.84253 5.9259 4.77881ZM6.62695 6.2443C6.8178 6.30802 6.94565 6.37173 7.00927 6.43545C7.1365 6.49917 7.13651 6.6266 7.13651 6.69032C7.13651 6.94519 6.94567 7.07262 6.62695 7.07262V6.2443ZM5.09764 6.6266C5.03402 6.56289 4.9704 6.56289 4.9704 6.49917L4.46021 7.51864C4.9704 7.83722 5.67081 8.09209 6.24462 8.09209V8.92041H6.69056V8.09209C7.32798 8.09209 7.96478 7.83722 8.21987 7.26377C8.41072 6.88147 8.41072 6.37173 8.21987 5.98943C8.09201 5.73457 7.90117 5.4797 7.45522 5.28855C7.00928 5.0974 6.62695 5.03368 6.62695 5.03368V4.07793C7.0729 4.14164 7.64607 4.46023 7.70969 4.52395L8.21987 3.56819C8.02839 3.44076 7.77393 3.37704 7.51884 3.24961C7.26374 3.12217 6.94565 3.05846 6.69056 3.05846V2.35757H6.24462V3.12217C5.22487 3.24961 4.65169 3.88678 4.65169 4.7151C4.65169 5.22483 4.84253 5.60713 5.35272 5.862C5.73505 6.05315 6.11739 6.11687 6.24462 6.18058V7.07262C5.86229 7.0089 5.35273 6.81775 5.09764 6.6266Z" fill="#181713"/>
<path d="M6.43534 1.72054C8.60144 1.72054 10.4495 3.50462 10.4495 5.73471C10.4495 7.9648 8.66569 9.74887 6.43534 9.74887C4.20498 9.74887 2.4212 7.83737 2.4212 5.67099C2.4212 3.50462 4.20498 1.72054 6.43534 1.72054ZM5.60705 11.2144V12.871C5.60705 13.317 5.98939 13.6993 6.43534 13.6993H13.6353V14.5276C13.6353 14.9737 14.0177 15.356 14.4636 15.356C14.9102 15.356 15.2925 14.9737 15.2925 14.5276V12.9347C15.2925 12.4887 14.9102 12.1064 14.4636 12.1064H7.19999V11.2781C9.87629 10.8958 11.9788 8.53825 11.9788 5.73471C11.9788 2.6763 9.49396 0.127623 6.37172 0.127623C3.24947 0.127623 0.764648 2.61258 0.764648 5.73471C0.828265 8.47453 2.93138 10.8321 5.60705 11.2144Z" fill="#181713"/>
<path d="M17.9043 4.77881C17.8407 4.7151 17.7765 4.65138 17.7765 4.52395C17.7765 4.26908 17.9679 4.14164 18.2866 4.14164V4.96996C18.0952 4.90625 17.9679 4.84253 17.9043 4.77881ZM18.5417 6.2443C18.7326 6.30802 18.8598 6.37173 18.9235 6.43545C19.0513 6.49917 19.0513 6.6266 19.0513 6.69032C19.0513 6.94519 18.8598 7.07262 18.5417 7.07262V6.2443ZM17.0118 6.6266C16.9482 6.56289 16.8846 6.56289 16.8846 6.49917L16.375 7.51864C16.8846 7.83722 17.5856 8.09209 18.1588 8.09209V8.92041H18.6054V8.09209C19.2422 8.09209 19.8796 7.83722 20.1347 7.26377C20.3255 6.88147 20.3255 6.37173 20.1347 5.98943C20.0068 5.73457 19.816 5.4797 19.37 5.28855C18.9234 5.0974 18.5417 5.03368 18.5417 5.03368V4.07793C18.9877 4.14164 19.5609 4.46023 19.6245 4.52395L20.1347 3.56819C19.9432 3.44076 19.6887 3.37704 19.4336 3.24961C19.1785 3.12217 18.8598 3.05846 18.6054 3.05846V2.35757H18.1588V3.12217C17.1397 3.24961 16.5659 3.88678 16.5659 4.7151C16.5659 5.03368 16.6301 5.35226 16.8846 5.54342C17.1397 5.79828 17.522 5.92572 17.9043 6.05315L18.223 6.18058V7.07262C17.8407 7.0089 17.2669 6.81775 17.0118 6.6266Z" fill="#181713"/>
<path d="M18.3506 1.72034C20.5167 1.72034 22.3647 3.50442 22.3647 5.73451C22.3647 7.9646 20.5809 9.74867 18.3506 9.74867C16.1202 9.74867 14.3364 7.9646 14.3364 5.73451C14.3364 3.50442 16.1845 1.72034 18.3506 1.72034ZM17.5859 11.2142V15.2283C17.5859 15.6743 17.9683 16.0566 18.4142 16.0566C18.8601 16.0566 19.2425 15.6743 19.2425 15.2283V11.2142C21.9188 10.8319 24.0213 8.47433 24.0213 5.67079C24.0213 2.61238 21.5364 0.0637035 18.4142 0.0637035C15.2926 0.0637035 12.8071 2.54866 12.8071 5.67079C12.8071 8.47433 14.8466 10.8319 17.5859 11.2142Z" fill="#181713"/>
<path d="M29.8197 4.77881C29.7555 4.7151 29.6918 4.65138 29.6918 4.52395C29.6918 4.26908 29.8833 4.14164 30.2014 4.14164V4.96996C30.0105 4.90625 29.8833 4.84253 29.8197 4.77881ZM30.5201 6.2443C30.7116 6.30802 30.8388 6.37173 30.9031 6.43545C31.0303 6.49917 31.0303 6.6266 31.0303 6.69032C31.0303 6.94519 30.8388 7.07262 30.5201 7.07262V6.2443ZM28.9914 6.6266C28.9272 6.56289 28.8636 6.56289 28.8636 6.49917L28.354 7.51864C28.8636 7.83722 29.5646 8.09209 30.1384 8.09209V8.92041H30.5844V8.09209C31.2211 8.09209 31.8579 7.83722 32.1137 7.26377C32.3039 6.88147 32.3039 6.37173 32.1137 5.98943C31.9858 5.73457 31.795 5.4797 31.349 5.28855C30.9031 5.0974 30.5201 5.03368 30.5201 5.03368V4.07793C30.9661 4.14164 31.5392 4.46023 31.6035 4.52395L32.1137 3.56819C31.9222 3.44076 31.6677 3.37704 31.412 3.24961C31.1575 3.12217 30.8388 3.05846 30.5844 3.05846V2.35757H30.1384V3.12217C29.1187 3.24961 28.5455 3.88678 28.5455 4.7151C28.5455 5.03368 28.6085 5.35226 28.8636 5.54342C29.1187 5.79828 29.501 5.92572 29.8833 6.05315L30.2014 6.18058V7.07262C29.7554 7.0089 29.2459 6.81775 28.9914 6.6266Z" fill="#181713"/>
<path d="M30.3295 1.7203C32.4957 1.7203 34.3437 3.50437 34.3437 5.73446C34.3437 7.96455 32.5599 9.74862 30.3295 9.74862C28.0998 9.74862 26.3154 7.96455 26.3154 5.73446C26.3154 3.50437 28.0998 1.7203 30.3295 1.7203ZM29.5013 11.2141V12.0424H22.3649C21.9189 12.0424 21.5366 12.4247 21.5366 12.8708V14.4637C21.5366 14.9097 21.9189 15.292 22.3649 15.292C22.8108 15.292 23.1932 14.9097 23.1932 14.4637V13.6354H30.3932C30.8391 13.6354 31.2214 13.2531 31.2214 12.807V11.1504C33.8977 10.7681 36.0002 8.41057 36.0002 5.60703C36.0002 2.54862 33.5154 -5.91278e-05 30.3932 -5.91278e-05C27.2709 -5.91278e-05 24.7225 2.61233 24.7225 5.67074C24.7225 8.47429 26.825 10.8318 29.5013 11.2141Z" fill="#181713"/>
<path d="M35.1074 11.214C35.5654 11.214 35.9363 11.5848 35.9363 12.0423C35.9363 12.4998 35.5654 12.8706 35.1074 12.8706C34.6508 12.8706 34.2798 12.4998 34.2798 12.0423C34.2798 11.5848 34.6508 11.214 35.1074 11.214Z" fill="#181713"/>
<path d="M2.4213 12.0426C2.87921 12.0426 3.24957 12.4134 3.24957 12.8709C3.24957 13.3284 2.87921 13.6992 2.4213 13.6992C1.96402 13.6992 1.59302 13.3284 1.59302 12.8709C1.59302 12.4134 1.96402 12.0426 2.4213 12.0426Z" fill="#181713"/>
<path d="M0.828283 20.0069C1.2862 20.0069 1.65718 20.3778 1.65718 20.8353C1.65718 21.2927 1.2862 21.6636 0.828283 21.6636C0.371 21.6636 0 21.2927 0 20.8353C0 20.3778 0.371 20.0069 0.828283 20.0069Z" fill="#181713"/>
<path d="M35.1074 34.3434C35.5654 34.3434 35.9363 34.7142 35.9363 35.1717C35.9363 35.6292 35.5654 36 35.1074 36C34.6508 36 34.2798 35.6292 34.2798 35.1717C34.2798 34.7142 34.6508 34.3434 35.1074 34.3434Z" fill="#181713"/>
<path d="M35.1074 20.7716C35.5654 20.7716 35.9363 21.1424 35.9363 21.5999C35.9363 22.0574 35.5654 22.4282 35.1074 22.4282C34.6508 22.4282 34.2798 22.0574 34.2798 21.5999C34.2798 21.1424 34.6508 20.7716 35.1074 20.7716Z" fill="#181713"/>
</svg>
