<svg width="35" height="34" viewBox="0 0 35 34" fill="none" xmlns="http://www.w3.org/2000/svg">
<g clip-path="url(#clip0_293_10185)">
<path fill-rule="evenodd" clip-rule="evenodd" d="M4.85342 17.5303C4.71277 17.3897 4.63375 17.1989 4.63375 17C4.63375 16.8011 4.71277 16.6103 4.85342 16.4697L11.2174 10.1057C11.358 9.96506 11.5488 9.88604 11.7477 9.88604C11.9466 9.88604 12.1374 9.96506 12.278 10.1057C12.4187 10.2464 12.4977 10.4371 12.4977 10.636C12.4977 10.835 12.4187 11.0257 12.278 11.1664L7.1943 16.2501L28.7183 16.2491C28.8169 16.2491 28.9145 16.2685 29.0056 16.3062C29.0968 16.344 29.1795 16.3993 29.2493 16.469C29.319 16.5387 29.3743 16.6215 29.4121 16.7126C29.4498 16.8037 29.4692 16.9014 29.4692 17C29.4692 17.0986 29.4498 17.1963 29.4121 17.2874C29.3743 17.3785 29.319 17.4613 29.2493 17.531C29.1795 17.6007 29.0968 17.656 29.0056 17.6938C28.9145 17.7315 28.8169 17.7509 28.7183 17.7509L7.1943 17.7499L12.278 22.8336C12.4187 22.9743 12.4977 23.165 12.4977 23.364C12.4977 23.5629 12.4187 23.7536 12.278 23.8943C12.1374 24.0349 11.9466 24.114 11.7477 24.114C11.5488 24.114 11.358 24.0349 11.2174 23.8943L4.85342 17.5303Z" fill="white"/>
</g>
<defs>
<clipPath id="clip0_293_10185">
<rect width="24" height="24" fill="white" transform="translate(34.0225 17) rotate(135)"/>
</clipPath>
</defs>
</svg>
