<svg width="32" height="27" viewBox="0 0 32 27" fill="none" xmlns="http://www.w3.org/2000/svg">
<path d="M14.4448 20.7456C14.4448 19.0485 14.0023 17.6233 13.1172 16.47C12.49 15.6754 11.6389 15.1534 10.564 14.904C9.50577 14.6571 8.50526 14.6398 7.60095 14.85C7.2931 13.0179 7.79336 11.0777 9.06324 9.02186C10.3357 6.96729 11.9763 5.4225 13.985 4.3875L10.943 0C9.4038 0.763714 7.94151 1.73186 6.59467 2.9025C5.22858 4.07314 4.01642 5.41929 2.93894 6.94093C1.86147 8.46257 1.05336 10.1809 0.533865 12.1288C0.0143679 14.0766 -0.129936 16.0631 0.118268 18.1074C0.44151 20.8074 1.31119 22.9674 2.7273 24.5681C4.14213 26.1894 5.90457 27 8.01462 27C9.87135 27 11.4125 26.4407 12.6324 25.3067C13.8394 24.1959 14.4423 22.6736 14.441 20.7399L14.4448 20.7456ZM32 20.7456C32 19.0485 31.5575 17.6233 30.6724 16.47C30.0439 15.66 29.1928 15.1348 28.1192 14.8944C27.0417 14.6565 26.054 14.6424 25.1561 14.8519C24.8483 13.0391 25.3293 11.0912 26.603 9.02764C27.8729 6.98336 29.5122 5.4405 31.5209 4.39907L28.4867 0C26.9461 0.763714 25.4967 1.73121 24.1383 2.9025C22.7599 4.09064 21.5356 5.44737 20.4941 6.94093C19.4243 8.4645 18.6278 10.1809 18.1083 12.1288C17.5806 14.0751 17.4387 16.1063 17.6907 18.1074C18.0101 20.8074 18.876 22.9674 20.2882 24.5681C21.6992 26.1778 23.4584 26.9826 25.5659 26.9826C27.4259 26.9852 28.9664 26.4214 30.1875 25.2913C31.3946 24.1804 31.9987 22.6581 32 20.7244V20.7456Z" fill="#FFA41C"/>
</svg>
