<svg width="35" height="34" viewBox="0 0 35 34" fill="none" xmlns="http://www.w3.org/2000/svg">
<g clip-path="url(#clip0_293_10181)">
<path fill-rule="evenodd" clip-rule="evenodd" d="M30.1456 16.4697C30.2863 16.6103 30.3653 16.8011 30.3653 17C30.3653 17.1989 30.2863 17.3897 30.1456 17.5303L23.7816 23.8943C23.641 24.0349 23.4502 24.114 23.2513 24.114C23.0524 24.114 22.8616 24.0349 22.721 23.8943C22.5803 23.7536 22.5013 23.5629 22.5013 23.364C22.5013 23.165 22.5803 22.9743 22.721 22.8336L27.8047 17.7499L6.28075 17.7509C6.18213 17.7509 6.08448 17.7315 5.99337 17.6938C5.90227 17.656 5.81948 17.6007 5.74975 17.531C5.68002 17.4613 5.6247 17.3785 5.58697 17.2874C5.54923 17.1963 5.5298 17.0986 5.5298 17C5.5298 16.9014 5.54923 16.8037 5.58697 16.7126C5.6247 16.6215 5.68002 16.5387 5.74975 16.469C5.81948 16.3993 5.90227 16.344 5.99337 16.3062C6.08448 16.2685 6.18213 16.2491 6.28075 16.2491L27.8047 16.2501L22.721 11.1664C22.5803 11.0257 22.5013 10.835 22.5013 10.636C22.5013 10.4371 22.5803 10.2464 22.721 10.1057C22.8616 9.96506 23.0524 9.88604 23.2513 9.88604C23.4502 9.88604 23.641 9.96506 23.7816 10.1057L30.1456 16.4697Z" fill="white"/>
</g>
<defs>
<clipPath id="clip0_293_10181">
<rect width="24" height="24" fill="white" transform="translate(0.976562 17) rotate(-45)"/>
</clipPath>
</defs>
</svg>
