<svg width="67" height="67" viewBox="0 0 67 67" fill="none" xmlns="http://www.w3.org/2000/svg">
<g opacity="0.2">
<path d="M59.674 28.8309C61.7544 30.8496 62.5714 33.823 63.0416 36.6776C64.0058 42.4961 63.8966 48.4856 62.7187 54.2661C62.2627 56.4842 61.612 58.7594 60.1158 60.4646C58.1114 62.754 54.8814 63.6422 51.8416 63.5614C48.797 63.4807 45.8522 62.5592 42.9121 61.7755C39.9672 60.9965 36.9082 60.3411 33.9016 60.8065C28.2304 61.6805 23.4948 66.397 17.7571 66.3828C12.1191 66.3685 7.33607 61.4145 6.12013 55.9095C4.90418 50.4045 6.6142 44.6193 9.30258 39.6652C11.3545 35.8844 14.0428 32.3553 17.5957 29.9282C21.2673 27.4155 25.6703 26.1996 30.0544 25.4682C37.3833 24.2475 44.9212 24.2712 52.2216 25.6486C54.9147 26.1568 57.7076 26.9168 59.674 28.8309Z" fill="#56227F"/>
<path d="M66.37 6.00402C67.1632 7.78995 66.959 9.87501 66.864 11.8509C66.7642 13.8886 66.7879 15.9548 66.3082 17.9402C65.8284 19.9208 64.7455 21.8683 62.9976 22.8087C61.3874 23.6732 59.4828 23.564 57.6826 23.4357C54.581 23.2125 51.2751 22.9132 48.8527 20.9088C46.7818 19.2036 45.6657 16.3965 45.7322 13.6321C45.7987 10.8677 46.9813 8.17932 48.791 6.13216C51.8784 2.62682 56.8324 1.0452 61.2259 2.1519C63.3538 2.68862 65.4533 3.93787 66.37 6.00402Z" fill="#56227F"/>
<path d="M31.5343 20.8169C26.528 20.1947 22.2389 15.9388 21.8067 11.1653C21.3745 6.387 24.8466 1.60404 29.6819 0.312096C32.0425 -0.314875 34.8782 -0.058466 36.5834 1.65621C38.146 3.22839 38.374 5.55586 38.8252 7.66951C39.5567 11.0846 41.0291 14.8511 39.1862 17.8293C37.7138 20.2184 34.4506 21.1779 31.5343 20.8169Z" fill="#56227F"/>
<path d="M9.33162 29.7527C5.75503 29.957 2.31628 27.5155 0.877093 24.2334C-0.557343 20.9513 -0.148954 17.0374 1.49447 13.8551C2.33993 12.2164 3.68422 10.6205 5.50813 10.345C6.85707 10.1408 8.20125 10.7013 9.4172 11.3188C11.8633 12.5727 14.1574 14.1259 16.2236 15.9451C18.0095 17.5172 19.7384 19.5834 19.5769 21.9582C19.406 24.3901 17.3114 26.214 15.2452 27.5155C13.4403 28.6507 11.4595 29.634 9.33162 29.7527Z" fill="#56227F"/>
</g>
</svg>
