<svg width="202" height="94" viewBox="0 0 202 94" fill="none" xmlns="http://www.w3.org/2000/svg">
<path d="M193.201 89.4898C189.494 91.0142 187.314 87.0741 187.316 83.8432C187.868 83.2955 188.051 82.446 187.863 81.7026C188.939 80.2569 190.435 79.5051 192.43 79.9717C194.39 80.4299 196.287 81.9643 196.95 83.8892C197.847 86.4905 195.38 88.5934 193.201 89.4898ZM72.565 67.017C57.4069 66.6215 42.2038 64.3479 27.6962 59.8703C21.0434 57.8166 13.7491 55.1384 8.79025 50.0411C3.76764 44.8786 3.63343 36.3221 6.81087 30.2624C10.4047 23.4067 17.5569 18.8353 24.2153 15.3786C32.99 10.8249 42.7447 8.15749 52.4334 6.41575C68.9185 3.4507 86.5457 4.06526 103.221 4.84875C119.137 5.59628 135.408 7.41664 150.444 12.9604C162.483 17.3988 174.026 25.7312 175.469 39.3984C175.482 39.5188 175.511 39.6266 175.539 39.7362C175.533 39.8047 175.519 39.8683 175.518 39.9402C175.494 47.9707 167.843 52.7728 161.459 56.0038C154.138 59.7097 146.035 61.9322 138.075 63.7835C116.678 68.7595 94.3555 67.5856 72.565 67.017ZM201.304 84.523C201.023 80.5069 197.764 77.4356 194.161 76.1253C190.057 74.632 185.93 76.5819 183.847 80.1883C172.445 79.5311 164.474 71.5482 159.893 61.2842C160.212 61.1496 160.534 61.0233 160.852 60.8854C169.578 57.0984 179.667 50.5637 179.699 39.9402C179.7 39.7679 179.682 39.6074 179.65 39.4569C179.649 39.436 179.652 39.4184 179.65 39.3984C176.319 7.84724 134.321 2.85447 109.575 1.04668C92.2609 -0.218445 74.1395 -0.64402 56.8885 1.54173C39.4912 3.74503 19.309 9.40169 7.05812 22.7879C-2.0352 32.7249 -1.61252 47.8462 9.4157 56.064C15.2068 60.3795 22.5739 62.7634 29.4254 64.7526C37.3038 67.0396 45.418 68.5447 53.5363 69.6743C71.447 72.1678 90.0024 72.0265 108.034 71.5072C124.358 71.0364 140.78 68.6174 156.088 62.8069C156.121 62.9716 156.168 63.1397 156.244 63.3086C161.323 74.7524 170.658 83.4728 183.225 84.344C183.447 89.1771 186.29 93.8571 191.694 93.9976C196.466 94.1222 201.645 89.3928 201.304 84.523Z" fill="white" fill-opacity="0.2"/>
<path d="M59.4145 30.9771H57.2751C57.1486 30.3618 56.9272 29.8212 56.6109 29.3553C56.3003 28.8895 55.9208 28.4984 55.4722 28.1821C55.0294 27.8601 54.5376 27.6185 53.997 27.4575C53.4565 27.2965 52.8929 27.2159 52.3062 27.2159C51.2366 27.2159 50.2675 27.4862 49.3991 28.0268C48.5364 28.5674 47.8492 29.364 47.3374 30.4164C46.8313 31.4688 46.5782 32.7599 46.5782 34.2897C46.5782 35.8195 46.8313 37.1106 47.3374 38.163C47.8492 39.2155 48.5364 40.012 49.3991 40.5526C50.2675 41.0932 51.2366 41.3635 52.3062 41.3635C52.8929 41.3635 53.4565 41.283 53.997 41.1219C54.5376 40.9609 55.0294 40.7222 55.4722 40.4059C55.9208 40.0839 56.3003 39.6899 56.6109 39.2241C56.9272 38.7525 57.1486 38.2119 57.2751 37.6023H59.4145C59.2535 38.5052 58.9602 39.3132 58.5346 40.0264C58.109 40.7395 57.5799 41.3462 56.9473 41.8466C56.3147 42.3412 55.6045 42.7178 54.8166 42.9766C54.0344 43.2354 53.1977 43.3648 52.3062 43.3648C50.7995 43.3648 49.4595 42.9968 48.2863 42.2606C47.1131 41.5245 46.19 40.4778 45.5172 39.1206C44.8443 37.7633 44.5079 36.153 44.5079 34.2897C44.5079 32.4264 44.8443 30.8161 45.5172 29.4588C46.19 28.1016 47.1131 27.0549 48.2863 26.3188C49.4595 25.5827 50.7995 25.2146 52.3062 25.2146C53.1977 25.2146 54.0344 25.344 54.8166 25.6028C55.6045 25.8616 56.3147 26.2411 56.9473 26.7415C57.5799 27.2361 58.109 27.8399 58.5346 28.5531C58.9602 29.2604 59.2535 30.0685 59.4145 30.9771ZM62.8716 43.1233V25.4561H65.011V33.3235H74.4312V25.4561H76.5706V43.1233H74.4312V35.2214H65.011V43.1233H62.8716ZM81.5783 43.1233H79.3354L85.8225 25.4561H88.0309L94.5181 43.1233H92.2752L86.9957 28.2511H86.8577L81.5783 43.1233ZM82.4064 36.2221H91.447V38.1199H82.4064V36.2221ZM97.2699 43.1233V25.4561H103.24C104.62 25.4561 105.753 25.6919 106.638 26.1635C107.524 26.6293 108.18 27.2706 108.605 28.0872C109.031 28.9039 109.244 29.8327 109.244 30.8736C109.244 31.9145 109.031 32.8376 108.605 33.6427C108.18 34.4479 107.527 35.0805 106.647 35.5406C105.767 35.9949 104.643 36.2221 103.274 36.2221H98.4431V34.2897H103.205C104.148 34.2897 104.907 34.1517 105.482 33.8756C106.063 33.5996 106.483 33.2085 106.742 32.7024C107.006 32.1906 107.139 31.581 107.139 30.8736C107.139 30.1662 107.006 29.548 106.742 29.0189C106.477 28.4898 106.055 28.0815 105.474 27.7939C104.893 27.5006 104.125 27.354 103.17 27.354H99.4093V43.1233H97.2699ZM105.586 35.1869L109.934 43.1233H107.449L103.17 35.1869H105.586ZM114.948 25.4561V43.1233H112.808V25.4561H114.948ZM118.271 27.354V25.4561H131.522V27.354H125.966V43.1233H123.827V27.354H118.271ZM133.305 25.4561H135.755L140.655 33.7031H140.862L145.762 25.4561H148.212L141.828 35.8425V43.1233H139.689V35.8425L133.305 25.4561Z" fill="white" fill-opacity="0.2"/>
</svg>
