<svg width="13" height="18" viewBox="0 0 13 18" fill="none" xmlns="http://www.w3.org/2000/svg">
<path d="M2.38154 1.01509L3.35404 0.722586C3.88678 0.561939 4.45978 0.600611 4.9661 0.831386C5.47242 1.06216 5.87749 1.46927 6.10571 1.97675L6.85738 3.64842C7.0536 4.08492 7.10824 4.5719 7.01363 5.04103C6.91903 5.51017 6.67993 5.93791 6.32987 6.26425L5.08404 7.42509C5.04765 7.459 5.02459 7.50482 5.01904 7.55425C4.98237 7.88509 5.20654 8.52925 5.72404 9.42509C6.09904 10.0759 6.43987 10.5334 6.72904 10.7893C6.93154 10.9684 7.04237 11.0068 7.08987 10.9934L8.76487 10.4809C9.2223 10.341 9.71204 10.3477 10.1655 10.5002C10.6189 10.6526 11.0132 10.9431 11.2932 11.3309L12.3599 12.8109C12.6846 13.2609 12.835 13.8134 12.7832 14.3659C12.7314 14.9184 12.4809 15.4333 12.0782 15.8151L11.339 16.5151C10.9472 16.8862 10.4659 17.1495 9.94205 17.2793C9.41821 17.4091 8.86968 17.4011 8.34987 17.2559C6.05487 16.6151 3.99737 14.6784 2.15404 11.4859C0.309041 8.28925 -0.339293 5.53592 0.259041 3.22509C0.393354 2.70537 0.659279 2.229 1.03119 1.84192C1.40309 1.45483 1.86761 1.17007 2.38154 1.01509ZM2.74321 2.21259C2.43478 2.30534 2.15545 2.47598 1.93213 2.70806C1.70881 2.94013 1.54904 3.22582 1.46821 3.53759C0.966541 5.48092 1.54071 7.92175 3.23737 10.8609C4.93237 13.7959 6.75654 15.5134 8.68737 16.0526C8.99928 16.1396 9.32839 16.1443 9.64266 16.0663C9.95694 15.9883 10.2457 15.8303 10.4807 15.6076L11.219 14.9076C11.4022 14.7341 11.5162 14.5 11.5398 14.2488C11.5634 13.9976 11.495 13.7463 11.3474 13.5418L10.2807 12.0626C10.1534 11.8861 9.97407 11.7539 9.76781 11.6845C9.56156 11.6152 9.33876 11.6122 9.13071 11.6759L7.45154 12.1901C6.47654 12.4801 5.59237 11.6959 4.64237 10.0501C4.00071 8.94175 3.70237 8.08342 3.77737 7.41592C3.81571 7.06925 3.97737 6.74925 4.23154 6.51092L5.47737 5.35009C5.63642 5.20167 5.74501 5.00718 5.7879 4.79391C5.83079 4.58064 5.80584 4.35929 5.71654 4.16092L4.96571 2.48925C4.86196 2.25858 4.67782 2.07353 4.44766 1.96865C4.21749 1.86376 3.95703 1.84621 3.71487 1.91925L2.74321 2.21259Z" fill="white"/>
</svg>
