<svg width="154" height="77" viewBox="0 0 154 77" fill="none" xmlns="http://www.w3.org/2000/svg">
<path d="M140.55 63.0336C135.169 66.1335 129.102 68.0308 123.131 69.6207C108.095 73.6244 92.6338 73.8845 77.1663 73.6133C65.044 73.4006 53.2094 73.0041 41.2728 70.7372C35.2974 69.6017 29.3656 68.1077 23.6552 65.9995C19.2261 64.3647 14.042 62.112 11.1782 58.1618C3.04726 46.9476 14.4164 35.9983 23.6964 30.9267C36.8227 23.753 51.9958 21.7389 66.7231 21.3836C79.4393 21.0774 92.2065 21.3184 104.849 22.8105C116.41 24.1748 128.657 26.6125 138.608 32.9599C144.79 36.9027 149.243 42.9162 150.014 50.3204C150.024 50.4194 150.047 50.5104 150.071 50.599C150.066 50.6555 150.054 50.7084 150.054 50.7693C150.056 56.5934 145.164 60.3751 140.55 63.0336ZM6.78718 10.3095C5.28457 9.93999 3.91292 8.71651 3.46718 7.22803C2.9034 5.34547 4.81793 3.88898 6.35927 3.29015C9.16406 2.20193 10.6642 5.2674 10.5652 7.65473C10.267 8.01624 10.1564 8.51915 10.2369 8.98641C9.42289 10.1097 8.28979 10.6796 6.78718 10.3095ZM153.089 50.4047C153.087 50.3758 153.091 50.3506 153.088 50.3204C150.701 27.4001 122.69 21.8422 104.079 19.6461C91.4657 18.157 78.7039 18.0211 66.0203 18.3267C54.8577 18.596 43.7984 20.0057 33.2863 23.5434C29.6976 14.869 23.0558 8.09309 13.6024 7.24586C13.5255 3.6535 11.4426 0.131241 7.4352 0.00273895C3.9449 -0.109154 0.198197 3.2262 0.303946 6.76754C0.393709 9.77522 2.8671 12.1361 5.52126 13.1346C8.49328 14.2529 11.4874 12.8573 13.0669 10.2892C21.3349 10.9163 27.2052 16.8198 30.3278 24.3734C30.3561 24.4429 30.3948 24.5019 30.4299 24.5646C28.3789 25.3393 26.3481 26.1908 24.3469 27.1474C14.9218 31.651 4.30577 39.9694 5.62885 51.6472C6.83635 62.3038 16.3875 66.8245 25.4825 69.898C36.1003 73.4854 47.5217 75.3459 58.6825 76.1537C73.8684 77.2524 89.6175 77.3582 104.781 76.0142C115.317 75.0803 125.965 72.6794 135.78 68.6997C143.438 65.5943 153.131 60.2251 153.129 50.7693C153.129 50.6389 153.114 50.5172 153.089 50.4047Z" fill="white" fill-opacity="0.2"/>
<path d="M42.7605 52.9728H38.7518V39.9825H42.9381C44.1982 39.9825 45.2765 40.2426 46.1729 40.7627C47.0694 41.2786 47.7566 42.0207 48.2344 42.9891C48.7122 43.9532 48.9511 45.1076 48.9511 46.4523C48.9511 47.8054 48.7101 48.9704 48.228 49.9472C47.746 50.9198 47.044 51.6683 46.1222 52.1926C45.2004 52.7127 44.0798 52.9728 42.7605 52.9728ZM40.3248 51.5773H42.659C43.733 51.5773 44.6232 51.3701 45.3293 50.9557C46.0355 50.5413 46.562 49.9514 46.9087 49.1861C47.2555 48.4207 47.4288 47.5094 47.4288 46.4523C47.4288 45.4036 47.2576 44.5008 46.9151 43.7439C46.5725 42.9827 46.0609 42.3992 45.3801 41.9932C44.6993 41.583 43.8514 41.378 42.8366 41.378H40.3248V51.5773ZM62.5503 46.4776C62.5503 47.8477 62.3029 49.0317 61.8082 50.0297C61.3135 51.0276 60.6348 51.7972 59.7721 52.3385C58.9095 52.8797 57.9242 53.1504 56.8163 53.1504C55.7084 53.1504 54.7232 52.8797 53.8605 52.3385C52.9979 51.7972 52.3192 51.0276 51.8245 50.0297C51.3297 49.0317 51.0824 47.8477 51.0824 46.4776C51.0824 45.1076 51.3297 43.9236 51.8245 42.9256C52.3192 41.9277 52.9979 41.1581 53.8605 40.6168C54.7232 40.0755 55.7084 39.8049 56.8163 39.8049C57.9242 39.8049 58.9095 40.0755 59.7721 40.6168C60.6348 41.1581 61.3135 41.9277 61.8082 42.9256C62.3029 43.9236 62.5503 45.1076 62.5503 46.4776ZM61.028 46.4776C61.028 45.3528 60.8398 44.4035 60.4635 43.6297C60.0914 42.8559 59.5861 42.2702 58.9475 41.8727C58.3133 41.4752 57.6029 41.2765 56.8163 41.2765C56.0298 41.2765 55.3173 41.4752 54.6788 41.8727C54.0445 42.2702 53.5392 42.8559 53.1628 43.6297C52.7907 44.4035 52.6046 45.3528 52.6046 46.4776C52.6046 47.6025 52.7907 48.5518 53.1628 49.3256C53.5392 50.0994 54.0445 50.6851 54.6788 51.0826C55.3173 51.4801 56.0298 51.6788 56.8163 51.6788C57.6029 51.6788 58.3133 51.4801 58.9475 51.0826C59.5861 50.6851 60.0914 50.0994 60.4635 49.3256C60.8398 48.5518 61.028 47.6025 61.028 46.4776ZM75.4962 39.9825V52.9728H73.9739L66.8952 42.7734H66.7683V52.9728H65.1953V39.9825H66.7176L73.8217 50.2073H73.9485V39.9825H75.4962ZM79.1766 52.9728H77.5275L82.2974 39.9825H83.9211L88.691 52.9728H87.0418L83.16 42.0376H83.0585L79.1766 52.9728ZM79.7856 47.8985H86.4329V49.2939H79.7856V47.8985ZM88.4864 41.378V39.9825H98.2291V41.378H94.1443V52.9728H92.5713V41.378H88.4864ZM102.23 39.9825V52.9728H100.657V39.9825H102.23ZM116.344 46.4776C116.344 47.8477 116.097 49.0317 115.602 50.0297C115.108 51.0276 114.429 51.7972 113.566 52.3385C112.704 52.8797 111.718 53.1504 110.61 53.1504C109.503 53.1504 108.517 52.8797 107.655 52.3385C106.792 51.7972 106.113 51.0276 105.619 50.0297C105.124 49.0317 104.876 47.8477 104.876 46.4776C104.876 45.1076 105.124 43.9236 105.619 42.9256C106.113 41.9277 106.792 41.1581 107.655 40.6168C108.517 40.0755 109.503 39.8049 110.61 39.8049C111.718 39.8049 112.704 40.0755 113.566 40.6168C114.429 41.1581 115.108 41.9277 115.602 42.9256C116.097 43.9236 116.344 45.1076 116.344 46.4776ZM114.822 46.4776C114.822 45.3528 114.634 44.4035 114.258 43.6297C113.886 42.8559 113.38 42.2702 112.742 41.8727C112.107 41.4752 111.397 41.2765 110.61 41.2765C109.824 41.2765 109.111 41.4752 108.473 41.8727C107.839 42.2702 107.333 42.8559 106.957 43.6297C106.585 44.4035 106.399 45.3528 106.399 46.4776C106.399 47.6025 106.585 48.5518 106.957 49.3256C107.333 50.0994 107.839 50.6851 108.473 51.0826C109.111 51.4801 109.824 51.6788 110.61 51.6788C111.397 51.6788 112.107 51.4801 112.742 51.0826C113.38 50.6851 113.886 50.0994 114.258 49.3256C114.634 48.5518 114.822 47.6025 114.822 46.4776ZM129.29 39.9825V52.9728H127.768L120.689 42.7734H120.562V52.9728H118.989V39.9825H120.512L127.616 50.2073H127.743V39.9825H129.29Z" fill="white" fill-opacity="0.2"/>
</svg>
