<svg width="67" height="64" viewBox="0 0 67 64" fill="none" xmlns="http://www.w3.org/2000/svg">
<g opacity="0.2">
<path d="M7.28689 28.8329C5.21123 30.8516 4.39434 33.8249 3.91936 36.6795C2.9599 42.498 3.06912 48.4923 4.24707 54.268C4.70305 56.4909 5.35376 58.7613 6.84519 60.4665C8.8496 62.7607 12.0794 63.6441 15.124 63.5634C18.1639 63.4826 21.1135 62.5612 24.0537 61.7775C26.9938 60.9985 30.0574 60.343 33.064 60.8085C38.7352 61.6824 43.4708 66.399 49.2085 66.3847C54.8465 66.3705 59.6295 61.4164 60.8455 55.9114C62.0567 50.4064 60.3515 44.626 57.6632 39.6672C55.6112 35.8864 52.9229 32.3573 49.37 29.9301C45.6985 27.4222 41.2954 26.2063 36.9066 25.4749C29.5824 24.2542 22.0445 24.2731 14.744 25.6506C12.0509 26.1588 9.2533 26.9235 7.28689 28.8329Z" fill="#56227F"/>
<path d="M0.591573 6.00387C-0.201641 7.79454 -0.0021689 9.87486 0.0975766 11.8508C0.197322 13.8932 0.168782 15.9594 0.64851 17.94C1.13299 19.9254 2.21118 21.8681 3.9591 22.8086C5.57403 23.673 7.47867 23.5686 9.27884 23.4356C12.3804 23.2123 15.6816 22.9131 18.1087 20.9086C20.1796 19.2035 21.2959 16.3963 21.2294 13.6319C21.1629 10.8676 19.9755 8.17917 18.1705 6.13201C15.0832 2.63142 10.1291 1.04505 5.73076 2.1565C3.60285 2.69322 1.50828 3.93771 0.591573 6.00387Z" fill="#56227F"/>
<path d="M35.4288 20.8151C40.4351 20.1928 44.7242 15.937 45.1564 11.1635C45.5886 6.38992 42.1166 1.60684 37.2813 0.314901C34.9207 -0.31682 32.085 -0.0602989 30.3799 1.65437C28.8172 3.22655 28.5892 5.55878 28.1332 7.67243C27.4065 11.0875 25.9341 14.8493 27.7722 17.8274C29.2494 20.2166 32.5125 21.176 35.4288 20.8151Z" fill="#56227F"/>
<path d="M57.6335 29.7547C61.2101 29.9589 64.649 27.5175 66.0834 24.2354C67.5226 20.9533 67.1141 17.0441 65.4707 13.857C64.6252 12.2184 63.281 10.6225 61.4571 10.347C60.1034 10.1427 58.764 10.7033 57.548 11.3255C55.0972 12.5747 52.8077 14.1326 50.7416 15.947C48.9556 17.5239 47.2268 19.5853 47.3883 21.9602C47.5593 24.3921 49.6539 26.2207 51.72 27.5174C53.5202 28.6526 55.5056 29.6359 57.6335 29.7547Z" fill="#56227F"/>
</g>
</svg>
