<svg width="25" height="24" viewBox="0 0 25 24" fill="none" xmlns="http://www.w3.org/2000/svg">
<path d="M4.5 18L9.5 12M20.5 18L15.5 12M3.5 8L10.725 12.8166C11.3665 13.2443 11.6872 13.4582 12.0339 13.5412C12.3403 13.6147 12.6597 13.6147 12.9661 13.5412C13.3128 13.4582 13.6335 13.2443 14.275 12.8166L21.5 8M6.7 19H18.3C19.4201 19 19.9802 19 20.408 18.782C20.7843 18.5903 21.0903 18.2843 21.282 17.908C21.5 17.4802 21.5 16.9201 21.5 15.8V8.2C21.5 7.0799 21.5 6.51984 21.282 6.09202C21.0903 5.71569 20.7843 5.40973 20.408 5.21799C19.9802 5 19.4201 5 18.3 5H6.7C5.5799 5 5.01984 5 4.59202 5.21799C4.21569 5.40973 3.90973 5.71569 3.71799 6.09202C3.5 6.51984 3.5 7.07989 3.5 8.2V15.8C3.5 16.9201 3.5 17.4802 3.71799 17.908C3.90973 18.2843 4.21569 18.5903 4.59202 18.782C5.01984 19 5.57989 19 6.7 19Z" stroke="#170822" stroke-width="1.6" stroke-linecap="round" stroke-linejoin="round"/>
</svg>
