<svg width="25" height="24" viewBox="0 0 25 24" fill="none" xmlns="http://www.w3.org/2000/svg">
<path d="M14.55 6C15.5268 6.19057 16.4244 6.66826 17.1281 7.37194C17.8318 8.07561 18.3095 8.97326 18.5 9.95M14.55 2C16.5793 2.22544 18.4716 3.13417 19.9163 4.57701C21.3609 6.01984 22.2721 7.91101 22.5 9.94M19 21C10.4396 21 3.5 14.0604 3.5 5.5C3.5 5.11378 3.51413 4.73086 3.54189 4.35173C3.57375 3.91662 3.58968 3.69907 3.7037 3.50103C3.79814 3.33701 3.9655 3.18146 4.13598 3.09925C4.34181 3 4.58188 3 5.06201 3H7.87932C8.28308 3 8.48496 3 8.65802 3.06645C8.81089 3.12515 8.94701 3.22049 9.05442 3.3441C9.17601 3.48403 9.245 3.67376 9.38299 4.05321L10.5491 7.26005C10.7096 7.70153 10.7899 7.92227 10.7763 8.1317C10.7643 8.31637 10.7012 8.49408 10.5942 8.64506C10.4729 8.81628 10.2715 8.93713 9.86863 9.17882L8.5 10C9.7019 12.6489 11.8501 14.7999 14.5 16L15.3212 14.6314C15.5629 14.2285 15.6837 14.0271 15.8549 13.9058C16.0059 13.7988 16.1836 13.7357 16.3683 13.7237C16.5777 13.7101 16.7985 13.7904 17.24 13.9509L20.4468 15.117C20.8262 15.255 21.016 15.324 21.1559 15.4456C21.2795 15.553 21.3749 15.6891 21.4335 15.842C21.5 16.015 21.5 16.2169 21.5 16.6207V19.438C21.5 19.9181 21.5 20.1582 21.4007 20.364C21.3185 20.5345 21.163 20.7019 20.999 20.7963C20.8009 20.9103 20.5834 20.9262 20.1483 20.9581C19.7691 20.9859 19.3862 21 19 21Z" stroke="#170822" stroke-width="1.6" stroke-linecap="round" stroke-linejoin="round"/>
</svg>
