<svg width="50" height="50" viewBox="0 0 50 50" fill="none" xmlns="http://www.w3.org/2000/svg">
<path d="M26.6837 17.1726C26.6837 19.0059 27.1628 20.5455 28.1212 21.7913C28.8003 22.6497 29.7219 23.2136 30.8857 23.483C32.0316 23.7497 33.1149 23.7684 34.0941 23.5413C34.4274 25.5205 33.8857 27.6163 32.5107 29.8372C31.133 32.0566 29.3566 33.7254 27.1816 34.8434L30.4753 39.583C32.142 38.758 33.7253 37.7122 35.1837 36.4476C36.6628 35.183 37.9753 33.7288 39.142 32.0851C40.3087 30.4413 41.1837 28.5851 41.7462 26.4809C42.3087 24.3768 42.4649 22.2309 42.1962 20.0226C41.8462 17.1059 40.9045 14.7726 39.3712 13.0434C37.8392 11.292 35.9309 10.4163 33.6462 10.4163C31.6357 10.4163 29.967 11.0205 28.6462 12.2455C27.3392 13.4455 26.6864 15.09 26.6878 17.1788L26.6837 17.1726ZM7.67533 17.1726C7.67533 19.0059 8.1545 20.5455 9.11283 21.7913C9.79338 22.6663 10.7149 23.2337 11.8774 23.4934C13.0441 23.7504 14.1135 23.7656 15.0857 23.5393C15.4191 25.4976 14.8982 27.6018 13.5191 29.8309C12.1441 32.0393 10.3691 33.7059 8.19408 34.8309L11.4795 39.583C13.1476 38.758 14.717 37.7129 16.1878 36.4476C17.6803 35.1641 19.0059 33.6985 20.1337 32.0851C21.292 30.4393 22.1545 28.5851 22.717 26.4809C23.2884 24.3784 23.442 22.1842 23.1691 20.0226C22.8232 17.1059 21.8857 14.7726 20.3566 13.0434C18.8288 11.3045 16.9239 10.4351 14.642 10.4351C12.6281 10.4323 10.9601 11.0413 9.63783 12.2622C8.33088 13.4622 7.67672 15.1066 7.67533 17.1955V17.1726Z" fill="#FFF700"/>
</svg>
