<svg width="32" height="32" viewBox="0 0 32 32" fill="none" xmlns="http://www.w3.org/2000/svg">
<path d="M26.1333 28L17.7333 19.6C17.0667 20.1333 16.3 20.5556 15.4333 20.8667C14.5667 21.1778 13.6444 21.3333 12.6667 21.3333C10.2444 21.3333 8.19467 20.4942 6.51733 18.816C4.84 17.1378 4.00089 15.088 4 12.6667C3.99911 10.2453 4.83822 8.19556 6.51733 6.51733C8.19645 4.83911 10.2462 4 12.6667 4C15.0871 4 17.1373 4.83911 18.8173 6.51733C20.4973 8.19556 21.336 10.2453 21.3333 12.6667C21.3333 13.6444 21.1778 14.5667 20.8667 15.4333C20.5556 16.3 20.1333 17.0667 19.6 17.7333L28 26.1333L26.1333 28ZM12.6667 18.6667C14.3333 18.6667 15.7502 18.0836 16.9173 16.9173C18.0844 15.7511 18.6676 14.3342 18.6667 12.6667C18.6658 10.9991 18.0827 9.58267 16.9173 8.41733C15.752 7.252 14.3351 6.66844 12.6667 6.66667C10.9982 6.66489 9.58178 7.24844 8.41733 8.41733C7.25289 9.58622 6.66933 11.0027 6.66667 12.6667C6.664 14.3307 7.24756 15.7476 8.41733 16.9173C9.58711 18.0871 11.0036 18.6702 12.6667 18.6667Z" fill="#181713"/>
</svg>
