<svg width="16" height="16" viewBox="0 0 16 16" fill="none" xmlns="http://www.w3.org/2000/svg">
<g clip-path="url(#clip0_245_19212)">
<path d="M8.49987 2.62638C9.16654 2.14638 9.93987 1.90638 10.8132 1.90638C11.2932 1.90638 11.8199 2.03305 12.3932 2.29971C12.9665 2.55971 13.4199 2.86638 13.7532 3.21971C14.4399 4.07305 14.7265 5.06638 14.6265 6.19971C14.5199 7.33305 14.1465 8.21971 13.4999 8.84638L8.43987 13.9064C8.3132 14.033 8.1532 14.093 7.96654 14.093C7.77987 14.093 7.62654 14.033 7.49987 13.9064C7.43823 13.8457 7.38983 13.7729 7.3577 13.6926C7.32557 13.6123 7.31042 13.5262 7.3132 13.4397C7.3132 13.253 7.3732 13.093 7.49987 12.9664L10.5599 9.90638C10.7265 9.75971 10.7265 9.60638 10.5599 9.43971C10.3932 9.27305 10.2399 9.27305 10.0932 9.43971L7.0332 12.4997C6.9715 12.5619 6.89758 12.6105 6.81611 12.6427C6.73463 12.6748 6.64738 12.6897 6.55987 12.6864C6.3732 12.6864 6.21987 12.6264 6.0932 12.4997C6.03156 12.439 5.98316 12.3662 5.95103 12.2859C5.91891 12.2056 5.90376 12.1195 5.90654 12.033C5.90654 11.8464 5.96654 11.6864 6.0932 11.5597L9.1532 8.49971C9.3332 8.33305 9.3332 8.16638 9.1532 7.99971C8.99987 7.83305 8.8532 7.83305 8.68653 7.99971L5.62653 11.093C5.56413 11.1542 5.49009 11.2023 5.40879 11.2344C5.32748 11.2664 5.24057 11.2818 5.1532 11.2797C4.96654 11.2797 4.80654 11.2197 4.66654 11.093C4.5332 10.9664 4.46654 10.813 4.46654 10.6264C4.46654 10.4397 4.53987 10.273 4.68654 10.1264L7.7532 7.05971C7.91987 6.89305 7.91987 6.73971 7.7532 6.59305C7.58654 6.44638 7.42654 6.44638 7.27987 6.59305L4.18654 9.66638C4.03987 9.79971 3.88654 9.87305 3.71987 9.87305C3.5332 9.87305 3.3732 9.80638 3.2532 9.66638C3.12654 9.53305 3.05987 9.37305 3.05987 9.18638C3.05987 8.99971 3.12654 8.84638 3.2532 8.71971C5.2932 6.66638 6.5532 5.42638 7.0332 4.96638L9.40654 7.31305C9.66654 7.55971 9.96654 7.68638 10.3332 7.68638C10.7999 7.68638 11.1665 7.49971 11.4399 7.12638C11.6265 6.85305 11.6932 6.55305 11.6399 6.21971C11.5865 5.88638 11.4465 5.60638 11.2199 5.37305L8.49987 2.62638ZM9.8732 6.84638L7.0332 3.99971L2.3132 8.71971C1.7532 8.15305 1.4332 7.28638 1.35987 6.10638C1.28654 4.93305 1.60654 3.91305 2.3132 3.05971C3.10654 2.27305 4.0532 1.87305 5.1532 1.87305C6.25987 1.87305 7.19987 2.27305 7.96654 3.05971L10.8132 5.90638C10.9399 6.03305 10.9999 6.18638 10.9999 6.37305C10.9999 6.55971 10.9399 6.71971 10.8132 6.84638C10.6865 6.96638 10.5332 7.03305 10.3332 7.03305C10.1532 7.03305 9.99987 6.96638 9.8732 6.84638Z" fill="white"/>
</g>
<defs>
<clipPath id="clip0_245_19212">
<rect width="16" height="16" fill="white"/>
</clipPath>
</defs>
</svg>
