<svg width="40" height="40" viewBox="0 0 40 40" fill="none" xmlns="http://www.w3.org/2000/svg">
<path d="M11.7631 4.03017L13.7081 3.44517C14.7736 3.12388 15.9196 3.20122 16.9322 3.66277C17.9448 4.12432 18.755 4.93854 19.2114 5.95351L20.7147 9.29684C21.1072 10.1698 21.2165 11.1438 21.0273 12.0821C20.8381 13.0203 20.3599 13.8758 19.6597 14.5285L17.1681 16.8502C17.0953 16.918 17.0492 17.0096 17.0381 17.1085C16.9647 17.7702 17.4131 19.0585 18.4481 20.8502C19.1981 22.1518 19.8797 23.0668 20.4581 23.5785C20.8631 23.9368 21.0847 24.0135 21.1797 23.9868L24.5297 22.9618C25.4446 22.682 26.4241 22.6955 27.3309 23.0003C28.2377 23.3052 29.0264 23.8862 29.5864 24.6618L31.7197 27.6218C32.3692 28.5218 32.6701 29.6268 32.5665 30.7318C32.4629 31.8368 31.9618 32.8666 31.1564 33.6302L29.6781 35.0302C28.8944 35.7724 27.9318 36.2989 26.8841 36.5586C25.8364 36.8182 24.7394 36.8021 23.6997 36.5118C19.1097 35.2302 14.9947 31.3568 11.3081 24.9718C7.61808 18.5785 6.32141 13.0718 7.51808 8.45017C7.78671 7.41073 8.31856 6.45801 9.06237 5.68384C9.80618 4.90966 10.7352 4.34014 11.7631 4.03017ZM12.4864 6.42517C11.8696 6.61068 11.3109 6.95196 10.8643 7.41611C10.4176 7.88027 10.0981 8.45164 9.93641 9.07517C8.93308 12.9618 10.0814 17.8435 13.4747 23.7218C16.8647 29.5918 20.5131 33.0268 24.3747 34.1052C24.9986 34.2792 25.6568 34.2886 26.2853 34.1327C26.9139 33.9767 27.4913 33.6606 27.9614 33.2152L29.4381 31.8152C29.8044 31.4682 30.0324 31 30.0796 30.4976C30.1268 29.9952 29.99 29.4927 29.6947 29.0835L27.5614 26.1252C27.3068 25.7722 26.9481 25.5078 26.5356 25.3691C26.1231 25.2304 25.6775 25.2244 25.2614 25.3518L21.9031 26.3802C19.9531 26.9602 18.1847 25.3918 16.2847 22.1002C15.0014 19.8835 14.4047 18.1668 14.5547 16.8318C14.6314 16.1385 14.9547 15.4985 15.4631 15.0218L17.9547 12.7002C18.2728 12.4033 18.49 12.0144 18.5758 11.5878C18.6616 11.1613 18.6117 10.7186 18.4331 10.3218L16.9314 6.97851C16.7239 6.51715 16.3556 6.14706 15.8953 5.93729C15.435 5.72752 14.9141 5.69241 14.4297 5.83851L12.4864 6.42517Z" fill="white"/>
</svg>
