<svg width="40" height="40" viewBox="0 0 40 40" fill="none" xmlns="http://www.w3.org/2000/svg">
<path d="M5 11.6654C5 10.7813 5.35119 9.93346 5.97631 9.30834C6.60143 8.68322 7.44928 8.33203 8.33333 8.33203H31.6667C32.5507 8.33203 33.3986 8.68322 34.0237 9.30834C34.6488 9.93346 35 10.7813 35 11.6654V28.332C35 29.2161 34.6488 30.0639 34.0237 30.6891C33.3986 31.3142 32.5507 31.6654 31.6667 31.6654H8.33333C7.44928 31.6654 6.60143 31.3142 5.97631 30.6891C5.35119 30.0639 5 29.2161 5 28.332V11.6654Z" stroke="white" stroke-width="2" stroke-linecap="round" stroke-linejoin="round"/>
<path d="M5 11.6641L20 21.6641L35 11.6641" stroke="white" stroke-width="2" stroke-linecap="round" stroke-linejoin="round"/>
</svg>
