<svg width="32" height="28" viewBox="0 0 32 28" fill="none" xmlns="http://www.w3.org/2000/svg">
<path d="M24.3657 17.2409C26.5054 18.527 30.0052 16.8958 31.2532 14.4347C32.1057 12.7541 31.7112 11.0737 31.5721 10.4807C31.0782 8.37662 29.3129 5.46085 27.0442 5.57019C24.191 5.70751 23.0154 10.5095 22.9626 10.7358C22.8543 11.2016 21.8575 15.7334 24.3657 17.2409Z" fill="white"/>
<path d="M16.2656 13.6057C17.762 13.5044 18.7408 11.5361 19.773 9.46025C20.5313 7.93579 21.3349 6.32004 21.0484 4.23085C20.9558 3.5552 20.6046 0.990983 18.7526 0.213061C16.7926 -0.610114 14.5159 1.1406 13.5232 2.25387C11.6545 4.34908 11.8405 6.98078 11.9289 7.73856C12.2556 10.5369 14.2826 13.7399 16.2656 13.6057Z" fill="white"/>
<path d="M8.16727 14.1796C9.20415 13.2659 9.09167 11.6894 8.99646 10.353C8.90203 9.03048 8.73437 6.67997 6.82801 5.1236C6.50811 4.86229 4.6967 3.38334 2.81022 3.97555C0.647527 4.65459 0.0422442 7.53584 0.00405437 9.01374C-0.0103322 9.57168 -0.0608125 11.5288 1.40714 13.0953C2.74876 14.5269 4.47829 14.693 5.10607 14.7535C6.02027 14.8416 7.2787 14.9625 8.16727 14.1796Z" fill="white"/>
<path d="M13.5699 24.5192C14.465 26.7813 16.7235 28.187 19.0753 27.9798C21.7005 27.7483 23.4742 25.5927 23.8728 23.5754C24.5215 20.2927 21.4556 17.7449 20.8056 17.2048C16.4214 13.5616 8.68844 14.2759 5.54772 18.0698C5.21578 18.4708 3.95369 19.9955 3.97487 22.1595C3.97984 22.6623 4.00469 25.2147 6.09833 26.4852C7.52051 27.3486 11.6824 26.9576 13.5699 24.5192Z" fill="white"/>
</svg>
