<svg width="34" height="28" viewBox="0 0 34 28" fill="none" xmlns="http://www.w3.org/2000/svg">
<path d="M13.0308 17.3528C12.7068 17.4235 12.4097 17.3321 12.3681 17.1472C12.3266 16.9623 12.5572 16.7545 12.8833 16.6818C13.2074 16.6091 13.5045 16.7005 13.5461 16.8854C13.5876 17.0703 13.357 17.2801 13.0308 17.3528Z" fill="#D8D0BB"/>
<path d="M11.2302 16.0191C11.2717 16.2102 11.1512 16.4013 10.9601 16.4429C10.769 16.4865 10.5778 16.366 10.5363 16.1749C10.4926 15.9817 10.6131 15.7926 10.8063 15.749C10.9975 15.7074 11.1865 15.8279 11.2302 16.0191Z" fill="#D8D0BB"/>
<path d="M14.7936 15.2262C14.8352 15.4194 14.7147 15.6085 14.5236 15.65C14.3324 15.6937 14.1413 15.5732 14.0997 15.382C14.0561 15.1888 14.1766 14.9998 14.3698 14.9582C14.561 14.9146 14.75 15.0351 14.7936 15.2262Z" fill="#D8D0BB"/>
<path d="M23.5923 11.5091C24.9157 11.8685 26.8457 13.4786 26.0936 16.0173C25.2169 18.9736 21.4172 19.923 21.4172 19.923C21.4172 19.923 22.1048 21.1924 22.1048 23.0455C22.1048 24.9007 20.6194 25.8335 20.6194 25.8335H18.1389C17.9623 25.8335 17.8896 25.6071 18.035 25.5032L19.1091 24.7387L19.6534 23.2553L15.5856 22.6986C16.4644 23.6958 15.9679 24.7823 15.9679 24.7823L15.1286 25.8335H12.9493C12.7103 25.8335 12.5753 25.5593 12.7207 25.3702L13.5933 24.2318C11.3807 22.335 11.5366 20.031 11.5366 20.031C12.193 20.2055 12.9119 20.2284 13.6369 20.0664C14.8024 19.8067 15.7518 19.1252 16.3314 18.2402L19.8175 18.3462C19.8175 18.3462 22.8174 17.5069 23.5923 16.3601C24.3423 15.2486 23.7502 13.5554 22.3583 13.3228C21.2614 13.1379 20.6069 13.784 20.2579 14.3283C20.0398 14.6711 19.5869 14.7749 19.2524 14.5443L19.2399 14.536C19.0177 14.3823 18.8992 14.1143 18.9408 13.8463C19.269 11.7065 21.573 10.9627 23.5923 11.5091Z" fill="#D8D0BB"/>
<path d="M13.0313 17.3533C13.3575 17.2806 13.5881 17.0708 13.5466 16.8859C13.505 16.701 13.2079 16.6096 12.8838 16.6823C12.5577 16.755 12.3271 16.9628 12.3686 17.1476C12.4102 17.3325 12.7072 17.424 13.0313 17.3533ZM9.54113 18.8138C9.30845 18.5458 9.11317 18.2466 8.96982 17.9163C8.87425 17.7065 8.80154 17.4863 8.7496 17.2536C8.5834 16.5098 8.66858 15.764 8.94904 15.0909C9.1464 14.6235 9.43518 14.1934 9.80082 13.8236C10.3659 13.2523 11.1138 12.8264 11.9801 12.6332C12.8485 12.44 13.7065 12.5086 14.4607 12.787C14.951 12.9656 15.3955 13.2336 15.7695 13.5723C16.3096 14.0625 16.7023 14.7024 16.8685 15.4462C16.9184 15.6768 16.9474 15.9094 16.9516 16.138C16.9599 16.4995 16.9121 16.8526 16.8145 17.1933C16.7085 17.5631 16.5444 17.9142 16.3304 18.2404C15.7508 19.1254 14.8014 19.8069 13.6359 20.0665C12.9108 20.2286 12.192 20.2057 11.5355 20.0312C10.7482 19.8255 10.0501 19.3997 9.54113 18.8138ZM14.523 15.6498C14.7141 15.6082 14.8346 15.4192 14.7931 15.226C14.7494 15.0348 14.5604 14.9143 14.3693 14.9579C14.176 14.9995 14.0556 15.1886 14.0992 15.3818C14.1407 15.5729 14.3319 15.6934 14.523 15.6498ZM10.9601 16.4434C11.1512 16.4018 11.2717 16.2107 11.2301 16.0196C11.1865 15.8284 10.9975 15.7079 10.8063 15.7495C10.6131 15.7931 10.4926 15.9822 10.5363 16.1754C10.5778 16.3665 10.7689 16.487 10.9601 16.4434Z" fill="#D8D0BB"/>
<path d="M9.80035 13.8236C9.43471 14.1934 9.14593 14.6234 8.94857 15.0908C8.94857 15.0908 6.58852 14.0853 7.31149 11.7772C7.31149 11.7772 9.45964 12.0847 9.80035 13.8236Z" fill="#D8D0BB"/>
<path d="M15.8471 9.87622C17.48 11.6608 15.7702 13.5721 15.7702 13.5721C15.3963 13.2335 14.9517 12.9655 14.4614 12.7868C14.0314 11.0666 15.8471 9.87622 15.8471 9.87622Z" fill="#D8D0BB"/>
<path d="M9.54146 18.814C10.0505 19.3998 10.7485 19.8257 11.5359 20.0314C11.5359 20.0314 11.3801 22.3354 13.5926 24.2321L12.72 25.3706C12.5746 25.5596 12.7097 25.8339 12.9486 25.8339H15.1279L15.9672 24.7827C15.9672 24.7827 16.4637 23.6961 15.5849 22.6989L19.6527 23.2557L19.1084 24.739L18.0343 25.5036C17.8889 25.6074 17.9616 25.8339 18.1382 25.8339H20.6187C20.6187 25.8339 22.1041 24.9011 22.1041 23.0459C22.1041 21.1927 21.4165 19.9234 21.4165 19.9234C21.4165 19.9234 25.2162 18.974 26.093 16.0177C26.845 13.479 24.915 11.8689 23.5916 11.5095C21.5723 10.9631 19.2683 11.7068 18.9401 13.8467C18.8986 14.1147 19.017 14.3827 19.2393 14.5364L19.2517 14.5447C19.5862 14.7753 20.0391 14.6714 20.2572 14.3287C20.6063 13.7843 21.2607 13.1382 22.3576 13.3231C23.7495 13.5558 24.3416 15.249 23.5916 16.3604C22.8167 17.5072 19.8168 18.3465 19.8168 18.3465L16.3308 18.2406C16.5447 17.9144 16.7089 17.5633 16.8148 17.1935C16.9125 16.8528 16.9602 16.4996 16.9519 16.1382C16.9478 15.9096 16.9187 15.677 16.8688 15.4464C16.7026 14.7026 16.31 14.0627 15.7698 13.5724C15.7698 13.5724 17.4796 11.6611 15.8467 9.87656C15.8467 9.87656 14.031 11.067 14.461 12.7871C13.7069 12.5088 12.8489 12.4402 11.9805 12.6334C11.1141 12.8266 10.3662 13.2525 9.80115 13.8238C9.46044 12.085 7.3123 11.7775 7.3123 11.7775C6.58932 14.0856 8.94937 15.0911 8.94937 15.0911C8.66891 15.7642 8.58373 16.51 8.74993 17.2538C8.80187 17.4865 8.87458 17.7067 8.97015 17.9165C9.1135 18.2468 9.30878 18.546 9.54146 18.814ZM28.4135 11.4638V27.6891H16.5281H4.64062V11.4638L16.5281 3.48407L28.4135 11.4638Z" fill="#E9E5D9"/>
<path d="M32.7425 11.1993V14.3696L28.413 11.4631L16.5276 3.48345L4.64007 11.4631L0.310547 14.3696V11.1993L16.5276 0.311096L32.7425 11.1993Z" fill="#9DBF9F"/>
<path d="M12.6519 20.4875C12.2462 20.4875 11.843 20.436 11.4555 20.3329C10.6029 20.1104 9.85915 19.6557 9.30591 19.0187C9.04373 18.7168 8.83432 18.388 8.68391 18.041C8.58315 17.8202 8.50213 17.5767 8.44541 17.3222C8.27111 16.5421 8.34569 15.7292 8.66126 14.9715C8.66147 14.9711 8.66168 14.9707 8.66189 14.9703C8.87587 14.4636 9.18438 14.0042 9.57911 13.6051C10.2059 12.9713 11.0126 12.5302 11.9119 12.3296C12.8132 12.1293 13.7316 12.1866 14.5682 12.4951C15.0955 12.6873 15.5702 12.9723 15.9784 13.3417C16.5847 13.892 16.9975 14.5963 17.1724 15.3787C17.2283 15.6369 17.2586 15.89 17.263 16.1328C17.2719 16.5174 17.2216 16.9038 17.1138 17.2798C17.0008 17.6741 16.8248 18.055 16.5907 18.4121C15.9398 19.4055 14.9146 20.1015 13.7034 20.3714C13.3568 20.4489 13.0035 20.4875 12.6519 20.4875ZM9.23652 15.2121C8.97102 15.8499 8.90786 16.5326 9.05391 17.1861C9.10211 17.4016 9.16734 17.5981 9.25377 17.7878C9.38112 18.0813 9.55625 18.3562 9.77688 18.6101C10.2474 19.1517 10.8829 19.5393 11.6146 19.7305C12.2427 19.8973 12.9179 19.9083 13.5683 19.7631C14.6202 19.5287 15.5085 18.9277 16.0701 18.0703C16.2699 17.7658 16.4197 17.4423 16.5153 17.1082C16.6059 16.7925 16.6478 16.469 16.6406 16.1457C16.6368 15.9419 16.611 15.7294 16.5643 15.5127C16.4183 14.8587 16.0709 14.267 15.5605 13.8036C15.2127 13.4886 14.8067 13.2451 14.3543 13.0802C13.629 12.8124 12.8321 12.7638 12.048 12.9376C11.2656 13.1124 10.5651 13.4946 10.0227 14.0431C9.68381 14.3857 9.41934 14.7789 9.23652 15.2121Z" fill="#3B4D57"/>
<path d="M15.7696 13.8844C15.6956 13.8844 15.6214 13.8582 15.562 13.805C15.4338 13.6903 15.4228 13.4938 15.5371 13.3656C15.5961 13.2991 16.9039 11.79 15.798 10.3061C15.3673 10.6661 14.478 11.5711 14.7632 12.712C14.805 12.8789 14.7034 13.048 14.5366 13.0897C14.3689 13.1311 14.2004 13.0299 14.1587 12.8629C13.6804 10.9499 15.594 9.66975 15.6759 9.61615C15.8036 9.53263 15.9734 9.55361 16.0766 9.66642C17.5188 11.2426 16.6585 13.0467 16.0022 13.7805C15.9403 13.8493 15.8551 13.8844 15.7696 13.8844Z" fill="#3B4D57"/>
<path d="M8.95006 15.4022C8.90934 15.4022 8.86779 15.3943 8.82811 15.3773C7.92211 14.9913 6.37707 13.7225 7.01569 11.6839C7.0614 11.538 7.20579 11.4454 7.35724 11.4687C7.45384 11.4824 9.72892 11.8297 10.1079 13.7637C10.1409 13.9326 10.0308 14.0963 9.86188 14.1293C9.69173 14.1632 9.52927 14.0522 9.49603 13.8833C9.27 12.7299 8.08104 12.2882 7.5386 12.1451C7.38694 12.8762 7.57143 13.5283 8.08914 14.088C8.53851 14.5733 9.06702 14.802 9.07222 14.8041C9.23052 14.8714 9.30428 15.0546 9.23676 15.2129C9.18628 15.3312 9.07118 15.4022 8.95006 15.4022Z" fill="#3B4D57"/>
<path d="M14.4427 15.9711C14.3183 15.9711 14.1953 15.9356 14.0866 15.8666C13.9362 15.771 13.8325 15.6229 13.7947 15.4494C13.7557 15.2745 13.7868 15.0954 13.8828 14.9452C13.9788 14.7948 14.1282 14.6911 14.3035 14.6535C14.6573 14.5736 15.0149 14.7983 15.0967 15.1569C15.175 15.5207 14.9469 15.8768 14.5892 15.9547C14.5406 15.9657 14.4917 15.9711 14.4427 15.9711ZM14.4477 15.261C14.4446 15.261 14.4415 15.2614 14.4383 15.262C14.4228 15.2656 14.4138 15.2716 14.408 15.2807C14.402 15.2903 14.4001 15.3015 14.403 15.3136C14.4032 15.3144 14.4032 15.3152 14.4034 15.3161C14.4057 15.3264 14.4118 15.3348 14.4211 15.3406C14.4282 15.3451 14.4392 15.3495 14.4535 15.3462C14.4797 15.3406 14.4936 15.3169 14.4882 15.2917C14.484 15.2745 14.467 15.261 14.4477 15.261Z" fill="#3B4D57"/>
<path d="M10.8809 16.7646C10.7566 16.7646 10.6334 16.7293 10.5248 16.6601C10.374 16.5644 10.2701 16.4158 10.2323 16.2419C10.1932 16.0695 10.2242 15.8902 10.3199 15.7394C10.4151 15.5894 10.5638 15.4851 10.7384 15.4458C11.0969 15.3667 11.4532 15.5944 11.5345 15.9505C11.5347 15.9517 11.5351 15.9527 11.5351 15.9538C11.5727 16.1271 11.5409 16.3051 11.4457 16.4551C11.3498 16.6065 11.2006 16.7106 11.0263 16.7482C10.9783 16.759 10.9295 16.7646 10.8809 16.7646ZM10.8825 16.0533C10.8794 16.0533 10.8763 16.0537 10.8732 16.0543C10.8595 16.0575 10.8505 16.0668 10.8462 16.0739C10.8399 16.0836 10.8381 16.0951 10.841 16.1071C10.8437 16.12 10.8497 16.1283 10.8591 16.1343C10.8659 16.1387 10.8773 16.1426 10.8913 16.1399C10.9143 16.1349 10.9299 16.1075 10.9266 16.0874C10.921 16.067 10.9025 16.0533 10.8825 16.0533Z" fill="#3B4D57"/>
<path d="M12.8158 17.6896C12.4339 17.6896 12.1317 17.5095 12.066 17.2165C12.0349 17.0784 12.0633 16.9302 12.1462 16.7998C12.2719 16.6018 12.5229 16.4443 12.8175 16.3789C13.3248 16.2646 13.7702 16.4539 13.8521 16.8181C13.8832 16.9566 13.8545 17.1052 13.7714 17.2361C13.6453 17.4349 13.3946 17.5926 13.1004 17.658C13.0026 17.6794 12.907 17.6896 12.8158 17.6896ZM12.7564 17.0628C12.8102 17.0688 12.8814 17.068 12.9662 17.0493C13.0516 17.0304 13.1168 17.0011 13.1629 16.9726C13.1098 16.9666 13.0383 16.9681 12.9535 16.987C12.8681 17.0059 12.8027 17.035 12.7564 17.0628Z" fill="#3B4D57"/>
<path d="M13.7147 18.5525C13.5426 18.5525 13.3733 18.5037 13.2244 18.4087C13.0172 18.277 12.8739 18.0722 12.8209 17.8322C12.7837 17.6641 12.8897 17.4979 13.0577 17.4606C13.2266 17.425 13.3922 17.5295 13.4294 17.6976C13.4467 17.7749 13.4926 17.8407 13.559 17.8831C13.6253 17.9249 13.7034 17.9384 13.7803 17.922C13.9174 17.8918 14.0122 17.7736 14.0122 17.634C14.0122 17.6045 14.0088 17.585 14.0063 17.5738L13.9511 17.3255C13.9137 17.1572 14.0198 16.991 14.1879 16.9536C14.3564 16.9181 14.5222 17.0226 14.5596 17.1905L14.6136 17.4337C14.6277 17.4925 14.6354 17.5617 14.6354 17.6342C14.6354 18.0693 14.3392 18.4378 13.9147 18.5305C13.8482 18.5452 13.7811 18.5525 13.7147 18.5525Z" fill="#3B4D57"/>
<path d="M12.532 18.8156C12.0971 18.8156 11.7284 18.5191 11.6355 18.0949L11.5817 17.8527C11.5443 17.6846 11.6505 17.5182 11.8183 17.481C11.986 17.4436 12.1528 17.5496 12.1902 17.7176L12.2442 17.9607C12.2741 18.0974 12.3926 18.1923 12.5322 18.1923C12.5619 18.1923 12.5816 18.189 12.5933 18.1863C12.7565 18.15 12.8573 17.9915 12.8222 17.8319L12.7289 17.422C12.6907 17.2541 12.796 17.0873 12.9637 17.0491C13.1315 17.0115 13.2986 17.116 13.3366 17.2841L13.4301 17.6956C13.5398 18.1917 13.2269 18.6835 12.7329 18.7938C12.673 18.8079 12.6041 18.8156 12.532 18.8156Z" fill="#3B4D57"/>
<path d="M6.81825 18.338C6.6535 18.338 6.51576 18.2088 6.50724 18.0421C6.49852 17.8703 6.63065 17.7239 6.80246 17.7152L10.2301 17.5386C10.3984 17.5313 10.5484 17.6615 10.5576 17.8336C10.5665 18.0054 10.4344 18.1521 10.2625 18.161L6.83445 18.3376C6.82905 18.3378 6.82365 18.338 6.81825 18.338Z" fill="#3B4D57"/>
<path d="M7.45798 19.6779C7.32003 19.6779 7.19392 19.5859 7.15694 19.4463C7.1129 19.2799 7.212 19.1093 7.3782 19.0651L10.3197 18.2841C10.4853 18.2384 10.6567 18.3386 10.701 18.5052C10.7452 18.6716 10.6463 18.8422 10.4799 18.8864L7.53796 19.6678C7.51137 19.6746 7.48436 19.6779 7.45798 19.6779Z" fill="#3B4D57"/>
<path d="M15.768 16.9315C15.645 16.9315 15.5284 16.8584 15.4792 16.7375C15.4142 16.5779 15.4908 16.3961 15.6504 16.3313L18.8288 15.037C18.9883 14.9722 19.1701 15.0489 19.2349 15.2082C19.2999 15.3675 19.2233 15.5495 19.0639 15.6144L15.8854 16.9086C15.8469 16.9242 15.8072 16.9315 15.768 16.9315Z" fill="#3B4D57"/>
<path d="M15.9401 17.6629C15.7924 17.6629 15.6611 17.5571 15.6339 17.4067C15.6034 17.2372 15.716 17.0752 15.8851 17.0446L18.8808 16.5045C19.0491 16.475 19.2122 16.5865 19.2427 16.7561C19.2733 16.9254 19.1607 17.0874 18.9914 17.118L15.9958 17.6581C15.9771 17.6612 15.9584 17.6629 15.9401 17.6629Z" fill="#3B4D57"/>
<path d="M20.6186 26.1454H18.1381C17.9228 26.1454 17.7344 26.0078 17.6688 25.8032C17.6031 25.5981 17.6773 25.3756 17.8532 25.25L18.8492 24.5411L19.2269 23.5119L16.2174 23.1001C16.6425 24.0292 16.2702 24.8696 16.2507 24.9124C16.2401 24.9356 16.2266 24.9574 16.2108 24.9774L15.3715 26.0286C15.3122 26.1026 15.2227 26.1458 15.128 26.1458H12.9487C12.7185 26.1458 12.5124 26.0174 12.4106 25.8109C12.309 25.6044 12.3331 25.363 12.4733 25.181L13.1697 24.2723C11.0941 22.3385 11.2185 20.1079 11.2252 20.0107C11.2368 19.8389 11.3876 19.7059 11.5572 19.7211C11.7285 19.7327 11.8582 19.8806 11.8472 20.052C11.8418 20.1403 11.7377 22.2315 13.7957 23.996C13.9214 24.1038 13.9409 24.2908 13.8401 24.4221L12.9967 25.5227H14.9782L15.6962 24.6234C15.7597 24.4568 16.0128 23.6563 15.3513 22.9057C15.2653 22.8078 15.2489 22.6672 15.3106 22.5523C15.3721 22.4376 15.4982 22.3741 15.6274 22.3909L19.6952 22.9477C19.7886 22.9603 19.8713 23.015 19.9197 23.0958C19.9684 23.1768 19.9777 23.2751 19.9453 23.3638L19.401 24.8473C19.3794 24.9063 19.3403 24.9574 19.2892 24.9938L18.5457 25.5231H20.5224C20.7994 25.322 21.7928 24.4991 21.7928 23.0467C21.7928 21.3025 21.149 20.0842 21.1426 20.0722C21.0971 19.9876 21.0933 19.8865 21.132 19.7988C21.1708 19.7109 21.2479 19.6457 21.341 19.622C21.3773 19.6128 24.9797 18.6775 25.7945 15.93C26.0619 15.0276 25.9869 14.1928 25.5718 13.4487C25.0491 12.5115 24.1344 11.9809 23.5103 11.8112C22.3606 11.5006 21.1773 11.6381 20.3452 12.1797C19.7392 12.5742 19.3601 13.1674 19.2485 13.8949C19.2256 14.043 19.2917 14.1945 19.417 14.2811C19.5163 14.3495 19.6214 14.3705 19.7255 14.3497C19.8366 14.3273 19.9322 14.2606 19.9945 14.1625C20.5742 13.2584 21.4313 12.8522 22.4096 13.0168C23.1397 13.1389 23.7322 13.6132 24.0351 14.3183C24.3498 15.0506 24.279 15.9003 23.8502 16.5359C23.0206 17.7634 20.028 18.6121 19.901 18.6476C19.8707 18.6561 19.8391 18.6611 19.8076 18.6591L16.3215 18.5531C16.1495 18.5479 16.0142 18.4041 16.0194 18.2321C16.0246 18.0601 16.1715 17.9203 16.3404 17.9303L19.7785 18.0348C20.6174 17.794 22.762 17.0332 23.3337 16.1872C23.6449 15.726 23.6942 15.1042 23.4625 14.5645C23.245 14.058 22.8235 13.7181 22.3066 13.6317C21.5695 13.5064 20.9683 13.7989 20.5199 14.498C20.3687 14.7361 20.124 14.905 19.8495 14.9607C19.578 15.0157 19.3031 14.9596 19.0752 14.8024C18.742 14.5724 18.5733 14.1822 18.6325 13.8C18.7717 12.8927 19.2464 12.1517 20.0051 11.6579C20.9838 11.0209 22.355 10.8534 23.6734 11.2099C24.4148 11.4115 25.4993 12.0391 26.1163 13.1454C26.6091 14.0289 26.7045 15.0531 26.3922 16.1075C25.6289 18.6817 22.8523 19.7971 21.8508 20.1216C22.0646 20.6364 22.4163 21.6891 22.4163 23.0472C22.4163 25.0515 20.8515 26.0573 20.785 26.099C20.7347 26.1287 20.6772 26.1454 20.6186 26.1454Z" fill="#3B4D57"/>
<path d="M32.7436 14.6817C32.6827 14.6817 32.6223 14.6639 32.5699 14.6288L16.5286 3.85917L0.485307 14.6288C0.389741 14.693 0.266752 14.6992 0.164954 14.645C0.0633637 14.5909 0 14.4852 0 14.3701V11.1998C0 11.096 0.0517302 10.9989 0.137947 10.9412L16.355 0.0529764C16.4599 -0.0176588 16.5974 -0.0176588 16.7023 0.0529764L32.9173 10.9412C33.0035 10.9989 33.0552 11.096 33.0552 11.1998V14.3701C33.0552 14.4852 32.9918 14.5909 32.8903 14.645C32.8441 14.6697 32.7939 14.6817 32.7436 14.6817ZM0.623252 11.366V13.7855L4.46747 11.2048L16.355 3.22512C16.4601 3.15448 16.5972 3.15448 16.7023 3.22512L32.432 13.7855V11.366L16.5286 0.687032L0.623252 11.366Z" fill="#3B4D57"/>
<path d="M16.5282 28H4.64073C4.4685 28 4.3291 27.8604 4.3291 27.6884V11.4631C4.3291 11.291 4.4685 11.1514 4.64073 11.1514C4.81295 11.1514 4.95235 11.291 4.95235 11.4631V27.3767H16.5282C16.7004 27.3767 16.8398 27.5164 16.8398 27.6884C16.8398 27.8606 16.7004 28 16.5282 28Z" fill="#3B4D57"/>
<path d="M28.4138 28H16.5284C16.3562 28 16.2168 27.8604 16.2168 27.6884C16.2168 27.5164 16.3562 27.3767 16.5284 27.3767H28.1022V11.4631C28.1022 11.291 28.2416 11.1514 28.4138 11.1514C28.5861 11.1514 28.7255 11.291 28.7255 11.4631V27.6884C28.7255 27.8606 28.5861 28 28.4138 28Z" fill="#3B4D57"/>
</svg>
