<svg width="44" height="44" viewBox="0 0 44 44" fill="none" xmlns="http://www.w3.org/2000/svg">
<path d="M22 24.75C20.6403 24.75 19.311 24.3468 18.1805 23.5914C17.0499 22.8359 16.1687 21.7622 15.6483 20.506C15.128 19.2497 14.9918 17.8674 15.2571 16.5338C15.5224 15.2001 16.1772 13.9751 17.1386 13.0136C18.1001 12.0522 19.3251 11.3974 20.6588 11.1321C21.9924 10.8668 23.3747 11.003 24.631 11.5233C25.8872 12.0437 26.9609 12.9249 27.7164 14.0555C28.4718 15.186 28.875 16.5153 28.875 17.875C28.8728 19.6977 28.1478 21.4451 26.859 22.734C25.5701 24.0228 23.8227 24.7478 22 24.75ZM22 13.75C21.1842 13.75 20.3866 13.9919 19.7083 14.4452C19.0299 14.8985 18.5012 15.5427 18.189 16.2964C17.8768 17.0502 17.7951 17.8796 17.9543 18.6798C18.1134 19.4799 18.5063 20.2149 19.0832 20.7918C19.6601 21.3687 20.3951 21.7616 21.1953 21.9207C21.9954 22.0799 22.8248 21.9982 23.5786 21.686C24.3323 21.3738 24.9766 20.8451 25.4298 20.1667C25.8831 19.4884 26.125 18.6909 26.125 17.875C26.1239 16.7813 25.689 15.7327 24.9156 14.9594C24.1423 14.186 23.0937 13.7511 22 13.75Z" fill="white"/>
<path d="M22 41.25L10.4005 27.5701C10.2393 27.3647 10.0798 27.158 9.92201 26.95C7.94161 24.3394 6.87132 21.1518 6.87501 17.875C6.87501 13.8636 8.46853 10.0165 11.305 7.18001C14.1415 4.34352 17.9886 2.75 22 2.75C26.0114 2.75 29.8585 4.34352 32.695 7.18001C35.5315 10.0165 37.125 13.8636 37.125 17.875C37.1282 21.1502 36.0584 24.3362 34.0794 26.9459L34.078 26.95C34.078 26.95 33.6655 27.4918 33.6036 27.5646L22 41.25ZM12.1179 25.2931C12.1179 25.2931 12.4383 25.7166 12.5111 25.8074L22 36.9985L31.5013 25.7922C31.5618 25.7166 31.8835 25.2904 31.8849 25.289C33.5036 23.1566 34.3783 20.5522 34.375 17.875C34.375 14.5929 33.0712 11.4453 30.7505 9.12455C28.4297 6.80379 25.2821 5.5 22 5.5C18.718 5.5 15.5703 6.80379 13.2496 9.12455C10.9288 11.4453 9.62501 14.5929 9.62501 17.875C9.62162 20.5539 10.4974 23.1599 12.1179 25.2931Z" fill="white"/>
</svg>
