<svg width="20" height="20" viewBox="0 0 20 20" fill="none" xmlns="http://www.w3.org/2000/svg">
<path d="M4.64362 6.57135C4.40487 4.99885 5.51362 3.58635 7.20737 3.06885C7.50794 2.97695 7.83224 3.00311 8.11419 3.142C8.39614 3.28089 8.61453 3.52205 8.72487 3.81635L9.26862 5.26635C9.35615 5.49962 9.37198 5.75372 9.31407 5.99605C9.25616 6.23837 9.12716 6.45786 8.94362 6.62635L7.32612 8.1076C7.24639 8.18077 7.18698 8.27335 7.15368 8.37631C7.12038 8.47927 7.11433 8.5891 7.13612 8.6951L7.15112 8.7601L7.18987 8.9226C7.39103 9.71216 7.69753 10.4711 8.10112 11.1789C8.54076 11.931 9.08635 12.6159 9.72112 13.2126L9.77112 13.2576C9.85187 13.3293 9.94981 13.3788 10.0554 13.4014C10.161 13.4239 10.2706 13.4188 10.3736 13.3864L12.4649 12.7276C12.7025 12.653 12.9571 12.6511 13.1958 12.7221C13.4346 12.7932 13.6467 12.9339 13.8049 13.1264L14.7949 14.3276C15.2074 14.8276 15.1574 15.5626 14.6836 16.0039C13.3874 17.2126 11.6049 17.4601 10.3649 16.4639C8.8449 15.2378 7.56356 13.7425 6.58487 12.0526C5.59823 10.364 4.94044 8.50439 4.64362 6.57135ZM8.44737 8.7776L9.78737 7.5476C10.1547 7.21077 10.4129 6.77185 10.529 6.2872C10.645 5.80254 10.6135 5.29425 10.4386 4.8276L9.89612 3.3776C9.67405 2.78541 9.23453 2.30018 8.66714 2.02078C8.09974 1.74137 7.44716 1.68883 6.84237 1.87385C4.73862 2.5176 3.04987 4.40385 3.40737 6.7601C3.65737 8.4051 4.23362 10.4976 5.50487 12.6826C6.56076 14.5047 7.94294 16.117 9.58237 17.4389C11.4424 18.9326 13.9249 18.4226 15.5374 16.9201C15.9988 16.4905 16.2788 15.901 16.3204 15.272C16.362 14.6429 16.1619 14.0217 15.7611 13.5351L14.7711 12.3326C14.4544 11.9482 14.0301 11.6672 13.5526 11.5255C13.0751 11.3839 12.5662 11.3881 12.0911 11.5376L10.3549 12.0839C9.90658 11.6216 9.51391 11.1086 9.18487 10.5551C8.86702 9.99555 8.61932 9.39898 8.44737 8.77885V8.7776Z" fill="#181713"/>
</svg>
