<svg width="44" height="44" viewBox="0 0 44 44" fill="none" xmlns="http://www.w3.org/2000/svg">
<path d="M32.4022 28.8581C32.0147 28.4686 31.5543 28.1595 31.0473 27.9486C30.5403 27.7377 29.9968 27.6292 29.4479 27.6292C28.8989 27.6292 28.3554 27.7377 27.8484 27.9486C27.3415 28.1595 26.881 28.4686 26.4936 28.8581L24.4777 30.8777C22.2079 29.4346 20.1051 27.7436 18.2076 25.8357C16.3073 23.9312 14.6198 21.8249 13.1749 19.5542L15.1907 17.5346C15.5796 17.1464 15.8881 16.6851 16.0986 16.1772C16.3091 15.6693 16.4175 15.1248 16.4175 14.5749C16.4175 14.0249 16.3091 13.4804 16.0986 12.9725C15.8881 12.4646 15.5796 12.0033 15.1907 11.6151L11.2563 7.6874C10.8743 7.29657 10.4177 6.98667 9.91381 6.77611C9.40988 6.56556 8.86884 6.45864 8.32284 6.46173C7.77297 6.46038 7.22826 6.56798 6.72005 6.77833C6.21184 6.98868 5.75016 7.29763 5.36158 7.6874L3.47083 9.5677C2.56962 10.5384 1.89701 11.6992 1.50245 12.9646C1.10788 14.23 1.00139 15.5679 1.1908 16.88C1.63568 22.103 5.05573 28.3846 10.3248 33.6773C15.5939 38.9699 21.9335 42.3823 27.147 42.8837C27.536 42.9046 27.9258 42.9046 28.3148 42.8837C29.4371 42.9309 30.5574 42.7532 31.6102 42.361C32.663 41.9687 33.6271 41.3699 34.4459 40.5995L36.3227 38.7053C36.7118 38.316 37.0202 37.8535 37.2301 37.3444C37.4401 36.8352 37.5475 36.2895 37.5461 35.7386C37.5492 35.1916 37.4425 34.6496 37.2323 34.1447C37.0222 33.6399 36.7128 33.1825 36.3227 32.7998L32.4022 28.8581ZM34.3624 36.7414L32.4717 38.6217C31.7726 39.2054 30.9565 39.6319 30.0786 39.8722C29.2007 40.1125 28.2816 40.161 27.3833 40.0146C22.865 39.6246 17.1093 36.4211 12.3546 31.6577C7.59991 26.8943 4.4023 21.1698 3.97132 16.6432C3.8214 15.7433 3.86805 14.8216 4.10807 13.9415C4.34808 13.0614 4.77575 12.244 5.36158 11.5455L7.32185 9.65127C7.45176 9.52218 7.60582 9.42005 7.77521 9.35074C7.94459 9.28143 8.12597 9.24629 8.30894 9.24735C8.49191 9.24629 8.67328 9.28143 8.84267 9.35074C9.01206 9.42005 9.16612 9.52218 9.29603 9.65127L13.2305 13.6347C13.4894 13.8957 13.6347 14.2487 13.6347 14.6166C13.6347 14.9846 13.4894 15.3376 13.2305 15.5986L10.4499 18.3842C10.2324 18.6011 10.0926 18.884 10.0523 19.1889C10.0121 19.4938 10.0737 19.8034 10.2275 20.0695C11.8922 22.9087 13.9155 25.5209 16.2473 27.8414C18.5636 30.1775 21.171 32.2045 24.005 33.8723C24.2706 34.0264 24.5797 34.0881 24.884 34.0478C25.1883 34.0075 25.4707 33.8674 25.6872 33.6494L28.4677 30.8638C28.7282 30.6044 29.0806 30.4588 29.4479 30.4588C29.8152 30.4588 30.1675 30.6044 30.428 30.8638L34.3624 34.8054C34.4913 34.9356 34.5932 35.0899 34.6624 35.2596C34.7316 35.4293 34.7667 35.611 34.7656 35.7943C34.7569 36.15 34.6127 36.4889 34.3624 36.7414ZM36.7815 7.21385C34.8494 5.27084 32.5525 3.7302 30.0232 2.68078C27.4939 1.63136 24.7823 1.0939 22.0447 1.09941C21.676 1.09941 21.3224 1.24615 21.0617 1.50735C20.8009 1.76855 20.6545 2.12282 20.6545 2.49222C20.6545 2.86161 20.8009 3.21588 21.0617 3.47708C21.3224 3.73829 21.676 3.88503 22.0447 3.88503C24.4311 3.88494 26.7938 4.35831 28.9966 5.27782C31.1994 6.19732 33.1986 7.54476 34.8789 9.24237C36.5592 10.94 37.8873 12.9541 38.7865 15.1687C39.6857 17.3832 40.1383 19.7541 40.1181 22.1448C40.1181 22.5142 40.2646 22.8684 40.5253 23.1297C40.786 23.3909 41.1397 23.5376 41.5084 23.5376C41.8771 23.5376 42.2307 23.3909 42.4915 23.1297C42.7522 22.8684 42.8986 22.5142 42.8986 22.1448C42.9253 19.373 42.3977 16.6239 41.3472 14.0596C40.2966 11.4953 38.7442 9.16763 36.7815 7.21385Z" fill="white"/>
<path d="M29.031 14.9402C29.7939 15.6903 30.3975 16.5837 30.8061 17.5679C31.2147 18.5521 31.4202 19.6072 31.4105 20.6711C31.4105 21.0237 31.5521 21.3619 31.8042 21.6113C32.0563 21.8607 32.3983 22.0008 32.7548 22.0008C33.1114 22.0008 33.4533 21.8607 33.7054 21.6113C33.9575 21.3619 34.0992 21.0237 34.0992 20.6711C34.117 19.263 33.8519 17.8655 33.3194 16.5595C32.7869 15.2535 31.9975 14.0651 30.9971 13.0632C29.9966 12.0613 28.805 11.2659 27.4913 10.723C26.1777 10.1801 24.7681 9.90065 23.3444 9.90076C22.9878 9.90076 22.6459 10.0408 22.3938 10.2902C22.1416 10.5396 22 10.8778 22 11.2304C22 11.5831 22.1416 11.9213 22.3938 12.1706C22.6459 12.42 22.9878 12.5601 23.3444 12.5601C24.4038 12.568 25.4513 12.7823 26.427 13.1906C27.4028 13.599 28.2876 14.1935 29.031 14.9402Z" fill="white"/>
</svg>
