<svg width="44" height="44" viewBox="0 0 44 44" fill="none" xmlns="http://www.w3.org/2000/svg">
<path d="M7.33464 36.6649C6.32631 36.6649 5.4628 36.3055 4.74414 35.5869C4.02547 34.8682 3.66675 34.0053 3.66797 32.9982V10.9982C3.66797 9.98988 4.02731 9.12638 4.74597 8.40771C5.46464 7.68905 6.32753 7.33032 7.33464 7.33155H36.668C37.6763 7.33155 38.5398 7.69088 39.2585 8.40955C39.9771 9.12821 40.3359 9.9911 40.3346 10.9982V32.9982C40.3346 34.0065 39.9753 34.87 39.2566 35.5887C38.538 36.3074 37.6751 36.6661 36.668 36.6649H7.33464ZM36.668 14.6649L22.9638 23.2357C22.811 23.3274 22.6503 23.3964 22.4816 23.4429C22.313 23.4893 22.1529 23.5119 22.0013 23.5107C21.8485 23.5107 21.6878 23.4881 21.5191 23.4429C21.3505 23.3977 21.1904 23.3286 21.0388 23.2357L7.33464 14.6649V32.9982H36.668V14.6649ZM22.0013 20.1649L36.668 10.9982H7.33464L22.0013 20.1649ZM7.33464 15.1232V12.419V12.4649V12.4429V15.1232Z" fill="white"/>
</svg>
