<svg width="50" height="50" viewBox="0 0 50 50" fill="none" xmlns="http://www.w3.org/2000/svg">
<path d="M26.6833 17.1726C26.6833 19.0059 27.1625 20.5455 28.1208 21.7913C28.8 22.6497 29.7215 23.2136 30.8854 23.483C32.0312 23.7497 33.1145 23.7684 34.0937 23.5413C34.427 25.5205 33.8854 27.6163 32.5104 29.8372C31.1326 32.0566 29.3562 33.7254 27.1812 34.8434L30.475 39.583C32.1416 38.758 33.725 37.7122 35.1833 36.4476C36.6625 35.183 37.975 33.7288 39.1416 32.0851C40.3083 30.4413 41.1833 28.5851 41.7458 26.4809C42.3083 24.3768 42.4645 22.2309 42.1958 20.0226C41.8458 17.1059 40.9041 14.7726 39.3708 13.0434C37.8389 11.292 35.9305 10.4163 33.6458 10.4163C31.6354 10.4163 29.9666 11.0205 28.6458 12.2455C27.3389 13.4455 26.6861 15.09 26.6875 17.1788L26.6833 17.1726ZM7.67496 17.1726C7.67496 19.0059 8.15413 20.5455 9.11246 21.7913C9.79302 22.6663 10.7145 23.2337 11.877 23.4934C13.0437 23.7504 14.1132 23.7656 15.0854 23.5393C15.4187 25.4976 14.8979 27.6018 13.5187 29.8309C12.1437 32.0393 10.3687 33.7059 8.19371 34.8309L11.4791 39.583C13.1472 38.758 14.7166 37.7129 16.1875 36.4476C17.68 35.1641 19.0056 33.6985 20.1333 32.0851C21.2916 30.4393 22.1541 28.5851 22.7166 26.4809C23.288 24.3784 23.4416 22.1842 23.1687 20.0226C22.8229 17.1059 21.8854 14.7726 20.3562 13.0434C18.8284 11.3045 16.9236 10.4351 14.6416 10.4351C12.6277 10.4323 10.9597 11.0413 9.63746 12.2622C8.33052 13.4622 7.67635 15.1066 7.67496 17.1955V17.1726Z" fill="#FFA41C"/>
</svg>
