<svg width="20" height="20" viewBox="0 0 20 20" fill="none" xmlns="http://www.w3.org/2000/svg">
<path d="M18.9869 8.40687C19.0718 7.98762 18.7321 7.48453 18.3074 7.48453L13.4662 6.81374L11.2579 2.45358C11.1729 2.28589 11.088 2.20204 10.9181 2.11819C10.4934 1.86664 9.98384 2.03434 9.72904 2.45358L7.60568 6.81374L2.76441 7.48453C2.50961 7.48453 2.33974 7.56838 2.2548 7.73608C1.91507 8.07147 1.91507 8.57457 2.2548 8.90996L5.73712 12.2639L4.88777 17.0433C4.88777 17.211 4.88777 17.3787 4.97271 17.5464C5.22751 17.9657 5.73712 18.1334 6.16179 17.8818L10.4934 15.6179L14.8251 17.8818C14.91 17.9657 15.0799 17.9657 15.2498 17.9657C15.3347 17.9657 15.3347 17.9657 15.4196 17.9657C15.8443 17.8818 16.1841 17.4626 16.0991 16.9595L15.2498 12.1801L18.7321 8.82611C18.902 8.74226 18.9869 8.57457 18.9869 8.40687Z" fill="#FFA41C"/>
</svg>
