<svg width="45" height="27" viewBox="0 0 45 27" fill="none" xmlns="http://www.w3.org/2000/svg">
<path d="M4.71313 22.0304L2.49456 15.5283H40.5537L38.3351 22.0305L38.3351 22.0305C37.6126 24.149 35.6221 25.5731 33.3834 25.5731H9.66519C7.42686 25.5731 5.43629 24.1491 4.71314 22.0305C4.71314 22.0304 4.71313 22.0304 4.71313 22.0304Z" fill="#E9E5D9" stroke="black"/>
<mask id="path-2-inside-1_245_19407" fill="white">
<path d="M33.3841 26.5741H9.6662C6.99972 26.5741 4.62939 24.8784 3.76821 22.3548L1.32394 15.1912C1.27163 15.0387 1.29662 14.8704 1.39057 14.7392C1.48418 14.6079 1.63576 14.5303 1.797 14.5303H41.2539C41.4152 14.5303 41.5668 14.6079 41.6604 14.7392C41.7543 14.8704 41.779 15.0387 41.727 15.1912L39.2827 22.3548C38.4209 24.8784 36.0509 26.5741 33.3841 26.5741ZM2.49527 15.529L4.71401 22.0317C5.43727 24.1508 7.42747 25.5743 9.6662 25.5743H33.3844C35.6235 25.5743 37.6133 24.1508 38.3366 22.0317L40.5553 15.529H2.49527Z"/>
</mask>
<path d="M33.3841 26.5741H9.6662C6.99972 26.5741 4.62939 24.8784 3.76821 22.3548L1.32394 15.1912C1.27163 15.0387 1.29662 14.8704 1.39057 14.7392C1.48418 14.6079 1.63576 14.5303 1.797 14.5303H41.2539C41.4152 14.5303 41.5668 14.6079 41.6604 14.7392C41.7543 14.8704 41.779 15.0387 41.727 15.1912L39.2827 22.3548C38.4209 24.8784 36.0509 26.5741 33.3841 26.5741ZM2.49527 15.529L4.71401 22.0317C5.43727 24.1508 7.42747 25.5743 9.6662 25.5743H33.3844C35.6235 25.5743 37.6133 24.1508 38.3366 22.0317L40.5553 15.529H2.49527Z" fill="#3B4D57"/>
<path d="M3.76821 22.3548L2.82179 22.6778L2.8218 22.6778L3.76821 22.3548ZM1.32394 15.1912L2.27036 14.8683L2.2699 14.867L1.32394 15.1912ZM1.39057 14.7392L2.20374 15.3212L2.20472 15.3198L1.39057 14.7392ZM41.6604 14.7392L40.8462 15.3198L40.8472 15.3212L41.6604 14.7392ZM41.727 15.1912L42.6734 15.5142L42.6736 15.5137L41.727 15.1912ZM39.2827 22.3548L40.2291 22.678L40.2292 22.6778L39.2827 22.3548ZM2.49527 15.529V14.529H1.09746L1.54885 15.852L2.49527 15.529ZM4.71401 22.0317L3.76759 22.3546L3.76762 22.3547L4.71401 22.0317ZM38.3366 22.0317L39.283 22.3547L39.283 22.3546L38.3366 22.0317ZM40.5553 15.529L41.5018 15.852L41.9532 14.529H40.5553V15.529ZM33.3841 25.5741H9.6662V27.5741H33.3841V25.5741ZM9.6662 25.5741C7.42754 25.5741 5.43764 24.1506 4.71463 22.0319L2.8218 22.6778C3.82115 25.6063 6.57189 27.5741 9.6662 27.5741V25.5741ZM4.71464 22.0319L2.27036 14.8683L0.377512 15.5142L2.82179 22.6778L4.71464 22.0319ZM2.2699 14.867C2.32298 15.0218 2.29694 15.191 2.20374 15.3212L0.577391 14.1571C0.296302 14.5499 0.220281 15.0555 0.377972 15.5155L2.2699 14.867ZM2.20472 15.3198C2.10954 15.4533 1.95704 15.5303 1.797 15.5303V13.5303C1.31448 13.5303 0.858815 13.7625 0.576414 14.1585L2.20472 15.3198ZM1.797 15.5303H41.2539V13.5303H1.797V15.5303ZM41.2539 15.5303C41.0939 15.5303 40.9414 15.4533 40.8462 15.3198L42.4745 14.1585C42.1921 13.7625 41.7365 13.5303 41.2539 13.5303V15.5303ZM40.8472 15.3212C40.7531 15.1897 40.7286 15.0211 40.7804 14.8688L42.6736 15.5137C42.8294 15.0562 42.7556 14.5512 42.4736 14.1571L40.8472 15.3212ZM40.7806 14.8683L38.3363 22.0319L40.2292 22.6778L42.6734 15.5142L40.7806 14.8683ZM38.3364 22.0316C37.6127 24.1506 35.623 25.5741 33.3841 25.5741V27.5741C36.4788 27.5741 39.229 25.6062 40.2291 22.678L38.3364 22.0316ZM1.54885 15.852L3.76759 22.3546L5.66044 21.7088L3.4417 15.2061L1.54885 15.852ZM3.76762 22.3547C4.62905 24.8787 6.99968 26.5743 9.6662 26.5743V24.5743C7.85527 24.5743 6.24549 23.4229 5.66041 21.7087L3.76762 22.3547ZM9.6662 26.5743H33.3844V24.5743H9.6662V26.5743ZM33.3844 26.5743C36.0513 26.5743 38.4216 24.8787 39.283 22.3547L37.3902 21.7087C36.8051 23.423 35.1956 24.5743 33.3844 24.5743V26.5743ZM39.283 22.3546L41.5018 15.852L39.6089 15.2061L37.3902 21.7088L39.283 22.3546ZM40.5553 14.529H2.49527V16.529H40.5553V14.529Z" fill="black" mask="url(#path-2-inside-1_245_19407)"/>
<path d="M26.7184 26.5737C26.4422 26.5737 26.2187 26.3502 26.2187 26.074C26.2187 25.7978 26.4422 25.5743 26.7184 25.5743C28.9575 25.5743 30.9473 24.1508 31.6706 22.0316L34.1149 14.868C34.2038 14.6068 34.4877 14.4666 34.7492 14.5565C35.0104 14.6455 35.15 14.9297 35.0607 15.1908L32.6164 22.3544C31.7552 24.878 29.3849 26.5737 26.7184 26.5737Z" fill="#3B4D57"/>
<path d="M21.5672 12.4356C17.0401 12.4356 12.6682 11.6411 8.48357 10.0513C6.28382 9.21613 5.24341 6.9131 6.16056 4.90824C7.07671 2.90304 9.60427 1.95558 11.8037 2.79111C18.1511 5.20141 24.9056 5.17775 32.4526 2.71815C34.6977 1.98656 37.1666 3.05163 37.9688 5.0968C38.7717 7.14197 37.6031 9.39303 35.359 10.1243C30.6317 11.6651 26.0243 12.4356 21.5672 12.4356Z" fill="#9DBF9F"/>
<path d="M21.5671 12.9351C16.9893 12.9351 12.5275 12.1219 8.30592 10.5182C7.08028 10.0528 6.10817 9.13063 5.6391 7.98794C5.20102 6.92022 5.22467 5.75255 5.70573 4.70015C6.72782 2.46375 9.54355 1.39768 11.9808 2.32382C18.2176 4.69215 24.8632 4.66583 32.2976 2.24287C34.7852 1.432 37.538 2.63032 38.4338 4.91402C38.8533 5.98275 38.8136 7.14509 38.3222 8.18683C37.7919 9.31086 36.7681 10.19 35.5135 10.5991C30.7578 12.1493 26.0655 12.9351 21.5671 12.9351ZM10.1422 2.98645C8.64306 2.98645 7.22187 3.787 6.61488 5.11591C6.24975 5.91412 6.23177 6.79929 6.56391 7.6085C6.9337 8.50932 7.67828 9.21092 8.66105 9.58404C12.7691 11.1448 17.1113 11.936 21.5674 11.936C25.9606 11.936 30.5486 11.1665 35.2043 9.64933C36.1981 9.32552 37.0053 8.63724 37.4191 7.76107C37.7919 6.97085 37.8222 6.08969 37.504 5.27981C36.7978 3.47984 34.601 2.5437 32.6078 3.19367C24.9485 5.68992 18.085 5.71124 11.6264 3.25863C11.1406 3.07373 10.6373 2.98645 10.1422 2.98645Z" fill="#3B4D57"/>
<path d="M6.53984 4.25723L4.57229 0.499023L0.499268 5.33295L5.94585 5.52018" fill="#9DBF9F"/>
<path d="M5.94698 6.02165C5.94099 6.02165 5.93533 6.02132 5.92933 6.02132L0.482421 5.83409C0.291196 5.82743 0.120626 5.71249 0.0430037 5.53759C-0.0346189 5.36303 -0.00563567 5.15914 0.117628 5.01289L4.19098 0.178634C4.29826 0.0513733 4.46249 -0.0135878 4.6274 0.00373569C4.79297 0.0220586 4.93856 0.121002 5.01585 0.268585L6.98306 4.02712C7.11099 4.27165 7.01671 4.57381 6.77219 4.70173C6.52766 4.82999 6.22583 4.73505 6.09757 4.49085L4.47549 1.39195L1.54415 4.87064L5.96364 5.02256C6.23949 5.03188 6.45503 5.26342 6.4457 5.53926C6.43704 5.80911 6.21517 6.02165 5.94698 6.02165Z" fill="#3B4D57"/>
<path d="M6.16148 5.40756C6.07852 5.40756 5.99424 5.38658 5.91662 5.34293L3.95873 4.23989C3.7182 4.1043 3.63324 3.79981 3.76883 3.55928C3.90442 3.31875 4.20858 3.23346 4.44945 3.36938L6.40734 4.47276C6.64787 4.60835 6.73282 4.91285 6.59723 5.15338C6.50562 5.31562 6.33605 5.40756 6.16148 5.40756Z" fill="#3B4D57"/>
<path d="M37.5099 4.25723L39.4771 0.499023L43.5505 5.33295L38.1036 5.52018" fill="#9DBF9F"/>
<path d="M38.1029 6.02076C37.8347 6.02076 37.6131 5.80822 37.6038 5.53837C37.5945 5.26253 37.8104 5.03133 38.0859 5.02166L42.5057 4.86975L39.5744 1.39105L37.9523 4.48996C37.8244 4.73416 37.5229 4.8291 37.2777 4.70084C37.0331 4.57291 36.9389 4.27075 37.0668 4.02623L39.034 0.267694C39.1113 0.120111 39.2569 0.0208344 39.4225 0.00284457C39.589 -0.0148121 39.7516 0.0504822 39.8589 0.177743L43.9322 5.012C44.0555 5.15825 44.0845 5.36213 44.0069 5.5367C43.9292 5.7116 43.7587 5.82687 43.5674 5.8332L38.1205 6.02043C38.1145 6.02076 38.1085 6.02076 38.1029 6.02076Z" fill="#3B4D57"/>
<path d="M37.8897 5.40768C37.7151 5.40768 37.5456 5.31606 37.4539 5.15315C37.3184 4.91262 37.4036 4.60813 37.6438 4.47254L39.6017 3.36917C39.8426 3.23358 40.1471 3.31886 40.2823 3.55906C40.4179 3.79959 40.3326 4.10408 40.0924 4.23967L38.1346 5.34271C38.0569 5.38669 37.973 5.40768 37.8897 5.40768Z" fill="#3B4D57"/>
<path d="M22.1538 10.3609C13.1123 10.3609 8.15477 7.30568 7.88559 7.13511C7.65272 6.98753 7.58342 6.67937 7.73101 6.44617C7.87826 6.21297 8.18641 6.14334 8.41995 6.29059C8.50357 6.34356 16.9801 11.5376 31.843 8.25381C32.1108 8.19417 32.379 8.36441 32.439 8.63393C32.4986 8.90344 32.3284 9.17029 32.0589 9.22992C28.3533 10.0485 25.0445 10.3609 22.1538 10.3609Z" fill="#3B4D57"/>
<path d="M40.6276 17.3285H35.9666C35.6904 17.3285 35.4669 17.105 35.4669 16.8288C35.4669 16.5526 35.6904 16.3291 35.9666 16.3291H40.6276C40.9038 16.3291 41.1273 16.5526 41.1273 16.8288C41.1273 17.1047 40.9038 17.3285 40.6276 17.3285Z" fill="#3B4D57"/>
<path d="M31.7266 17.328H4.21059C3.93442 17.328 3.71088 17.1045 3.71088 16.8283C3.71088 16.5522 3.93442 16.3286 4.21059 16.3286H31.7266C32.0028 16.3286 32.2264 16.5522 32.2264 16.8283C32.2264 17.1042 32.0028 17.328 31.7266 17.328Z" fill="#3B4D57"/>
</svg>
