<svg width="45" height="27" viewBox="0 0 45 27" fill="none" xmlns="http://www.w3.org/2000/svg">
<path d="M33.3834 26.0733H9.66519C7.21291 26.0733 5.03215 24.5132 4.23993 22.1922L1.79565 15.0286H41.2526L38.8083 22.1922C38.0168 24.5132 35.836 26.0733 33.3834 26.0733Z" fill="#E9E5D9"/>
<path d="M33.3841 26.5741H9.66627C6.99978 26.5741 4.62945 24.8784 3.76828 22.3548L1.324 15.1912C1.27169 15.0387 1.29668 14.8704 1.39063 14.7392C1.48424 14.6079 1.63582 14.5303 1.79706 14.5303H41.254C41.4152 14.5303 41.5668 14.6079 41.6604 14.7392C41.7544 14.8704 41.779 15.0387 41.7271 15.1912L39.2828 22.3548C38.4209 24.8784 36.051 26.5741 33.3841 26.5741ZM2.49533 15.529L4.71407 22.0317C5.43733 24.1508 7.42754 25.5743 9.66627 25.5743H33.3845C35.6235 25.5743 37.6134 24.1508 38.3367 22.0317L40.5554 15.529H2.49533Z" fill="#3B4D57"/>
<path d="M26.7185 26.5737C26.4423 26.5737 26.2188 26.3502 26.2188 26.074C26.2188 25.7978 26.4423 25.5743 26.7185 25.5743C28.9575 25.5743 30.9474 24.1508 31.6707 22.0316L34.1149 14.868C34.2039 14.6068 34.4877 14.4666 34.7492 14.5565C35.0104 14.6455 35.15 14.9297 35.0607 15.1908L32.6165 22.3544C31.7553 24.878 29.385 26.5737 26.7185 26.5737Z" fill="#3B4D57"/>
<path d="M21.5671 12.4356C17.04 12.4356 12.6681 11.6411 8.48351 10.0513C6.28376 9.21613 5.24335 6.9131 6.1605 4.90824C7.07664 2.90304 9.60421 1.95558 11.8036 2.79111C18.151 5.20141 24.9055 5.17775 32.4526 2.71815C34.6976 1.98656 37.1666 3.05163 37.9688 5.0968C38.7717 7.14197 37.603 9.39303 35.3589 10.1243C30.6316 11.6651 26.0242 12.4356 21.5671 12.4356Z" fill="#9DBF9F"/>
<path d="M21.5671 12.9349C16.9893 12.9349 12.5275 12.1217 8.30592 10.5179C7.08028 10.0525 6.10817 9.13038 5.6391 7.9877C5.20102 6.91997 5.22467 5.75231 5.70573 4.6999C6.72782 2.4635 9.54355 1.39744 11.9808 2.32358C18.2176 4.6919 24.8632 4.66559 32.2976 2.24263C34.7852 1.43175 37.538 2.63008 38.4338 4.91378C38.8533 5.98251 38.8136 7.14484 38.3222 8.18659C37.7919 9.31062 36.7681 10.1898 35.5135 10.5989C30.7578 12.149 26.0655 12.9349 21.5671 12.9349ZM10.1422 2.9862C8.64306 2.9862 7.22187 3.78675 6.61488 5.11567C6.24975 5.91388 6.23177 6.79904 6.56391 7.60825C6.9337 8.50907 7.67828 9.21067 8.66105 9.58379C12.7691 11.1446 17.1113 11.9358 21.5674 11.9358C25.9606 11.9358 30.5486 11.1662 35.2043 9.64909C36.1981 9.32527 37.0053 8.637 37.4191 7.76083C37.7919 6.97061 37.8222 6.08944 37.504 5.27957C36.7978 3.47959 34.601 2.54346 32.6078 3.19342C24.9485 5.68967 18.085 5.71099 11.6264 3.25838C11.1406 3.07349 10.6373 2.9862 10.1422 2.9862Z" fill="#3B4D57"/>
<path d="M6.53984 4.25723L4.57229 0.499023L0.499268 5.33295L5.94585 5.52018" fill="#9DBF9F"/>
<path d="M5.94698 6.02141C5.94099 6.02141 5.93533 6.02107 5.92933 6.02107L0.482421 5.83385C0.291196 5.82718 0.120626 5.71225 0.0430037 5.53735C-0.0346189 5.36278 -0.00563567 5.1589 0.117628 5.01265L4.19098 0.17839C4.29826 0.0511291 4.46249 -0.013832 4.6274 0.00349155C4.79297 0.0218145 4.93856 0.120758 5.01585 0.268341L6.98306 4.02687C7.11099 4.2714 7.01671 4.57356 6.77219 4.70149C6.52766 4.82975 6.22583 4.73481 6.09757 4.49061L4.47549 1.3917L1.54415 4.87039L5.96364 5.02231C6.23949 5.03164 6.45503 5.26317 6.4457 5.53902C6.43704 5.80886 6.21517 6.02141 5.94698 6.02141Z" fill="#3B4D57"/>
<path d="M6.16154 5.40744C6.07859 5.40744 5.9943 5.38645 5.91668 5.34281L3.95879 4.23977C3.71826 4.10418 3.6333 3.79969 3.76889 3.55916C3.90448 3.31863 4.20864 3.23334 4.44951 3.36926L6.4074 4.47264C6.64793 4.60823 6.73288 4.91272 6.59729 5.15325C6.50568 5.31549 6.33611 5.40744 6.16154 5.40744Z" fill="#3B4D57"/>
<path d="M37.51 4.25747L39.4772 0.499268L43.5506 5.33319L38.1037 5.52042" fill="#9DBF9F"/>
<path d="M38.1029 6.02076C37.8347 6.02076 37.6132 5.80822 37.6039 5.53837C37.5946 5.26253 37.8104 5.03133 38.0859 5.02166L42.5058 4.86975L39.5744 1.39105L37.9523 4.48996C37.8244 4.73416 37.5229 4.8291 37.2777 4.70084C37.0332 4.57291 36.9389 4.27075 37.0669 4.02623L39.0341 0.267694C39.1114 0.120111 39.2569 0.0208344 39.4225 0.00284457C39.5891 -0.0148121 39.7517 0.0504822 39.8589 0.177743L43.9323 5.012C44.0556 5.15825 44.0845 5.36213 44.0069 5.5367C43.9293 5.7116 43.7587 5.82687 43.5675 5.8332L38.1206 6.02043C38.1146 6.02076 38.1086 6.02076 38.1029 6.02076Z" fill="#3B4D57"/>
<path d="M37.8896 5.40756C37.7151 5.40756 37.5455 5.31594 37.4539 5.15303C37.3183 4.9125 37.4036 4.60801 37.6438 4.47242L39.6017 3.36904C39.8425 3.23345 40.147 3.31874 40.2823 3.55893C40.4179 3.79946 40.3326 4.10396 40.0924 4.23955L38.1345 5.34259C38.0569 5.38657 37.9729 5.40756 37.8896 5.40756Z" fill="#3B4D57"/>
<path d="M22.1537 10.3612C13.1122 10.3612 8.15465 7.30593 7.88547 7.13536C7.6526 6.98777 7.5833 6.67961 7.73089 6.44641C7.87813 6.21321 8.18629 6.14358 8.41983 6.29083C8.50344 6.3438 16.98 11.5379 31.8429 8.25405C32.1107 8.19442 32.3789 8.36466 32.4389 8.63417C32.4985 8.90368 32.3283 9.17053 32.0587 9.23017C28.3532 10.0487 25.0444 10.3612 22.1537 10.3612Z" fill="#3B4D57"/>
<path d="M40.6275 17.3284H35.9665C35.6903 17.3284 35.4668 17.1049 35.4668 16.8287C35.4668 16.5525 35.6903 16.329 35.9665 16.329H40.6275C40.9037 16.329 41.1273 16.5525 41.1273 16.8287C41.1273 17.1045 40.9037 17.3284 40.6275 17.3284Z" fill="#3B4D57"/>
<path d="M31.7267 17.3282H4.21065C3.93448 17.3282 3.71094 17.1046 3.71094 16.8285C3.71094 16.5523 3.93448 16.3287 4.21065 16.3287H31.7267C32.0029 16.3287 32.2264 16.5523 32.2264 16.8285C32.2264 17.1043 32.0029 17.3282 31.7267 17.3282Z" fill="#3B4D57"/>
</svg>
