<svg width="37" height="32" viewBox="0 0 37 32" fill="none" xmlns="http://www.w3.org/2000/svg">
<path d="M27.8452 19.7033C30.2905 21.1732 34.2903 19.309 35.7165 16.4963C36.6907 14.5757 36.2399 12.6553 36.0809 11.9776C35.5165 9.573 33.499 6.24076 30.9063 6.36572C27.6455 6.52266 26.3021 12.0105 26.2417 12.2691C26.118 12.8015 24.9787 17.9805 27.8452 19.7033Z" fill="#3B4D57"/>
<path d="M18.5896 15.549C20.2998 15.4333 21.4185 13.1838 22.5981 10.8115C23.4647 9.06926 24.383 7.22273 24.0557 4.83514C23.9498 4.06299 23.5484 1.13253 21.4319 0.243492C19.192 -0.697257 16.5901 1.30352 15.4556 2.57578C13.32 4.97025 13.5325 7.97785 13.6336 8.84386C14.007 12.0419 16.3234 15.7023 18.5896 15.549Z" fill="#3B4D57"/>
<path d="M9.3338 16.2048C10.5188 15.1606 10.3902 13.3589 10.2814 11.8317C10.1735 10.3203 9.98189 7.63403 7.80326 5.85537C7.43766 5.55673 5.36753 3.86655 3.21161 4.54334C0.740013 5.31937 0.048278 8.61215 0.00463346 10.3011C-0.011808 10.9388 -0.0694983 13.1754 1.60813 14.9657C3.14136 16.6018 5.11792 16.7916 5.83536 16.8607C6.88014 16.9614 8.31832 17.0995 9.3338 16.2048Z" fill="#3B4D57"/>
<path d="M15.5089 28.0213C16.5319 30.6065 19.1129 32.2129 21.8006 31.9762C24.8007 31.7116 26.8278 29.2481 27.2834 26.9427C28.0247 23.1911 24.5209 20.2794 23.7781 19.6621C18.7676 15.4986 9.9302 16.315 6.34089 20.6507C5.96154 21.109 4.51918 22.8515 4.54339 25.3246C4.54907 25.8991 4.57747 28.8161 6.97014 30.2681C8.59545 31.2549 13.3518 30.8079 15.5089 28.0213Z" fill="#3B4D57"/>
<path d="M6.78428 16.0725C2.5406 16.0725 1.25757 12.9463 0.952056 11.9188C0.881507 11.6812 1.01663 11.4319 1.25428 11.361C1.49134 11.2908 1.74125 11.4256 1.8118 11.6632C2.92413 15.4047 6.70955 15.246 7.84371 15.1088C8.08764 15.0821 8.31303 15.254 8.34293 15.5001C8.37282 15.7458 8.19765 15.9694 7.95162 15.9993C7.53999 16.0492 7.15108 16.0725 6.78428 16.0725Z" fill="#9DBF9F"/>
<path d="M18.162 14.4099C18.1154 14.4099 18.0679 14.4028 18.0209 14.3872C15.6614 13.6046 14.599 9.34748 14.5551 9.16662C14.4965 8.92598 14.6439 8.68384 14.8845 8.62495C15.1243 8.56666 15.3676 8.71344 15.4265 8.95408C15.6949 10.0521 16.7355 13.016 18.3034 13.5362C18.5387 13.6142 18.6657 13.8677 18.588 14.1029C18.5252 14.2907 18.3501 14.4099 18.162 14.4099Z" fill="#9DBF9F"/>
<path d="M9.38148 30.072C8.14777 30.072 7.06085 29.4126 6.22144 28.1481C5.56079 27.1538 5.28607 26.1333 5.27471 26.0902C5.21164 25.8511 5.35393 25.6059 5.59308 25.5426C5.83193 25.4774 6.07795 25.6212 6.14162 25.8603C6.15119 25.8959 7.12033 29.4141 9.64304 29.1621C9.88847 29.1376 10.1091 29.3181 10.133 29.5647C10.1572 29.8111 9.97696 30.0308 9.73063 30.055C9.61315 30.0663 9.49657 30.072 9.38148 30.072Z" fill="#9DBF9F"/>
<path d="M19.8356 30.8063C19.8033 30.8063 19.7707 30.8027 19.7378 30.7955C17.4594 30.2894 16.214 27.3103 16.1623 27.1838C16.0684 26.9545 16.1778 26.693 16.4065 26.5991C16.6355 26.5058 16.8974 26.6143 16.9915 26.843C17.0026 26.8696 18.1128 29.5158 19.9319 29.9203C20.1737 29.9741 20.3262 30.2132 20.2723 30.4551C20.2266 30.6643 20.0413 30.8063 19.8356 30.8063Z" fill="#9DBF9F"/>
<path d="M28.6573 19.1017C28.6035 19.1017 28.5488 19.0921 28.4956 19.0715C26.4548 18.2817 26.7307 14.1402 26.769 13.6706C26.789 13.4237 27.0042 13.2428 27.252 13.2602C27.4987 13.2802 27.6825 13.4966 27.6628 13.7433C27.5809 14.7608 27.6173 17.7702 28.8194 18.2354C29.0501 18.3247 29.1649 18.5842 29.0758 18.815C29.0068 18.9929 28.837 19.1017 28.6573 19.1017Z" fill="#9DBF9F"/>
</svg>
