<svg width="39" height="32" viewBox="0 0 39 32" fill="none" xmlns="http://www.w3.org/2000/svg">
<path d="M33.7544 13.4226V31.5636H19.0562H4.35516V13.4255V13.4226L19.0562 4.2998L33.7544 13.4226ZM26.1075 20.5174C26.1075 16.6243 22.9494 13.4662 19.0562 13.4662C15.1631 13.4662 12.0049 16.6243 12.0049 20.5174C12.0049 24.4106 15.1631 27.5687 19.0562 27.5687C22.9494 27.5687 26.1075 24.4106 26.1075 20.5174Z" fill="#E9E5D9"/>
<path d="M37.6771 11.9935V15.8576L33.7549 13.4229L19.0567 4.30015L4.35565 13.4229V13.4258L0.43634 15.8576V11.9935L19.0567 0.436035L37.6771 11.9935Z" fill="#9DBF9F"/>
<path d="M19.0565 27.5694C22.9508 27.5694 26.1078 24.4124 26.1078 20.5181C26.1078 16.6238 22.9508 13.4668 19.0565 13.4668C15.1622 13.4668 12.0052 16.6238 12.0052 20.5181C12.0052 24.4124 15.1622 27.5694 19.0565 27.5694Z" fill="#9DBF9F"/>
<path d="M33.7548 31.9996H4.3556C4.11475 31.9996 3.9198 31.8044 3.9198 31.5638V13.4257C3.9198 13.1852 4.11475 12.9899 4.3556 12.9899C4.59646 12.9899 4.7914 13.1852 4.7914 13.4257V31.1283H33.319V13.4231C33.319 13.1825 33.514 12.9873 33.7548 12.9873C33.9957 12.9873 34.1906 13.1825 34.1906 13.4231V31.5641C34.1906 31.8044 33.9957 31.9996 33.7548 31.9996Z" fill="#3B4D57"/>
<path d="M19.0561 28.0057C14.9276 28.0057 11.569 24.6468 11.569 20.5183C11.569 16.3901 14.9279 13.0312 19.0561 13.0312C23.1843 13.0312 26.5432 16.3898 26.5432 20.5183C26.5432 24.6471 23.1846 28.0057 19.0561 28.0057ZM19.0561 13.9031C15.4082 13.9031 12.4406 16.871 12.4406 20.5186C12.4406 24.1666 15.4082 27.1344 19.0561 27.1344C22.7041 27.1344 25.6716 24.1666 25.6716 20.5186C25.6716 16.871 22.7041 13.9031 19.0561 13.9031Z" fill="#3B4D57"/>
<path d="M37.6765 16.2937C37.5966 16.2937 37.517 16.2719 37.4467 16.228L19.0562 4.81322L4.62212 13.7704C4.6102 13.7794 4.598 13.7881 4.58493 13.7963L0.665615 16.228C0.531097 16.3117 0.362298 16.3161 0.224003 16.2385C0.0857088 16.1615 0 16.0157 0 15.8576V11.9935C0 11.8427 0.0778632 11.7027 0.205989 11.6231L18.8264 0.0655882C18.967 -0.0218627 19.1454 -0.0218627 19.286 0.0655882L37.9064 11.6231C38.0345 11.7027 38.1123 11.8424 38.1123 11.9935V15.8576C38.1123 16.0159 38.0266 16.1615 37.8883 16.2385C37.8224 16.2754 37.7495 16.2937 37.6765 16.2937ZM0.871604 12.2361V15.0746L4.08841 13.0789C4.10003 13.0699 4.11252 13.0612 4.1253 13.0531L18.8264 3.93028C18.967 3.84283 19.1454 3.84283 19.286 3.93028L33.9841 13.0531L37.2407 15.0746V12.2361L19.0562 0.949401L0.871604 12.2361Z" fill="#3B4D57"/>
</svg>
