<svg width="23" height="32" viewBox="0 0 23 32" fill="none" xmlns="http://www.w3.org/2000/svg">
<path d="M19.2004 4.42114L16.7129 12.4239H0.416504L2.90127 4.42114H19.2004Z" fill="#E9E5D9"/>
<path d="M21.6847 12.4239V30.2245L19.2 29.7452V4.42114L21.6847 12.4239Z" fill="#E9E5D9"/>
<path d="M19.1999 4.42114V29.7452L16.7124 31.5846V12.4239L19.1999 4.42114Z" fill="#E9E5D9"/>
<path d="M6.39599 21.7866C6.62868 21.7866 6.81704 21.975 6.81704 22.2104C6.81704 22.4431 6.62868 22.6315 6.39599 22.6315C6.16053 22.6315 5.97217 22.4431 5.97217 22.2104C5.97217 21.975 6.16053 21.7866 6.39599 21.7866Z" fill="#D8D0BB"/>
<path d="M8.56559 23.3047C8.96172 23.3047 9.28027 23.4875 9.28027 23.7119C9.28027 23.9363 8.96172 24.1191 8.56559 24.1191C8.16947 24.1191 7.84814 23.9363 7.84814 23.7119C7.84814 23.4875 8.16947 23.3047 8.56559 23.3047Z" fill="#D8D0BB"/>
<path d="M10.7341 21.7866C10.9668 21.7866 11.1552 21.975 11.1552 22.2104C11.1552 22.4431 10.9668 22.6315 10.7341 22.6315C10.4987 22.6315 10.3103 22.4431 10.3103 22.2104C10.3103 21.975 10.4987 21.7866 10.7341 21.7866Z" fill="#D8D0BB"/>
<path d="M12.613 20.9198C13.0285 21.5015 13.2667 22.1829 13.2667 22.9087C13.2667 25.0749 11.1615 26.8283 8.56591 26.8283C5.96757 26.8283 3.8623 25.0749 3.8623 22.9087C3.8623 22.1829 4.10054 21.5015 4.51605 20.917C4.70164 20.6538 4.92048 20.4128 5.17256 20.1968C6.02851 19.4516 7.23073 18.989 8.56591 18.989C9.89832 18.989 11.1005 19.4516 11.9565 20.1968C12.2086 20.4156 12.4302 20.6566 12.613 20.9198ZM11.1559 22.2106C11.1559 21.9752 10.9676 21.7868 10.7349 21.7868C10.4994 21.7868 10.3111 21.9752 10.3111 22.2106C10.3111 22.4433 10.4994 22.6317 10.7349 22.6317C10.9676 22.6317 11.1559 22.4433 11.1559 22.2106ZM9.28059 23.712C9.28059 23.4876 8.96203 23.3048 8.56591 23.3048C8.16979 23.3048 7.84846 23.4876 7.84846 23.712C7.84846 23.9364 8.16979 24.1192 8.56591 24.1192C8.96203 24.1192 9.28059 23.9364 9.28059 23.712ZM6.81799 22.2106C6.81799 21.9752 6.62962 21.7868 6.39694 21.7868C6.16148 21.7868 5.97311 21.9752 5.97311 22.2106C5.97311 22.4433 6.16148 22.6317 6.39694 22.6317C6.62962 22.6317 6.81799 22.4433 6.81799 22.2106Z" fill="#E9E5D9"/>
<path d="M3.36934 16.5872C3.36934 16.5872 5.63804 17.3489 5.17267 20.1938V20.1966C4.92059 20.4127 4.70175 20.6536 4.51616 20.9168C4.51616 20.9168 1.771 19.457 3.36934 16.5872Z" fill="#D8D0BB"/>
<path d="M13.7596 16.5872C15.3607 19.457 12.6155 20.9168 12.6155 20.9168L12.6127 20.9196C12.4299 20.6564 12.2083 20.4154 11.9562 20.1966V20.1938C11.4909 17.3489 13.7596 16.5872 13.7596 16.5872Z" fill="#D8D0BB"/>
<path d="M11.9567 20.1967C11.1007 19.4515 9.8985 18.9889 8.56609 18.9889C7.23091 18.9889 6.0287 19.4515 5.17274 20.1967V20.1939C5.63811 17.349 3.36941 16.5873 3.36941 16.5873C1.77108 19.4571 4.51623 20.9169 4.51623 20.9169C4.10072 21.5014 3.86249 22.1828 3.86249 22.9086C3.86249 25.0748 5.96775 26.8283 8.56609 26.8283C11.1617 26.8283 13.2669 25.0748 13.2669 22.9086C13.2669 22.1828 13.0287 21.5014 12.6132 20.9197L12.616 20.9169C12.616 20.9169 15.3611 19.4571 13.76 16.5873C13.76 16.5873 11.4913 17.349 11.9567 20.1939V20.1967ZM16.7129 12.4238V31.5845H0.416504V12.4238H16.7129Z" fill="#E9E5D9"/>
<path d="M19.1998 0.415527H2.90063V4.42107H19.1998V0.415527Z" fill="#9DBF9F"/>
<path d="M19.1998 4.83657H2.90062C2.67098 4.83657 2.48511 4.65042 2.48511 4.42106V0.415512C2.48511 0.18615 2.67098 0 2.90062 0H19.1998C19.4294 0 19.6153 0.18615 19.6153 0.415512V4.42106C19.6153 4.65042 19.4292 4.83657 19.1998 4.83657ZM3.31613 4.00555H18.7843V0.831025H3.31613V4.00555Z" fill="#3B4D57"/>
<path d="M16.7119 32.0001H0.415512C0.185873 32.0001 0 31.8139 0 31.5846V12.4239C0 12.3823 0.00637579 12.3405 0.0185642 12.3009L2.50333 4.29814C2.57147 4.07875 2.80443 3.9566 3.02327 4.02446C3.24238 4.09261 3.36482 4.3253 3.29695 4.54441L0.830754 12.4871V31.1691H16.2961V12.4239C16.2961 12.3821 16.3025 12.3405 16.3147 12.3006L18.8022 4.29787C18.8706 4.07876 19.1031 3.95632 19.3224 4.02446C19.5416 4.09261 19.664 4.32557 19.5959 4.54468L17.1269 12.4871V31.5846C17.1274 31.8139 16.9416 32.0001 16.7119 32.0001Z" fill="#3B4D57"/>
<path d="M16.7118 32C16.5843 32 16.4589 31.9418 16.3774 31.8316C16.2408 31.6471 16.2799 31.3867 16.4644 31.2504L18.9519 29.4111C19.0453 29.3419 19.1638 29.3144 19.2777 29.3371L21.2683 29.7211V12.4867L18.8021 4.54406C18.7339 4.32495 18.8566 4.09226 19.0758 4.02412C19.2946 3.95625 19.5278 4.07842 19.5957 4.29781L22.0805 12.3006C22.0926 12.3402 22.099 12.382 22.099 12.4236V30.2244C22.099 30.3482 22.0436 30.466 21.948 30.5449C21.8525 30.6238 21.7267 30.656 21.6048 30.6322L19.299 30.1876L16.958 31.9183C16.8841 31.9734 16.7976 32 16.7118 32Z" fill="#3B4D57"/>
<path d="M16.7119 12.8393H0.415512C0.185873 12.8393 0 12.6532 0 12.4238C0 12.1945 0.185873 12.0083 0.415512 12.0083H16.7119C16.9416 12.0083 17.1274 12.1945 17.1274 12.4238C17.1274 12.6532 16.9416 12.8393 16.7119 12.8393Z" fill="#3B4D57"/>
<path d="M8.56516 27.2436C5.74245 27.2436 3.44604 25.2987 3.44604 22.9087C3.44604 22.1206 3.69868 21.3486 4.17679 20.676C4.38206 20.3849 4.62638 20.117 4.90145 19.8813C5.86931 19.0386 7.17126 18.5732 8.56516 18.5732C9.9574 18.5732 11.2585 19.0386 12.2286 19.8832C12.5111 20.1284 12.7544 20.3965 12.9519 20.6799C13.4291 21.3492 13.6815 22.1198 13.6815 22.9084C13.6815 25.2987 11.3862 27.2436 8.56516 27.2436ZM8.56516 19.4043C7.37181 19.4043 6.2635 19.7971 5.44467 20.5098C5.21918 20.7032 5.02167 20.9201 4.85519 21.1561C4.47679 21.6885 4.27735 22.294 4.27735 22.9084C4.27735 24.8406 6.2009 26.4123 8.56544 26.4123C10.9283 26.4123 12.8508 24.8403 12.8508 22.9084C12.8508 22.2929 12.6516 21.6888 12.2743 21.1608C12.2735 21.1591 12.2724 21.1577 12.2713 21.1563C12.1128 20.9286 11.915 20.7112 11.6834 20.5101C10.864 19.7971 9.75657 19.4043 8.56516 19.4043Z" fill="#3B4D57"/>
<path d="M4.5149 21.3323C4.44924 21.3323 4.38221 21.3165 4.32016 21.2835C4.26586 21.2547 2.98608 20.5608 2.57667 19.1732C2.31822 18.2979 2.46254 17.3597 3.00548 16.3852C3.10298 16.2101 3.31129 16.13 3.50077 16.1935C4.40104 16.496 5.99495 17.735 5.58193 20.2611C5.54481 20.4874 5.33013 20.6411 5.10465 20.604C4.87833 20.5669 4.72459 20.3533 4.76171 20.1267C5.06282 18.2868 4.09107 17.45 3.55756 17.1367C3.27224 17.7791 3.21019 18.3838 3.3739 18.9383C3.68554 19.9946 4.70021 20.5447 4.71046 20.55C4.91295 20.6577 4.98996 20.9093 4.88221 21.1117C4.80741 21.2522 4.66365 21.3323 4.5149 21.3323Z" fill="#3B4D57"/>
<path d="M12.6152 21.3324C12.4664 21.3324 12.3227 21.2523 12.2479 21.1119C12.1404 20.9097 12.2168 20.6584 12.4185 20.5507C12.4323 20.5432 13.4523 19.9806 13.7576 18.9321C13.9185 18.3792 13.8553 17.7767 13.5703 17.1365C13.0379 17.449 12.0645 18.2856 12.3659 20.1269C12.403 20.3532 12.2492 20.567 12.0229 20.6041C11.7974 20.6424 11.583 20.4875 11.5456 20.2612C11.1323 17.7354 12.7263 16.4961 13.6268 16.1936C13.8163 16.1299 14.0243 16.21 14.1221 16.385C14.6659 17.3601 14.811 18.2983 14.5528 19.174C14.144 20.5612 12.8645 21.2551 12.8102 21.2836C12.7479 21.3166 12.6811 21.3324 12.6152 21.3324Z" fill="#3B4D57"/>
<path d="M8.56382 25.665C7.91839 25.665 7.27296 25.4637 6.63224 25.0606C6.43806 24.9387 6.37933 24.6822 6.50149 24.488C6.62365 24.2933 6.88044 24.2351 7.07435 24.3573C8.07656 24.9869 9.0508 24.9869 10.0533 24.3573C10.2475 24.2348 10.5037 24.293 10.6261 24.488C10.7483 24.6822 10.6896 24.9387 10.4954 25.0606C9.85467 25.4639 9.20925 25.665 8.56382 25.665Z" fill="#3B4D57"/>
<path d="M6.39598 23.047C5.93309 23.047 5.55664 22.6714 5.55664 22.2102C5.55664 21.7473 5.93309 21.3708 6.39598 21.3708C6.85719 21.3708 7.23254 21.7473 7.23254 22.2102C7.23254 22.6717 6.85719 23.047 6.39598 23.047Z" fill="#3B4D57"/>
<path d="M10.7341 23.047C10.2715 23.047 9.89478 22.6714 9.89478 22.2102C9.89478 21.7473 10.2712 21.3708 10.7341 21.3708C11.1953 21.3708 11.5707 21.7473 11.5707 22.2102C11.5707 22.6717 11.1953 23.047 10.7341 23.047Z" fill="#3B4D57"/>
<path d="M8.5646 24.5349C7.91862 24.5349 7.43164 24.1811 7.43164 23.7119C7.43164 23.2429 7.91862 22.8892 8.5646 22.8892C9.20892 22.8892 9.69479 23.2426 9.69479 23.7119C9.69479 24.1811 9.20892 24.5349 8.5646 24.5349Z" fill="#3B4D57"/>
<path d="M19.199 30.1607C18.9693 30.1607 18.7834 29.9746 18.7834 29.7452V4.42113C18.7834 4.19176 18.9693 4.00562 19.199 4.00562C19.4286 4.00562 19.6145 4.19176 19.6145 4.42113V29.7452C19.6145 29.9746 19.4283 30.1607 19.199 30.1607Z" fill="#3B4D57"/>
</svg>
