<svg width="56" height="56" viewBox="0 0 56 56" fill="none" xmlns="http://www.w3.org/2000/svg">
<path d="M47.0236 19.0608L45.2222 15.9337C44.9981 15.5443 44.6285 15.2599 44.1947 15.143C43.7608 15.0261 43.2983 15.0863 42.9089 15.3103L32.1475 21.5447C32.0807 21.5833 32.0049 21.6035 31.9278 21.6033C31.8506 21.6031 31.7749 21.5826 31.7083 21.5437C31.6417 21.5049 31.5865 21.4491 31.5484 21.382C31.5103 21.3149 31.4906 21.239 31.4913 21.1619L31.5 8.75C31.5 8.28587 31.3156 7.84075 30.9874 7.51256C30.6593 7.18437 30.2141 7 29.75 7H26.25C25.7859 7 25.3408 7.18437 25.0126 7.51256C24.6844 7.84075 24.5 8.28587 24.5 8.75L24.5077 21.1717C24.5084 21.2488 24.4886 21.3248 24.4505 21.3918C24.4124 21.4589 24.3572 21.5147 24.2906 21.5536C24.224 21.5924 24.1483 21.613 24.0711 21.6132C23.994 21.6133 23.9182 21.5931 23.8514 21.5545L13.09 15.3202C12.7006 15.0961 12.2381 15.0359 11.8043 15.1528C11.3704 15.2697 11.0008 15.5542 10.7767 15.9436L8.97641 19.0717C8.86526 19.264 8.79318 19.4763 8.76431 19.6965C8.73544 19.9167 8.75035 20.1405 8.80817 20.3549C8.86599 20.5693 8.9656 20.7702 9.10127 20.9461C9.23694 21.1219 9.406 21.2692 9.59875 21.3795L20.3711 27.6227C20.4369 27.6613 20.4914 27.7164 20.5293 27.7826C20.5673 27.8488 20.5872 27.9237 20.5872 28C20.5872 28.0763 20.5673 28.1512 20.5293 28.2174C20.4914 28.2836 20.4369 28.3387 20.3711 28.3773L9.59875 34.6205C9.2121 34.8458 8.9299 35.2144 8.81339 35.6465C8.69687 36.0786 8.75545 36.5391 8.97641 36.9283L10.7778 40.0553C11.0019 40.4447 11.3715 40.7292 11.8053 40.8461C12.2392 40.963 12.7017 40.9028 13.0911 40.6788L23.8525 34.4444C23.9193 34.4058 23.9951 34.3856 24.0722 34.3858C24.1494 34.3859 24.2251 34.4065 24.2917 34.4453C24.3583 34.4842 24.4135 34.54 24.4516 34.6071C24.4897 34.6741 24.5094 34.7501 24.5088 34.8272L24.5 47.25C24.5 47.7141 24.6844 48.1592 25.0126 48.4874C25.3408 48.8156 25.7859 49 26.25 49H29.75C30.2141 49 30.6593 48.8156 30.9874 48.4874C31.3156 48.1592 31.5 47.7141 31.5 47.25L31.4923 34.8173C31.4917 34.7402 31.5114 34.6643 31.5495 34.5972C31.5876 34.5302 31.6428 34.4744 31.7094 34.4355C31.776 34.3966 31.8517 34.3761 31.9289 34.3759C32.006 34.3757 32.0818 34.396 32.1486 34.4345L42.91 40.6689C43.2994 40.893 43.7619 40.9531 44.1957 40.8362C44.6296 40.7193 44.9992 40.4349 45.2233 40.0455L47.0247 36.9184C47.1358 36.7262 47.2079 36.5138 47.2368 36.2936C47.2657 36.0734 47.2508 35.8497 47.1929 35.6352C47.1351 35.4208 47.0355 35.2199 46.8998 35.0441C46.7642 34.8683 46.5951 34.7209 46.4023 34.6106L35.63 28.3675C35.5642 28.3289 35.5097 28.2738 35.4718 28.2076C35.4338 28.1414 35.4139 28.0664 35.4139 27.9902C35.4139 27.9139 35.4338 27.8389 35.4718 27.7727C35.5097 27.7065 35.5642 27.6514 35.63 27.6128L46.4023 21.3697C46.7898 21.1448 47.0725 20.7758 47.1889 20.3433C47.3053 19.9107 47.2459 19.4497 47.0236 19.0608Z" stroke="white" stroke-width="2" stroke-linecap="round" stroke-linejoin="round"/>
</svg>
