<svg width="38" height="32" viewBox="0 0 38 32" fill="none" xmlns="http://www.w3.org/2000/svg">
<path d="M14.8933 19.8313C14.5229 19.9121 14.1834 19.8076 14.1359 19.5963C14.0884 19.385 14.352 19.1475 14.7247 19.0644C15.0951 18.9813 15.4346 19.0858 15.4821 19.2971C15.5296 19.5084 15.266 19.7482 14.8933 19.8313Z" fill="#D8D0BB"/>
<path d="M12.8345 18.3073C12.8819 18.5257 12.7442 18.7441 12.5258 18.7916C12.3074 18.8415 12.0889 18.7038 12.0415 18.4853C11.9916 18.2645 12.1293 18.0485 12.3501 17.9986C12.5685 17.9511 12.7846 18.0888 12.8345 18.3073Z" fill="#D8D0BB"/>
<path d="M16.9072 17.401C16.9547 17.6218 16.817 17.8378 16.5986 17.8853C16.3801 17.9352 16.1617 17.7975 16.1142 17.579C16.0643 17.3582 16.2021 17.1422 16.4229 17.0947C16.6413 17.0448 16.8573 17.1825 16.9072 17.401Z" fill="#D8D0BB"/>
<path d="M26.9617 13.153C28.4741 13.5638 30.6798 15.4038 29.8203 18.3052C28.8183 21.6837 24.4758 22.7688 24.4758 22.7688C24.4758 22.7688 25.2617 24.2194 25.2617 26.3373C25.2617 28.4575 23.5641 29.5235 23.5641 29.5235H20.7293C20.5274 29.5235 20.4443 29.2647 20.6105 29.146L21.838 28.2723L22.4601 26.5771L17.8113 25.9408C18.8156 27.0804 18.2482 28.3221 18.2482 28.3221L17.289 29.5235H14.7984C14.5253 29.5235 14.371 29.2101 14.5372 28.9941L15.5344 27.693C13.0058 25.5253 13.1839 22.8922 13.1839 22.8922C13.9341 23.0916 14.7556 23.1178 15.5842 22.9326C16.9162 22.6358 18.0012 21.857 18.6637 20.8456L22.6477 20.9667C22.6477 20.9667 26.0761 20.0075 26.9617 18.6969C27.8188 17.4267 27.1421 15.4917 25.5514 15.2257C24.2978 15.0144 23.5499 15.7528 23.151 16.3749C22.9017 16.7666 22.3841 16.8853 22.0019 16.6218L21.9876 16.6123C21.7336 16.4366 21.5982 16.1303 21.6457 15.8241C22.0209 13.3786 24.6539 12.5286 26.9617 13.153Z" fill="#D8D0BB"/>
<path d="M14.8938 19.832C15.2666 19.7489 15.5301 19.5091 15.4826 19.2978C15.4351 19.0865 15.0956 18.982 14.7252 19.0651C14.3525 19.1482 14.0889 19.3856 14.1364 19.5969C14.1839 19.8082 14.5234 19.9127 14.8938 19.832ZM10.905 21.5011C10.6391 21.1948 10.4159 20.8529 10.2521 20.4754C10.1429 20.2356 10.0598 19.9839 10.0004 19.718C9.81051 18.868 9.90785 18.0157 10.2284 17.2464C10.4539 16.7122 10.784 16.2207 11.2018 15.7981C11.8476 15.1452 12.7024 14.6585 13.6924 14.4376C14.6849 14.2168 15.6654 14.2952 16.5273 14.6133C17.0876 14.8175 17.5957 15.1238 18.0231 15.5108C18.6404 16.0711 19.0891 16.8024 19.279 17.6524C19.336 17.9159 19.3693 18.1819 19.374 18.443C19.3835 18.8561 19.3289 19.2598 19.2173 19.6491C19.0962 20.0718 18.9087 20.473 18.6641 20.8458C18.0017 21.8572 16.9167 22.636 15.5847 22.9327C14.7561 23.1179 13.9346 23.0918 13.1843 22.8924C12.2845 22.6573 11.4867 22.1706 10.905 21.5011ZM16.5985 17.8851C16.8169 17.8376 16.9546 17.6215 16.9072 17.4007C16.8573 17.1823 16.6412 17.0446 16.4228 17.0944C16.202 17.1419 16.0643 17.358 16.1142 17.5788C16.1616 17.7972 16.3801 17.9349 16.5985 17.8851ZM12.5267 18.792C12.7451 18.7446 12.8828 18.5261 12.8353 18.3077C12.7855 18.0893 12.5694 17.9515 12.351 17.999C12.1302 18.0489 11.9925 18.2649 12.0423 18.4858C12.0898 18.7042 12.3082 18.8419 12.5267 18.792Z" fill="#D8D0BB"/>
<path d="M11.2014 15.7981C10.7835 16.2207 10.4535 16.7122 10.228 17.2464C10.228 17.2464 7.53079 16.0973 8.35704 13.4595C8.35704 13.4595 10.812 13.8109 11.2014 15.7981Z" fill="#D8D0BB"/>
<path d="M18.1106 11.2869C19.9768 13.3264 18.0227 15.5107 18.0227 15.5107C17.5954 15.1237 17.0873 14.8174 16.527 14.6132C16.0355 12.6473 18.1106 11.2869 18.1106 11.2869Z" fill="#D8D0BB"/>
<path d="M10.9048 21.5013C11.4865 22.1709 12.2843 22.6576 13.1841 22.8926C13.1841 22.8926 13.006 25.5257 15.5346 27.6934L14.5374 28.9945C14.3712 29.2105 14.5256 29.524 14.7986 29.524H17.2892L18.2484 28.3226C18.2484 28.3226 18.8159 27.0808 17.8115 25.9412L22.4603 26.5775L21.8383 28.2727L20.6108 29.1464C20.4446 29.2652 20.5277 29.524 20.7295 29.524H23.5644C23.5644 29.524 25.262 28.4579 25.262 26.3377C25.262 24.2199 24.4761 22.7692 24.4761 22.7692C24.4761 22.7692 28.8186 21.6842 29.8205 18.3056C30.68 15.4042 28.4743 13.5642 26.9619 13.1534C24.6542 12.529 22.0211 13.379 21.646 15.8245C21.5985 16.1308 21.7338 16.437 21.9879 16.6127L22.0021 16.6222C22.3844 16.8858 22.902 16.7671 23.1512 16.3753C23.5501 15.7533 24.298 15.0149 25.5516 15.2262C27.1424 15.4921 27.819 17.4271 26.9619 18.6973C26.0763 20.0079 22.6479 20.9671 22.6479 20.9671L18.6639 20.846C18.9084 20.4733 19.096 20.072 19.2171 19.6494C19.3287 19.26 19.3833 18.8564 19.3738 18.4433C19.3691 18.1821 19.3358 17.9162 19.2788 17.6527C19.0889 16.8027 18.6402 16.0714 18.0229 15.5111C18.0229 15.5111 19.9769 13.3268 18.1107 11.2873C18.1107 11.2873 16.0356 12.6477 16.5271 14.6136C15.6652 14.2955 14.6846 14.2171 13.6922 14.4379C12.7021 14.6587 11.8474 15.1455 11.2016 15.7984C10.8122 13.8111 8.35725 13.4597 8.35725 13.4597C7.53101 16.0975 10.2282 17.2467 10.2282 17.2467C9.90764 18.0159 9.81029 18.8683 10.0002 19.7183C10.0596 19.9842 10.1427 20.2358 10.2519 20.4756C10.4157 20.8532 10.6389 21.195 10.9048 21.5013ZM32.4726 13.1012V31.6442H18.8895H5.30396V13.1012L18.8895 3.98169L32.4726 13.1012Z" fill="#E9E5D9"/>
<path d="M37.42 12.799V16.4221L32.472 13.1005L18.8889 3.98096L5.30342 13.1005L0.355469 16.4221V12.799L18.8889 0.355469L37.42 12.799Z" fill="#9DBF9F"/>
<path d="M14.4598 23.4139C13.9961 23.4139 13.5352 23.355 13.0924 23.2373C12.118 22.983 11.2681 22.4633 10.6358 21.7353C10.3362 21.3903 10.0968 21.0145 9.92495 20.618C9.8098 20.3656 9.7172 20.0873 9.65238 19.7965C9.45318 18.905 9.53842 17.9759 9.89907 17.11C9.89931 17.1095 9.89955 17.1091 9.89978 17.1086C10.1443 16.5295 10.4969 16.0046 10.948 15.5485C11.6643 14.8241 12.5863 14.32 13.6141 14.0907C14.644 13.8618 15.6937 13.9273 16.6498 14.2799C17.2524 14.4995 17.7949 14.8253 18.2614 15.2474C18.9543 15.8764 19.426 16.6812 19.6259 17.5754C19.6898 17.8705 19.7245 18.1597 19.7294 18.4372C19.7397 18.8767 19.6822 19.3183 19.559 19.7481C19.4298 20.1987 19.2287 20.6339 18.9611 21.042C18.2173 22.1774 17.0456 22.9728 15.6614 23.2812C15.2654 23.3697 14.8615 23.4139 14.4598 23.4139ZM10.5565 17.385C10.2531 18.1139 10.1809 18.894 10.3478 19.641C10.4029 19.8872 10.4774 20.1118 10.5762 20.3286C10.7218 20.664 10.9219 20.9782 11.174 21.2683C11.7118 21.8873 12.4381 22.3303 13.2743 22.5487C13.9921 22.7394 14.7637 22.752 15.5071 22.586C16.7092 22.3182 17.7244 21.6313 18.3661 20.6515C18.5946 20.3034 18.7657 19.9337 18.875 19.5519C18.9785 19.1911 19.0264 18.8214 19.0181 18.452C19.0138 18.219 18.9844 17.9762 18.931 17.7285C18.7641 16.9811 18.3671 16.3049 17.7837 15.7752C17.3863 15.4153 16.9224 15.137 16.4052 14.9485C15.5764 14.6424 14.6656 14.5869 13.7696 14.7856C12.8754 14.9853 12.0748 15.4222 11.4549 16.049C11.0677 16.4405 10.7654 16.8899 10.5565 17.385Z" fill="#3B4D57"/>
<path d="M18.0226 15.8675C17.938 15.8675 17.8533 15.8376 17.7854 15.7768C17.6389 15.6457 17.6263 15.4211 17.7569 15.2746C17.8243 15.1986 19.3189 13.474 18.0551 11.7781C17.5629 12.1895 16.5465 13.2237 16.8725 14.5277C16.9202 14.7183 16.8041 14.9116 16.6134 14.9593C16.4218 15.0066 16.2293 14.8909 16.1816 14.7001C15.635 12.5138 17.8219 11.0508 17.9155 10.9896C18.0615 10.8941 18.2555 10.9181 18.3735 11.047C20.0217 12.8484 19.0385 14.9102 18.2885 15.7488C18.2177 15.8273 18.1204 15.8675 18.0226 15.8675Z" fill="#3B4D57"/>
<path d="M10.2283 17.6023C10.1818 17.6023 10.1343 17.5933 10.089 17.5738C9.05354 17.1327 7.28781 15.6827 8.01765 13.3528C8.06989 13.1862 8.2349 13.0803 8.40799 13.1069C8.51839 13.1225 11.1184 13.5195 11.5515 15.7297C11.5893 15.9227 11.4634 16.1098 11.2704 16.1476C11.0759 16.1863 10.8903 16.0595 10.8523 15.8665C10.594 14.5483 9.23517 14.0435 8.61526 13.8799C8.44193 14.7154 8.65277 15.4607 9.24444 16.1003C9.75799 16.655 10.362 16.9164 10.3679 16.9187C10.5489 16.9957 10.6331 17.2051 10.556 17.386C10.4983 17.5211 10.3667 17.6023 10.2283 17.6023Z" fill="#3B4D57"/>
<path d="M16.5068 18.2525C16.3646 18.2525 16.2241 18.2119 16.0999 18.1331C15.928 18.0238 15.8095 17.8546 15.7663 17.6563C15.7217 17.4564 15.7573 17.2517 15.867 17.0801C15.9767 16.9082 16.1474 16.7897 16.3478 16.7467C16.7521 16.6553 17.1607 16.9122 17.2543 17.322C17.3438 17.7377 17.0831 18.1447 16.6742 18.2337C16.6187 18.2463 16.5629 18.2525 16.5068 18.2525ZM16.5125 17.441C16.509 17.441 16.5054 17.4414 16.5019 17.4422C16.4841 17.4462 16.4738 17.4531 16.4672 17.4635C16.4603 17.4744 16.4582 17.4873 16.4615 17.501C16.4617 17.502 16.4617 17.5029 16.462 17.5039C16.4646 17.5157 16.4715 17.5253 16.4822 17.5319C16.4902 17.5371 16.5028 17.5421 16.5192 17.5383C16.5491 17.5319 16.565 17.5048 16.5588 17.4761C16.5541 17.4564 16.5346 17.441 16.5125 17.441Z" fill="#3B4D57"/>
<path d="M12.4351 19.1592C12.2931 19.1592 12.1523 19.1188 12.0282 19.0398C11.8558 18.9303 11.7371 18.7605 11.6939 18.5618C11.6492 18.3648 11.6846 18.1599 11.794 17.9875C11.9028 17.8161 12.0728 17.6969 12.2722 17.652C12.682 17.5615 13.0892 17.8218 13.182 18.2287C13.1823 18.2301 13.1828 18.2313 13.1828 18.2325C13.2257 18.4305 13.1894 18.634 13.0807 18.8054C12.971 18.9785 12.8005 19.0975 12.6013 19.1404C12.5465 19.1528 12.4907 19.1592 12.4351 19.1592ZM12.437 18.3462C12.4334 18.3462 12.4299 18.3467 12.4263 18.3474C12.4106 18.351 12.4004 18.3617 12.3954 18.3697C12.3883 18.3809 12.3862 18.394 12.3895 18.4077C12.3926 18.4225 12.3995 18.4319 12.4102 18.4388C12.418 18.4438 12.4311 18.4483 12.447 18.4452C12.4733 18.4395 12.4911 18.4082 12.4873 18.3852C12.4809 18.3619 12.4598 18.3462 12.437 18.3462Z" fill="#3B4D57"/>
<path d="M14.6463 20.2165C14.2099 20.2165 13.8645 20.0106 13.7895 19.6759C13.7538 19.518 13.7864 19.3487 13.8811 19.1996C14.0247 18.9733 14.3116 18.7934 14.6482 18.7186C15.228 18.588 15.7371 18.8043 15.8306 19.2205C15.8662 19.3788 15.8335 19.5486 15.7385 19.6982C15.5944 19.9254 15.3078 20.1056 14.9716 20.1804C14.8598 20.2049 14.7506 20.2165 14.6463 20.2165ZM14.5784 19.5002C14.6399 19.5071 14.7214 19.5061 14.8182 19.4847C14.9158 19.4631 14.9904 19.4297 15.0431 19.3971C14.9823 19.3902 14.9006 19.3919 14.8037 19.4135C14.7062 19.4351 14.6314 19.4684 14.5784 19.5002Z" fill="#3B4D57"/>
<path d="M15.6744 21.2026C15.4778 21.2026 15.2843 21.1468 15.1141 21.0383C14.8774 20.8877 14.7136 20.6536 14.653 20.3794C14.6105 20.1873 14.7316 19.9974 14.9237 19.9547C15.1167 19.9141 15.3059 20.0335 15.3484 20.2256C15.3682 20.3139 15.4206 20.3892 15.4966 20.4376C15.5723 20.4853 15.6616 20.5007 15.7495 20.482C15.9062 20.4476 16.0144 20.3125 16.0144 20.1529C16.0144 20.1192 16.0106 20.0969 16.0078 20.0841L15.9446 19.8003C15.9019 19.608 16.0232 19.4181 16.2153 19.3753C16.4078 19.3347 16.5973 19.4542 16.64 19.646L16.7018 19.924C16.7179 19.9912 16.7267 20.0703 16.7267 20.1532C16.7267 20.6503 16.3881 21.0715 15.9031 21.1774C15.8271 21.1943 15.7504 21.2026 15.6744 21.2026Z" fill="#3B4D57"/>
<path d="M14.3218 21.5032C13.8249 21.5032 13.4035 21.1644 13.2974 20.6795L13.2359 20.4027C13.1931 20.2106 13.3145 20.0204 13.5063 19.9779C13.6979 19.9352 13.8885 20.0563 13.9313 20.2484L13.993 20.5262C14.0272 20.6824 14.1625 20.7909 14.3221 20.7909C14.356 20.7909 14.3786 20.7871 14.3919 20.784C14.5785 20.7425 14.6937 20.5613 14.6535 20.379L14.5469 19.9105C14.5032 19.7187 14.6236 19.528 14.8152 19.4843C15.0071 19.4414 15.198 19.5608 15.2414 19.7529L15.3482 20.2232C15.4736 20.7902 15.116 21.3522 14.5514 21.4782C14.4831 21.4944 14.4042 21.5032 14.3218 21.5032Z" fill="#3B4D57"/>
<path d="M7.79242 20.9574C7.60414 20.9574 7.44672 20.8097 7.43699 20.6193C7.42702 20.423 7.57802 20.2556 7.77437 20.2456L11.6917 20.0438C11.884 20.0355 12.0554 20.1843 12.0658 20.3809C12.0761 20.5773 11.925 20.7449 11.7287 20.7551L7.81094 20.9569C7.80476 20.9572 7.79859 20.9574 7.79242 20.9574Z" fill="#3B4D57"/>
<path d="M8.52371 22.4889C8.36606 22.4889 8.22194 22.3837 8.17968 22.2241C8.12934 22.0339 8.2426 21.839 8.43254 21.7884L11.7942 20.896C11.9835 20.8437 12.1794 20.9582 12.2299 21.1486C12.2805 21.3388 12.1675 21.5337 11.9773 21.5843L8.61512 22.4772C8.58473 22.485 8.55386 22.4889 8.52371 22.4889Z" fill="#3B4D57"/>
<path d="M18.0205 19.3501C17.88 19.3501 17.7468 19.2665 17.6905 19.1284C17.6162 18.946 17.7038 18.7383 17.8862 18.6642L21.5185 17.185C21.7009 17.1109 21.9086 17.1986 21.9827 17.3807C22.057 17.5628 21.9694 17.7708 21.7873 17.8448L18.1547 19.324C18.1108 19.3418 18.0654 19.3501 18.0205 19.3501Z" fill="#3B4D57"/>
<path d="M18.217 20.1857C18.0482 20.1857 17.8981 20.0649 17.867 19.893C17.8321 19.6992 17.9608 19.514 18.1541 19.4791L21.5778 18.8618C21.7701 18.8281 21.9565 18.9556 21.9914 19.1494C22.0263 19.3429 21.8976 19.5281 21.7041 19.563L18.2806 20.1803C18.2593 20.1838 18.2379 20.1857 18.217 20.1857Z" fill="#3B4D57"/>
<path d="M23.5646 29.88H20.7298C20.4838 29.88 20.2684 29.7229 20.1934 29.489C20.1184 29.2547 20.2032 29.0004 20.4043 28.8567L21.5425 28.0466L21.9741 26.8704L18.5348 26.3999C19.0205 27.4616 18.5951 28.422 18.5728 28.4709C18.5606 28.4975 18.5452 28.5224 18.5272 28.5452L17.568 29.7466C17.5003 29.8311 17.398 29.8805 17.2897 29.8805H14.7991C14.536 29.8805 14.3005 29.7338 14.1842 29.4978C14.0681 29.2618 14.0956 28.9859 14.2559 28.7779L15.0517 27.7394C12.6796 25.5294 12.8218 22.9802 12.8294 22.8691C12.8427 22.6727 13.0151 22.5208 13.2088 22.5381C13.4047 22.5514 13.5529 22.7205 13.5403 22.9163C13.5341 23.0172 13.4152 25.4072 15.7671 27.4236C15.9107 27.5469 15.9331 27.7605 15.8179 27.9106L14.854 29.1685H17.1185L17.9391 28.1407C18.0117 27.9502 18.3009 27.0354 17.5449 26.1776C17.4466 26.0658 17.4279 25.9051 17.4984 25.7738C17.5687 25.6427 17.7128 25.57 17.8605 25.5893L22.5093 26.2256C22.6161 26.2401 22.7106 26.3025 22.7659 26.3949C22.8215 26.4875 22.8322 26.5998 22.7951 26.7011L22.1731 28.3966C22.1484 28.464 22.1037 28.5224 22.0453 28.564L21.1956 29.1689H23.4547C23.7712 28.9391 24.9066 27.9987 24.9066 26.3388C24.9066 24.3454 24.1708 22.9531 24.1634 22.9394C24.1114 22.8427 24.1071 22.7271 24.1513 22.6269C24.1957 22.5265 24.2838 22.4519 24.3902 22.4249C24.4317 22.4144 28.5487 21.3455 29.4799 18.2056C29.7854 17.1742 29.6997 16.2202 29.2253 15.3698C28.628 14.2987 27.5826 13.6924 26.8694 13.4984C25.5554 13.1434 24.2031 13.3006 23.2522 13.9196C22.5596 14.3704 22.1263 15.0483 21.9988 15.8798C21.9727 16.049 22.0482 16.2221 22.1914 16.3211C22.3048 16.3992 22.425 16.4232 22.5439 16.3995C22.671 16.3738 22.7802 16.2976 22.8514 16.1856C23.5138 15.1523 24.4934 14.6881 25.6115 14.8762C26.4458 15.0158 27.1229 15.5578 27.4691 16.3636C27.8288 17.2006 27.7478 18.1716 27.2578 18.8979C26.3097 20.3009 22.8896 21.2707 22.7446 21.3113C22.7099 21.3211 22.6738 21.3268 22.6377 21.3244L18.6537 21.2033C18.4571 21.1974 18.3026 21.0331 18.3085 20.8365C18.3144 20.6399 18.4823 20.4801 18.6753 20.4915L22.6045 20.6109C23.5632 20.3358 26.0142 19.4663 26.6675 18.4995C27.0232 17.9724 27.0795 17.2618 26.8147 16.645C26.5662 16.0661 26.0844 15.6777 25.4937 15.5789C24.6513 15.4358 23.9642 15.7701 23.4519 16.569C23.279 16.8411 22.9993 17.0341 22.6857 17.0977C22.3754 17.1607 22.0612 17.0966 21.8008 16.9168C21.42 16.654 21.2272 16.2081 21.2948 15.7713C21.4539 14.7344 21.9964 13.8875 22.8635 13.3231C23.982 12.5952 25.549 12.4038 27.0557 12.8113C27.9031 13.0416 29.1425 13.7588 29.8476 15.0231C30.4108 16.0329 30.5198 17.2034 30.1629 18.4083C29.2906 21.3503 26.1174 22.625 24.9728 22.9959C25.2171 23.5842 25.6191 24.7873 25.6191 26.3393C25.6191 28.63 23.8308 29.7794 23.7548 29.8271C23.6973 29.861 23.6316 29.88 23.5646 29.88Z" fill="#3B4D57"/>
<path d="M37.4207 16.7789C37.3511 16.7789 37.282 16.7585 37.2222 16.7183L18.8896 4.41042L0.554628 16.7183C0.445412 16.7917 0.304854 16.7988 0.188516 16.7368C0.0724145 16.6751 0 16.5543 0 16.4227V12.7996C0 12.6809 0.0591194 12.57 0.157651 12.504L18.6911 0.0605436C18.811 -0.0201812 18.9682 -0.0201812 19.0881 0.0605436L37.6192 12.504C37.7177 12.57 37.7768 12.6809 37.7768 12.7996V16.4227C37.7768 16.5543 37.7044 16.6751 37.5883 16.7368C37.5356 16.7651 37.4781 16.7789 37.4207 16.7789ZM0.712277 12.9896V15.7546L5.1056 12.8053L18.6911 3.68579C18.8112 3.60507 18.9679 3.60507 19.0881 3.68579L37.0645 15.7546V12.9896L18.8896 0.785167L0.712277 12.9896Z" fill="#3B4D57"/>
<path d="M18.8891 31.9996H5.30365C5.10682 31.9996 4.94751 31.8401 4.94751 31.6435V13.1005C4.94751 12.9039 5.10682 12.7444 5.30365 12.7444C5.50047 12.7444 5.65979 12.9039 5.65979 13.1005V31.2873H18.8891C19.086 31.2873 19.2453 31.4469 19.2453 31.6435C19.2453 31.8403 19.086 31.9996 18.8891 31.9996Z" fill="#3B4D57"/>
<path d="M32.4727 31.9996H18.8896C18.6928 31.9996 18.5334 31.8401 18.5334 31.6435C18.5334 31.4469 18.6928 31.2873 18.8896 31.2873H32.1166V13.1005C32.1166 12.9039 32.2759 12.7444 32.4727 12.7444C32.6695 12.7444 32.8289 12.9039 32.8289 13.1005V31.6435C32.8289 31.8403 32.6695 31.9996 32.4727 31.9996Z" fill="#3B4D57"/>
</svg>
