<svg width="30" height="33" viewBox="0 0 30 33" fill="none" xmlns="http://www.w3.org/2000/svg">
<path d="M28.3189 3.35388C29.3832 6.75963 25.9043 8.24277 25.9043 8.24277H25.902C25.6159 7.55613 25.1879 6.91984 24.6477 6.37282C25.1512 3.80936 28.3189 3.35388 28.3189 3.35388Z" fill="#E9E5D9"/>
<path d="M19.8827 11.5773C20.3634 11.6849 20.8005 11.5498 20.8623 11.2775C20.9218 11.0028 20.5831 10.6961 20.1024 10.5885C19.6241 10.4833 19.1869 10.616 19.1251 10.8907C19.0633 11.163 19.4044 11.4697 19.8827 11.5773ZM14.3072 11.3439C14.163 10.8426 14.092 10.3185 14.1035 9.78747C14.1081 9.44872 14.147 9.10769 14.2248 8.76437C14.4697 7.66803 15.0488 6.72504 15.8476 6.00407C16.3992 5.50282 17.056 5.10915 17.777 4.84364C18.8894 4.43624 20.1551 4.33324 21.4323 4.61705C22.7094 4.90086 23.8126 5.53257 24.648 6.37257C25.1882 6.91959 25.6162 7.55588 25.9023 8.24252C26.3211 9.23586 26.4447 10.3345 26.1998 11.4331C26.1243 11.7742 26.0144 12.0992 25.8771 12.4082C25.662 12.8934 25.3759 13.3374 25.0325 13.7311C24.2795 14.594 23.2518 15.2211 22.0914 15.5278C21.1233 15.7864 20.0613 15.8185 18.9924 15.5804C17.2758 15.1982 15.875 14.1911 15.019 12.8865C14.7032 12.4082 14.4628 11.8886 14.3072 11.3439ZM23.5631 9.84011C23.6272 9.55858 23.4487 9.27706 23.1672 9.21526C22.8834 9.15118 22.6041 9.3297 22.5423 9.61123C22.4782 9.89504 22.6568 10.1743 22.9383 10.2384C23.2221 10.3002 23.5013 10.1216 23.5631 9.84011ZM18.3103 8.67053C18.3721 8.38671 18.1959 8.10748 17.9121 8.04568C17.6305 7.9816 17.3513 8.16012 17.2872 8.44165C17.2254 8.72546 17.4017 9.00469 17.6855 9.06878C17.967 9.13058 18.2485 8.95205 18.3103 8.67053Z" fill="#E9E5D9"/>
<path d="M23.1664 9.21543C23.448 9.27723 23.6265 9.55875 23.5624 9.84027C23.5006 10.1218 23.2214 10.3003 22.9376 10.2385C22.656 10.1744 22.4775 9.89521 22.5416 9.61139C22.6034 9.32987 22.8826 9.15134 23.1664 9.21543Z" fill="#3B4D57"/>
<path d="M22.0911 15.528C22.0911 15.528 22.32 18.9269 19.0561 21.7238L20.3424 23.4015C20.5576 23.6807 20.3585 24.0835 20.006 24.0835H17.9781V17.9335C17.9781 17.4002 17.5455 16.9676 17.0122 16.9676H6.91629C7.19782 15.9606 7.52054 15.3678 7.52054 15.3678C7.52054 15.3678 1.91296 13.9693 0.622074 9.60912C-0.487998 5.86463 2.35928 3.48885 4.31163 2.96014C7.28937 2.15448 10.686 3.25082 11.1712 6.40937C11.2307 6.80076 11.0568 7.19672 10.7295 7.42331L10.7111 7.43704C10.2168 7.77579 9.55072 7.62244 9.228 7.1189C8.71531 6.31324 7.74942 5.36338 6.12894 5.63575C4.07817 5.97907 3.20385 8.47616 4.31163 10.115C5.45375 11.8064 9.87801 13.0446 9.87801 13.0446L15.0187 12.8867C15.8747 14.1913 17.2754 15.1984 18.992 15.5806C20.0609 15.8187 21.1229 15.7866 22.0911 15.528Z" fill="#E9E5D9"/>
<path d="M20.1027 10.5888C20.5834 10.6964 20.9221 11.0031 20.8626 11.2777C20.8008 11.5501 20.3636 11.6851 19.883 11.5775C19.4046 11.47 19.0636 11.1633 19.1254 10.8909C19.1872 10.6162 19.6243 10.4835 20.1027 10.5888Z" fill="#3B4D57"/>
<path d="M17.9116 8.04587C18.1954 8.10767 18.3717 8.38691 18.3099 8.67072C18.2481 8.95224 17.9665 9.13077 17.685 9.06897C17.4012 9.00489 17.225 8.72565 17.2867 8.44184C17.3508 8.16031 17.6301 7.98179 17.9116 8.04587Z" fill="#3B4D57"/>
<path d="M17.9782 24.0836V30.8996C17.9782 31.4329 17.5456 31.8655 17.0123 31.8655H4.04621C3.51291 31.8655 3.08032 31.4329 3.08032 30.8996V17.9335C3.08032 17.4002 3.51291 16.9677 4.04621 16.9677H6.91637H17.0123C17.5456 16.9677 17.9782 17.4002 17.9782 17.9335V24.0836ZM15.33 26.0084V22.8796H12.0936V19.6433H8.96485V22.8796H5.72847V26.0084H8.96485V29.2448H12.0936V26.0084H15.33Z" fill="#E9E5D9"/>
<path d="M15.7353 0.552246C15.7353 0.552246 18.4109 2.30776 17.7769 4.84376C17.0559 5.10926 16.399 5.50293 15.8474 6.00418C15.8474 6.00418 13.3229 3.18437 15.7353 0.552246Z" fill="#E9E5D9"/>
<path d="M15.3301 22.8797V26.0085H12.0937V29.2449H8.96489V26.0085H5.72852V22.8797H8.96489V19.6433H12.0937V22.8797H15.3301Z" fill="#9DBF9F"/>
<path d="M20.4462 16.0846C19.9364 16.0846 19.4226 16.0283 18.9175 15.9159C17.164 15.5255 15.6774 14.5166 14.7317 13.0751C14.3959 12.5665 14.1416 12.0156 13.9768 11.4383C13.821 10.8966 13.748 10.3386 13.7601 9.78032C13.7649 9.41503 13.8086 9.04699 13.8899 8.68856C14.1423 7.55835 14.7397 6.54166 15.6172 5.74928C16.2016 5.21827 16.8884 4.80491 17.6582 4.52156C18.8756 4.0757 20.2061 3.99308 21.5066 4.28215C22.805 4.57077 23.9755 5.2098 24.8912 6.13082C25.4685 6.71538 25.915 7.3812 26.219 8.11064C26.6781 9.20034 26.7873 10.375 26.5346 11.5081C26.457 11.8593 26.3412 12.2092 26.1906 12.5477C25.9645 13.0577 25.6617 13.5317 25.2909 13.9569C24.4893 14.8757 23.4131 15.5337 22.1788 15.8599C21.6192 16.0098 21.0351 16.0846 20.4462 16.0846ZM19.9776 4.80011C19.2642 4.80011 18.5604 4.92279 17.8948 5.16655C17.2091 5.41923 16.5977 5.78658 16.0782 6.25854C15.3059 6.95571 14.7811 7.84789 14.5596 8.83963C14.4886 9.15228 14.4506 9.47248 14.4465 9.79268C14.436 10.2843 14.5001 10.7737 14.6369 11.2495C14.7827 11.7599 15.0077 12.247 15.3053 12.6981C16.153 13.9901 17.4888 14.8947 19.0669 15.246C20.0486 15.4648 21.0637 15.4476 22.0028 15.1968C23.1048 14.9054 24.0627 14.3209 24.7738 13.506C25.0993 13.1327 25.365 12.7166 25.5635 12.2696C25.6955 11.9725 25.7967 11.6665 25.8647 11.3596C26.0862 10.3658 25.9899 9.33446 25.5859 8.3766C25.5859 8.37614 25.5857 8.37568 25.5854 8.37523C25.3156 7.72749 24.918 7.13515 24.4037 6.61445C23.5816 5.78773 22.5281 5.21278 21.3578 4.95277C20.8989 4.85069 20.4363 4.80011 19.9776 4.80011Z" fill="#3B4D57"/>
<path d="M15.8472 6.34752C15.7532 6.34752 15.6596 6.30884 15.5916 6.23331C15.5643 6.20287 12.8896 3.14914 15.4822 0.320402C15.5959 0.19612 15.7829 0.173004 15.9237 0.265243C16.0413 0.342375 18.7952 2.18601 18.11 4.92708C18.064 5.11088 17.8779 5.2228 17.6936 5.17679C17.5096 5.13079 17.3979 4.94448 17.4439 4.76046C17.9037 2.9214 16.3943 1.50211 15.7877 1.01849C15.0452 1.94981 14.8498 2.99854 15.2073 4.13997C15.5069 5.09714 16.0976 5.76868 16.1036 5.77555C16.2295 5.91699 16.2171 6.13397 16.0757 6.26009C16.0102 6.31868 15.9285 6.34752 15.8472 6.34752Z" fill="#3B4D57"/>
<path d="M25.9044 8.58644C25.7709 8.58644 25.6441 8.50817 25.5885 8.3777C25.5141 8.20353 25.5952 8.00188 25.7693 7.9275C25.7778 7.92383 26.5967 7.56609 27.2738 6.82658C28.081 5.9447 28.3495 4.91268 28.0739 3.75523C27.3191 3.93788 25.3487 4.58721 24.985 6.43931C24.9486 6.62539 24.7687 6.74716 24.5819 6.71008C24.3958 6.67346 24.2748 6.4931 24.3111 6.30702C24.8552 3.53642 28.1312 3.03448 28.2703 3.01434C28.436 2.99054 28.5965 3.09102 28.6468 3.25192C29.7905 6.91172 26.0767 8.54295 26.039 8.55898C25.995 8.57729 25.9495 8.58644 25.9044 8.58644Z" fill="#3B4D57"/>
<path d="M17.799 9.42476C17.7367 9.42476 17.674 9.41812 17.6117 9.40439C17.1453 9.29911 16.85 8.83494 16.9517 8.36871C17.0588 7.89882 17.5229 7.60539 17.9883 7.71113C18.4513 7.81184 18.7477 8.27532 18.6458 8.74384L18.6456 8.74453C18.5959 8.97043 18.4607 9.16361 18.2645 9.28835C18.1228 9.3783 17.9624 9.42476 17.799 9.42476ZM17.7967 8.37672C17.7527 8.37672 17.7198 8.39274 17.7019 8.40418C17.6609 8.43028 17.6324 8.47079 17.6216 8.5184C17.6005 8.61544 17.6612 8.7118 17.7607 8.73423C17.8221 8.74819 17.8718 8.72439 17.8958 8.70928C17.9194 8.69418 17.961 8.65961 17.9747 8.59759C17.9963 8.4978 17.9365 8.40304 17.8388 8.38176C17.8239 8.37809 17.8097 8.37672 17.7967 8.37672Z" fill="#3B4D57"/>
<path d="M23.0503 10.5943C22.9889 10.5943 22.9269 10.5879 22.8646 10.5744C22.3959 10.4678 22.1022 10.0029 22.2066 9.53738C22.2565 9.31147 22.3915 9.11876 22.5868 8.99447C22.7827 8.86996 23.0152 8.82968 23.2423 8.88095C23.4664 8.93016 23.6595 9.06543 23.784 9.26158C23.9086 9.45796 23.9488 9.69073 23.8973 9.91686C23.809 10.3183 23.449 10.5943 23.0503 10.5943ZM23.0503 9.54631C23.0162 9.54631 22.9834 9.55569 22.9548 9.574C22.9148 9.59964 22.8871 9.63923 22.877 9.68547C22.8768 9.68615 22.8768 9.68661 22.8765 9.6873C22.8546 9.78457 22.9161 9.88185 23.0136 9.90405C23.1084 9.92419 23.2059 9.86354 23.227 9.76695C23.2418 9.70195 23.2189 9.65296 23.2038 9.62962C23.189 9.60604 23.1549 9.56484 23.0926 9.55111C23.0786 9.54791 23.0642 9.54631 23.0503 9.54631Z" fill="#3B4D57"/>
<path d="M20.211 11.9587C20.0824 11.9587 19.9467 11.9439 19.8075 11.9127C19.4029 11.8219 19.0605 11.6081 18.892 11.341C18.7856 11.1725 18.7505 10.9906 18.7904 10.815C18.8961 10.3447 19.4919 10.103 20.1763 10.2536C20.8615 10.4067 21.3001 10.8784 21.1977 11.3504C21.1975 11.3515 21.1973 11.3527 21.1971 11.3538C21.1117 11.7296 20.715 11.9587 20.211 11.9587ZM19.4672 10.967C19.5024 11.0327 19.6656 11.1769 19.9579 11.2428C20.2509 11.3083 20.4591 11.2467 20.5193 11.2014C20.4848 11.1348 20.3223 10.9901 20.0275 10.924C19.7336 10.8594 19.5258 10.9219 19.4672 10.967Z" fill="#3B4D57"/>
<path d="M18.8758 13.2314C18.7853 13.2314 18.6945 13.2213 18.6038 13.2012C18.033 13.0728 17.6348 12.5754 17.6348 11.9917C17.6348 11.9048 17.6439 11.8185 17.6625 11.7281L17.7439 11.363C17.7854 11.1779 17.9689 11.0616 18.1536 11.1028C18.3388 11.144 18.4553 11.3275 18.4139 11.5125L18.3338 11.8718C18.326 11.9105 18.3214 11.9515 18.3214 11.9915C18.3214 12.2518 18.4992 12.4735 18.754 12.531C18.897 12.563 19.0449 12.5369 19.1694 12.4578C19.2939 12.3786 19.38 12.2557 19.4123 12.1115C19.4535 11.9263 19.6368 11.8102 19.8222 11.851C20.0073 11.8922 20.1238 12.0757 20.0826 12.2607C20.0105 12.5836 19.8174 12.8594 19.5381 13.037C19.3369 13.1655 19.1085 13.2314 18.8758 13.2314Z" fill="#3B4D57"/>
<path d="M20.6215 13.6191C20.5338 13.6191 20.4473 13.6099 20.3574 13.5914C20.0292 13.5184 19.7536 13.325 19.576 13.0457C19.3984 12.7665 19.3402 12.4348 19.4121 12.1117L19.5471 11.5031C19.5881 11.3181 19.7719 11.2009 19.9566 11.2421C20.1418 11.2831 20.2585 11.4664 20.2175 11.6516L20.0825 12.2604C20.0505 12.4046 20.0763 12.5525 20.1555 12.677C20.2347 12.8015 20.3576 12.8876 20.5018 12.9198C20.5405 12.9278 20.5815 12.9322 20.6217 12.9322C20.882 12.9322 21.1038 12.7544 21.1612 12.4998L21.2413 12.1412C21.2827 11.956 21.4665 11.8397 21.651 11.8807C21.8362 11.9219 21.9527 12.1055 21.9115 12.2904L21.8314 12.6498C21.7023 13.221 21.2052 13.6191 20.6215 13.6191Z" fill="#3B4D57"/>
<path d="M29.0476 12.9167C29.0417 12.9167 29.0355 12.9167 29.0293 12.9163L23.9761 12.6554C23.7868 12.6457 23.6412 12.4844 23.6508 12.2949C23.6605 12.1054 23.8193 11.9593 24.0113 11.9696L29.0652 12.2306C29.2545 12.2404 29.4001 12.402 29.3903 12.5913C29.3806 12.7744 29.2291 12.9167 29.0476 12.9167Z" fill="#3B4D57"/>
<path d="M28.1046 14.892C28.0755 14.892 28.0458 14.8881 28.016 14.8803L23.6787 13.7268C23.4954 13.678 23.3865 13.4899 23.4352 13.3068C23.484 13.1237 23.6726 13.0145 23.8552 13.0633L28.1927 14.2168C28.3758 14.2656 28.485 14.4537 28.4363 14.6368C28.3953 14.7906 28.2564 14.892 28.1046 14.892Z" fill="#3B4D57"/>
<path d="M15.8497 10.843C15.8066 10.843 15.7627 10.8348 15.7204 10.8176L11.0331 8.90872C10.8573 8.83731 10.7731 8.63682 10.8445 8.46126C10.9159 8.28571 11.1166 8.20103 11.292 8.27267L15.9794 10.1815C16.1552 10.2532 16.2395 10.4534 16.1678 10.629C16.1133 10.7624 15.9849 10.843 15.8497 10.843Z" fill="#3B4D57"/>
<path d="M15.5937 11.919C15.5735 11.919 15.5529 11.9172 15.5326 11.9135L11.117 11.117C10.9305 11.0834 10.8064 10.9046 10.8403 10.7181C10.8739 10.5313 11.0529 10.4084 11.2392 10.4414L15.6541 11.2379C15.8406 11.2715 15.9649 11.4501 15.9313 11.6366C15.9013 11.8023 15.7566 11.919 15.5937 11.919Z" fill="#3B4D57"/>
<path d="M6.91668 17.3113C6.88601 17.3113 6.8551 17.3072 6.82397 17.2985C6.64133 17.2475 6.53466 17.0579 6.5857 16.8753C6.74363 16.3109 6.91393 15.8716 7.03821 15.5853C6.50057 15.4162 5.48593 15.0516 4.38502 14.4217C2.26146 13.2063 0.846523 11.576 0.293089 9.70674C-0.15895 8.18194 -0.0216164 6.70154 0.690432 5.42576C1.58352 3.82543 3.15135 2.91883 4.22228 2.62884C6.13458 2.11134 8.12105 2.35281 9.53622 3.27382C10.6275 3.98427 11.3103 5.0504 11.511 6.35731C11.5897 6.87595 11.3599 7.40489 10.9253 7.70564L10.9175 7.71182C10.5957 7.93292 10.2219 8.00822 9.85389 7.93384C9.48081 7.85808 9.14734 7.62874 8.93951 7.30418C8.46916 6.5649 7.61086 5.73475 6.18631 5.97439C5.38408 6.10851 4.73108 6.63562 4.39463 7.41977C4.0378 8.25152 4.11517 9.21053 4.59651 9.92281C5.5942 11.4 9.44031 12.5595 9.92164 12.6998L15.0085 12.5435C15.1969 12.5419 15.3564 12.6868 15.3621 12.8763C15.3679 13.0658 15.2191 13.2242 15.0294 13.2299L9.88869 13.3878C9.85459 13.3883 9.81911 13.3846 9.78569 13.3752C9.60007 13.3233 5.22639 12.0825 4.02728 10.3071C3.41663 9.40348 3.31523 8.19339 3.76338 7.14923C4.1939 6.14582 5.03549 5.47085 6.07255 5.29713C7.47307 5.06184 8.69645 5.64365 9.5179 6.93454C9.62708 7.10506 9.79508 7.22133 9.99008 7.2607C10.1746 7.29778 10.362 7.26001 10.5174 7.15381L10.5238 7.14855C10.7548 6.98833 10.8717 6.72145 10.8321 6.46076C10.6618 5.35321 10.0842 4.44981 9.16153 3.84923C7.9075 3.03281 6.12794 2.82453 4.40173 3.29145C3.45965 3.54665 2.07928 4.34636 1.2901 5.76015C0.661363 6.88648 0.547608 8.14875 0.951583 9.51151C1.58444 11.6488 3.34521 13.0324 4.71095 13.8168C6.21652 14.6812 7.59049 15.0314 7.60423 15.0349C7.70722 15.0605 7.79237 15.1326 7.83494 15.2299C7.87774 15.3269 7.87316 15.4386 7.82257 15.5318C7.81937 15.5373 7.51313 16.1088 7.24717 17.0602C7.2046 17.212 7.06682 17.3113 6.91668 17.3113Z" fill="#3B4D57"/>
<path d="M20.006 24.4271H17.9781C17.7883 24.4271 17.6348 24.2735 17.6348 24.0837C17.6348 23.894 17.7883 23.7404 17.9781 23.7404H20.006C20.0483 23.7404 20.0691 23.7159 20.0792 23.6953C20.0939 23.666 20.0906 23.6377 20.0705 23.6113L18.7838 21.933C18.6727 21.7883 18.6943 21.5821 18.8327 21.4633C21.9302 18.8092 21.7507 15.5836 21.7487 15.5513C21.7359 15.3622 21.8789 15.1984 22.0682 15.1858C22.2572 15.1716 22.4211 15.316 22.4337 15.5053C22.4433 15.6474 22.6264 18.939 19.5235 21.7693L20.615 23.1929C20.7942 23.4257 20.8254 23.7345 20.6956 23.9986C20.5654 24.2627 20.3012 24.4271 20.006 24.4271Z" fill="#3B4D57"/>
<path d="M17.0119 32.2089H4.04578C3.32389 32.2089 2.73657 31.6216 2.73657 30.8997V17.9336C2.73657 17.2117 3.32389 16.6244 4.04578 16.6244H17.0119C17.7338 16.6244 18.3211 17.2117 18.3211 17.9336V30.8997C18.3211 31.6216 17.7338 32.2089 17.0119 32.2089ZM4.04578 17.311C3.70269 17.311 3.42321 17.5903 3.42321 17.9336V30.8997C3.42321 31.243 3.70246 31.5222 4.04578 31.5222H17.0119C17.3552 31.5222 17.6344 31.243 17.6344 30.8997V17.9336C17.6344 17.5905 17.3552 17.311 17.0119 17.311H4.04578Z" fill="#3B4D57"/>
<path d="M12.0942 29.588H8.96544C8.7757 29.588 8.62212 29.4344 8.62212 29.2447V26.3516H5.72906C5.53932 26.3516 5.38574 26.198 5.38574 26.0083V22.8795C5.38574 22.6898 5.53932 22.5362 5.72906 22.5362H8.62212V19.6431C8.62212 19.4534 8.7757 19.2998 8.96544 19.2998H12.0942C12.284 19.2998 12.4376 19.4534 12.4376 19.6431V22.5362H15.3306C15.5204 22.5362 15.6739 22.6898 15.6739 22.8795V26.0083C15.6739 26.198 15.5204 26.3516 15.3306 26.3516H12.4376V29.2447C12.4376 29.4342 12.284 29.588 12.0942 29.588ZM9.30876 28.9014H11.7509V26.0083C11.7509 25.8186 11.9045 25.665 12.0942 25.665H14.9873V23.2228H12.0942C11.9045 23.2228 11.7509 23.0692 11.7509 22.8795V19.9864H9.30876V22.8795C9.30876 23.0692 9.15518 23.2228 8.96544 23.2228H6.07238V25.665H8.96544C9.15518 25.665 9.30876 25.8186 9.30876 26.0083V28.9014Z" fill="#3B4D57"/>
</svg>
