<svg width="19" height="32" viewBox="0 0 19 32" fill="none" xmlns="http://www.w3.org/2000/svg">
<path d="M15.6148 1.05337V6.29902C15.6148 6.662 15.3284 6.95346 14.9724 6.95346H13.1274H5.86877H4.02383C3.66747 6.95346 3.38135 6.66174 3.38135 6.29902V1.05337C3.38135 0.69038 3.66773 0.398926 4.02383 0.398926H14.9724C15.3284 0.398926 15.6148 0.690646 15.6148 1.05337Z" fill="#9DBF9F"/>
<path d="M18.6073 29.8316C18.6073 30.8102 17.828 31.6008 16.8673 31.6008H9.49722H2.12711C1.16639 31.6008 0.390259 30.8102 0.390259 29.8316V14.6196C0.390259 13.9197 0.717885 13.2652 1.27447 12.857L5.86764 8.70648V6.95349H13.1263V8.70648L17.7194 12.857C18.276 13.2652 18.6068 13.9197 18.6068 14.6196V29.8316H18.6073ZM14.2434 22.3245V18.8545H11.1994V15.7538H7.7956V18.8545H4.7516V22.3245H7.7956V25.4252H11.1991V22.3245H14.2434Z" fill="#E9E5D9"/>
<path d="M14.2448 18.8537V22.3241H11.2005V25.4248H7.79706V22.3241H4.75305V18.8537H7.79706V15.7531H11.2005V18.8537H14.2448Z" fill="#9DBF9F"/>
<path d="M14.9728 7.35231H4.02431C3.45388 7.35231 2.99023 6.87976 2.99023 6.29898V1.05333C2.99023 0.47255 3.45415 0 4.02431 0H14.9728C15.5433 0 16.0069 0.47255 16.0069 1.05333V6.29898C16.0069 6.87976 15.543 7.35231 14.9728 7.35231ZM4.02431 0.79751C3.8836 0.79751 3.77343 0.90973 3.77343 1.05306V6.29871C3.77343 6.44205 3.8836 6.55427 4.02431 6.55427H14.9728C15.1136 6.55427 15.2237 6.44205 15.2237 6.29871V1.05306C15.2237 0.90973 15.1136 0.79751 14.9728 0.79751H4.02431Z" fill="#3B4D57"/>
<path d="M16.8684 31.9997H2.12846C0.954716 31.9997 0 31.0272 0 29.8316V14.6196C0 13.801 0.384805 13.0277 1.03016 12.5456L5.4774 8.52693V6.95345C5.4774 6.733 5.65257 6.55457 5.86899 6.55457C6.08541 6.55457 6.26059 6.733 6.26059 6.95345V8.70617C6.26059 8.82025 6.21255 8.92875 6.129 9.00454L1.53584 13.1551C1.52592 13.1642 1.51547 13.1724 1.50477 13.1806C1.05313 13.5117 0.783193 14.0497 0.783193 14.6193V29.8313C0.783193 30.5871 1.38652 31.2016 2.12846 31.2016H16.8684C17.6119 31.2016 18.2168 30.5871 18.2168 29.8313V14.6196C18.2168 14.0513 17.9458 13.5136 17.4921 13.1809C17.4814 13.1729 17.471 13.1644 17.461 13.1554L12.8679 9.00481C12.7841 8.92902 12.7363 8.82052 12.7363 8.70644V6.95372C12.7363 6.73327 12.9115 6.55483 13.1279 6.55483C13.3443 6.55483 13.5195 6.73327 13.5195 6.95372V8.5272L17.9667 12.5459C18.6144 13.0291 19 13.8029 19 14.6198V29.8319C19 31.0272 18.044 31.9997 16.8684 31.9997Z" fill="#3B4D57"/>
<path d="M11.2002 25.8241H7.79668C7.58026 25.8241 7.40509 25.6454 7.40509 25.4252V22.7234H4.75268C4.53626 22.7234 4.36108 22.5447 4.36108 22.3245V18.8544C4.36108 18.6343 4.53626 18.4556 4.75268 18.4556H7.40509V15.7537C7.40509 15.5336 7.58026 15.3549 7.79668 15.3549H11.2002C11.4166 15.3549 11.5918 15.5336 11.5918 15.7537V18.4556H14.2442C14.4606 18.4556 14.6358 18.6343 14.6358 18.8544V22.3245C14.6358 22.5447 14.4606 22.7234 14.2442 22.7234H11.5918V25.4252C11.5918 25.6457 11.4166 25.8241 11.2002 25.8241ZM8.18828 25.0263H10.8086V22.3245C10.8086 22.1043 10.9838 21.9256 11.2002 21.9256H13.8526V19.2533H11.2002C10.9838 19.2533 10.8086 19.0746 10.8086 18.8544V16.1526H8.18828V18.8544C8.18828 19.0746 8.01311 19.2533 7.79668 19.2533H5.14428V21.9256H7.79668C8.01311 21.9256 8.18828 22.1043 8.18828 22.3245V25.0263Z" fill="#3B4D57"/>
<path d="M14.4651 5.98165C14.2487 5.98165 14.0735 5.80321 14.0735 5.58276V1.63961C14.0735 1.41916 14.2487 1.24072 14.4651 1.24072C14.6815 1.24072 14.8567 1.41916 14.8567 1.63961V5.58276C14.8567 5.80321 14.6815 5.98165 14.4651 5.98165Z" fill="#3B4D57"/>
<path d="M12.8155 5.98165C12.5991 5.98165 12.424 5.80321 12.424 5.58276V1.63961C12.424 1.41916 12.5991 1.24072 12.8155 1.24072C13.032 1.24072 13.2071 1.41916 13.2071 1.63961V5.58276C13.2071 5.80321 13.032 5.98165 12.8155 5.98165Z" fill="#3B4D57"/>
<path d="M11.167 5.98165C10.9506 5.98165 10.7754 5.80321 10.7754 5.58276V1.63961C10.7754 1.41916 10.9506 1.24072 11.167 1.24072C11.3834 1.24072 11.5586 1.41916 11.5586 1.63961V5.58276C11.5586 5.80321 11.3831 5.98165 11.167 5.98165Z" fill="#3B4D57"/>
<path d="M9.5177 5.98165C9.30127 5.98165 9.1261 5.80321 9.1261 5.58276V1.63961C9.1261 1.41916 9.30127 1.24072 9.5177 1.24072C9.73412 1.24072 9.90929 1.41916 9.90929 1.63961V5.58276C9.90929 5.80321 9.73412 5.98165 9.5177 5.98165Z" fill="#3B4D57"/>
<path d="M7.86901 5.98165C7.65259 5.98165 7.47742 5.80321 7.47742 5.58276V1.63961C7.47742 1.41916 7.65259 1.24072 7.86901 1.24072C8.08544 1.24072 8.26061 1.41916 8.26061 1.63961V5.58276C8.26061 5.80321 8.08544 5.98165 7.86901 5.98165Z" fill="#3B4D57"/>
<path d="M6.21972 5.98165C6.0033 5.98165 5.82812 5.80321 5.82812 5.58276V1.63961C5.82812 1.41916 6.0033 1.24072 6.21972 1.24072C6.43614 1.24072 6.61132 1.41916 6.61132 1.63961V5.58276C6.61132 5.80321 6.43614 5.98165 6.21972 5.98165Z" fill="#3B4D57"/>
<path d="M4.57104 5.98165C4.35462 5.98165 4.17944 5.80321 4.17944 5.58276V1.63961C4.17944 1.41916 4.35462 1.24072 4.57104 1.24072C4.78746 1.24072 4.96264 1.41916 4.96264 1.63961V5.58276C4.96264 5.80321 4.78746 5.98165 4.57104 5.98165Z" fill="#3B4D57"/>
<path d="M11.7933 8.86379C11.5769 8.86379 11.4017 8.68535 11.4017 8.4649V6.95284C11.4017 6.73239 11.5769 6.55396 11.7933 6.55396C12.0098 6.55396 12.1849 6.73239 12.1849 6.95284V8.4649C12.1849 8.68509 12.0098 8.86379 11.7933 8.86379Z" fill="#3B4D57"/>
<path d="M15.7184 31.9997C15.502 31.9997 15.3268 31.821 15.3268 31.6008C15.3268 31.3806 15.502 31.2019 15.7184 31.2019C16.4619 31.2019 17.0668 30.5873 17.0668 29.8316V16.6645C17.0668 16.4443 17.2419 16.2656 17.4584 16.2656C17.6748 16.2656 17.85 16.4443 17.85 16.6645V29.8316C17.85 31.0272 16.8937 31.9997 15.7184 31.9997Z" fill="#3B4D57"/>
</svg>
