<svg width="36" height="33" viewBox="0 0 36 33" fill="none" xmlns="http://www.w3.org/2000/svg">
<path d="M17.8512 4.27016C13.935 0.353956 7.58554 0.353956 3.66933 4.27016C-0.246875 8.18637 -0.246875 14.5358 3.66933 18.452L17.8512 32.6339L32.0331 18.452C35.9493 14.5358 35.9493 8.18637 32.0331 4.27016C28.1169 0.353956 21.7674 0.353956 17.8512 4.27016Z" fill="#9DBF9F"/>
<path d="M17.8511 32.9834C17.7584 32.9834 17.6697 32.9466 17.6042 32.8812L3.42233 18.699C1.46236 16.7391 0.382812 14.1332 0.382812 11.3611C0.382812 8.58943 1.46213 5.98313 3.42233 4.02316C5.3823 2.06296 7.98837 0.983398 10.7603 0.983398C13.4174 0.983398 15.9219 1.97538 17.8513 3.78372C19.7808 1.97515 22.2853 0.983398 24.9424 0.983398C27.7143 0.983398 30.3204 2.06296 32.2803 4.02316C34.2405 5.98313 35.3199 8.5892 35.3199 11.3611C35.3199 14.133 34.2405 16.7391 32.2803 18.699L18.0984 32.8812C18.0328 32.9466 17.9438 32.9834 17.8511 32.9834ZM10.7603 1.68214C8.17493 1.68214 5.74449 2.68904 3.91635 4.51718C2.08821 6.34532 1.08155 8.77576 1.08155 11.3611C1.08155 13.9464 2.08821 16.3769 3.91635 18.205L17.8513 32.14L31.7863 18.205C33.6145 16.3769 34.6211 13.9464 34.6211 11.3611C34.6211 8.77576 33.6145 6.34532 31.7863 4.51718C29.9582 2.68904 27.5277 1.68214 24.9424 1.68214C22.357 1.68214 19.9264 2.68904 18.0984 4.51718C17.9673 4.64831 17.7353 4.64831 17.6044 4.51718C15.7761 2.68927 13.3456 1.68214 10.7603 1.68214Z" fill="#3B4D57"/>
<path d="M28.188 8.67896C28.9967 11.2641 26.3522 12.3909 26.3522 12.3909C26.134 11.868 25.8104 11.3854 25.3979 10.9704C25.7806 9.0239 28.188 8.67896 28.188 8.67896Z" fill="#E9E5D9"/>
<path d="M21.7805 14.9246C22.1443 15.0055 22.476 14.903 22.5245 14.6954C22.5703 14.4879 22.3116 14.2534 21.9475 14.1726C21.5837 14.0917 21.2495 14.1942 21.2036 14.4017C21.158 14.6093 21.4167 14.841 21.7805 14.9246ZM25.6918 16.5609C25.1203 17.2158 24.3386 17.693 23.4573 17.9248C22.7213 18.1216 21.9154 18.1458 21.1039 17.9653C19.7966 17.6742 18.7345 16.9086 18.0849 15.9166C17.845 15.55 17.6617 15.1564 17.5431 14.7441C17.4353 14.364 17.3815 13.9678 17.3922 13.566C17.395 13.3073 17.4246 13.0457 17.4837 12.787C17.6698 11.9541 18.1091 11.2369 18.7156 10.6898C19.1335 10.3097 19.6321 10.0104 20.182 9.80846C21.0257 9.49845 21.9881 9.4202 22.9586 9.63587C23.9289 9.85155 24.7646 10.3314 25.3981 10.9702C25.8106 11.3853 26.1341 11.8679 26.3524 12.3908C26.6705 13.1457 26.7649 13.9811 26.5788 14.8142C26.5222 15.073 26.4386 15.3211 26.3335 15.5556C26.1716 15.9248 25.9534 16.2616 25.6918 16.5609ZM24.576 13.6038C24.6244 13.3909 24.4898 13.1778 24.2741 13.1293C24.0584 13.0809 23.8481 13.2155 23.7997 13.4312C23.7512 13.6469 23.8858 13.8572 24.1015 13.9056C24.3144 13.9541 24.5275 13.8195 24.576 13.6038ZM20.5864 12.7143C20.6323 12.5014 20.4974 12.2883 20.2845 12.2398C20.0688 12.1914 19.856 12.3288 19.8101 12.5417C19.7616 12.7574 19.8963 12.9703 20.1119 13.0161C20.3251 13.0646 20.5379 12.9297 20.5864 12.7143Z" fill="#E9E5D9"/>
<path d="M23.4576 17.9248C23.4576 17.9248 23.6302 20.5045 21.1529 22.6287L22.1314 23.9037C22.2931 24.1166 22.1421 24.424 21.8754 24.424H19.4331L18.4949 23.2459C18.4949 23.2459 17.9369 22.0276 18.9209 20.9114L14.3654 21.5368L14.9747 23.1947L16.1795 24.0546C16.3412 24.1678 16.2578 24.424 16.061 24.424H13.2844C13.2844 24.424 11.6186 23.3782 11.6186 21.2997C11.6186 19.224 12.3924 17.8009 12.3924 17.8009C12.3924 17.8009 8.1333 16.7388 7.15203 13.4286C6.30842 10.5847 8.47009 8.7813 9.95538 8.37976C12.217 7.76789 14.7967 8.60079 15.1633 10.9972C15.2092 11.2965 15.0772 11.5956 14.8291 11.7682L14.813 11.7789C14.4383 12.0377 13.9343 11.9191 13.689 11.5362C13.2982 10.9269 12.565 10.2046 11.3356 10.4094C9.77744 10.6709 9.11433 12.5685 9.95538 13.8113C10.8235 15.0972 14.1821 16.038 14.1821 16.038L18.0852 15.9166C18.7348 16.9086 19.7969 17.6742 21.1043 17.9653C21.9157 18.1458 22.7216 18.1216 23.4576 17.9248Z" fill="#E9E5D9"/>
<path d="M18.6289 6.54932C18.6289 6.54932 20.6616 7.88368 20.1815 9.80824C19.6316 10.0104 19.133 10.3097 18.7151 10.6896C18.7151 10.6896 16.7985 8.54678 18.6289 6.54932Z" fill="#E9E5D9"/>
<path d="M22.2074 18.4362C21.8142 18.4362 21.4178 18.3931 21.0279 18.306C19.6721 18.0041 18.5231 17.2237 17.7922 16.1078C17.5307 15.7079 17.3339 15.2816 17.2069 14.8405C17.0861 14.415 17.0311 13.9834 17.0425 13.5564C17.0455 13.2732 17.0793 12.986 17.1429 12.7086C17.3385 11.8317 17.8016 11.0433 18.4812 10.43C18.9328 10.0192 19.4648 9.69915 20.0611 9.47998C20.9999 9.13503 22.028 9.07098 23.034 9.29457C24.0364 9.51724 24.9394 10.0115 25.6459 10.724C26.0907 11.1716 26.4368 11.6871 26.6744 12.2558C27.0308 13.1018 27.1155 14.0125 26.9194 14.8901C26.8596 15.164 26.7694 15.4363 26.652 15.6983C26.4811 16.0887 26.2461 16.4574 25.9549 16.7907C25.334 17.5027 24.5008 18.0114 23.5459 18.2624C23.1138 18.3782 22.6627 18.4362 22.2074 18.4362ZM21.8529 9.86265C21.3211 9.86265 20.7971 9.95443 20.3024 10.1361C19.7911 10.3241 19.3362 10.5973 18.9505 10.948C18.378 11.4646 17.9891 12.1263 17.8246 12.863C17.7717 13.0936 17.7438 13.3307 17.7415 13.5695C17.7317 13.9314 17.778 14.2924 17.8791 14.6486C17.9865 15.0215 18.1542 15.3841 18.3773 15.7251C19.0078 16.6875 20.0031 17.3618 21.18 17.624C21.9116 17.7864 22.6678 17.7743 23.367 17.587C24.1876 17.3713 24.9001 16.9372 25.4288 16.3309C25.6733 16.0512 25.8699 15.743 26.0136 15.4148C26.1126 15.1938 26.1876 14.9674 26.2377 14.7392C26.4021 14.0025 26.3304 13.2378 26.0306 12.5262C26.0306 12.5258 26.0302 12.5251 26.0302 12.5251C25.8278 12.0402 25.5317 11.5995 25.1505 11.2161C24.5384 10.5989 23.7544 10.1703 22.883 9.97654C22.5402 9.90061 22.1948 9.86265 21.8529 9.86265Z" fill="#3B4D57"/>
<path d="M18.716 11.0392C18.6201 11.0392 18.5246 10.9999 18.4554 10.9228C17.7196 10.1001 16.7551 8.07773 18.372 6.31318C18.4878 6.18694 18.6778 6.1627 18.8213 6.25727C18.9128 6.31736 21.0549 7.75211 20.5213 9.89282C20.4748 10.0801 20.2845 10.194 20.0979 10.1472C19.9106 10.1006 19.7968 9.91098 19.8433 9.72372C20.1631 8.44106 19.1669 7.43116 18.6841 7.02962C18.1827 7.69901 18.0597 8.44876 18.3191 9.2628C18.5441 9.96876 18.972 10.4523 18.9762 10.4572C19.1048 10.6009 19.0927 10.8217 18.9487 10.9505C18.8821 11.0099 18.7989 11.0392 18.716 11.0392Z" fill="#3B4D57"/>
<path d="M26.3518 12.7399C26.216 12.7399 26.087 12.6602 26.0304 12.5275C25.9547 12.35 26.0372 12.145 26.2142 12.0693C26.309 12.0283 28.35 11.119 27.934 9.09129C27.3259 9.25177 25.9938 9.74671 25.7402 11.0371C25.7029 11.2264 25.5194 11.3501 25.33 11.3126C25.1407 11.2753 25.0175 11.0918 25.0547 10.9024C25.4805 8.73796 28.0297 8.3483 28.138 8.33293C28.3069 8.30754 28.4697 8.41073 28.521 8.57423C29.2351 10.8579 27.5038 12.2792 26.4888 12.7119C26.4441 12.731 26.3977 12.7399 26.3518 12.7399Z" fill="#3B4D57"/>
<path d="M20.2005 13.3757C20.1451 13.3757 20.0894 13.3694 20.034 13.3566C19.8437 13.3163 19.6765 13.2008 19.5686 13.0326C19.4601 12.8633 19.4247 12.6618 19.4692 12.4648C19.5104 12.2731 19.6264 12.1061 19.7953 11.9983C19.9643 11.8899 20.1654 11.8545 20.361 11.8986C20.76 11.9894 21.0139 12.3881 20.9279 12.7874C20.9277 12.7885 20.9274 12.7895 20.9272 12.7906C20.8832 12.9865 20.7656 13.1535 20.596 13.2604C20.4754 13.3368 20.3393 13.3757 20.2005 13.3757ZM20.1973 12.5794C20.1865 12.5794 20.1775 12.5833 20.1716 12.5871C20.1642 12.592 20.1546 12.6006 20.1516 12.615C20.1472 12.6353 20.1521 12.6478 20.157 12.6553C20.1635 12.6653 20.1726 12.6716 20.1845 12.6742C20.2015 12.6781 20.2129 12.6763 20.2233 12.6693C20.231 12.6644 20.241 12.6553 20.245 12.639C20.2499 12.6134 20.2322 12.5859 20.2068 12.5803C20.2035 12.5798 20.2003 12.5794 20.1973 12.5794Z" fill="#3B4D57"/>
<path d="M24.1903 14.265C24.1351 14.265 24.0795 14.259 24.0243 14.2464C23.83 14.2026 23.664 14.0862 23.557 13.9189C23.4499 13.7505 23.415 13.5502 23.459 13.3546C23.5494 12.9523 23.9493 12.6985 24.3508 12.7884C24.5467 12.8324 24.7137 12.95 24.8206 13.1196C24.927 13.2882 24.9613 13.4876 24.917 13.6816C24.873 13.8763 24.7556 14.0431 24.5863 14.15C24.4656 14.2259 24.3292 14.265 24.1903 14.265ZM24.1866 13.4689C24.1647 13.4689 24.1463 13.4838 24.141 13.5078C24.1361 13.5302 24.1563 13.5598 24.1785 13.5647C24.1915 13.5675 24.2027 13.5654 24.2134 13.5591C24.2213 13.554 24.2318 13.5444 24.2355 13.5272C24.2386 13.5144 24.2365 13.5029 24.2297 13.4925C24.2246 13.4845 24.215 13.4743 24.1978 13.4703C24.1938 13.4694 24.1901 13.4689 24.1866 13.4689Z" fill="#3B4D57"/>
<path d="M22.0253 15.3021C21.9226 15.3021 21.815 15.2902 21.7046 15.266C21.1339 15.1349 20.7729 14.7314 20.8621 14.3266C20.8964 14.1713 20.9958 14.0346 21.1423 13.9412C21.3645 13.7998 21.6936 13.7593 22.023 13.8315C22.5934 13.9584 22.9556 14.3623 22.8654 14.7708C22.8652 14.7724 22.8647 14.7741 22.8645 14.7755C22.7881 15.1018 22.4499 15.3021 22.0253 15.3021ZM21.6373 14.4976C21.6894 14.5293 21.7628 14.5621 21.8585 14.5842C21.9526 14.6052 22.0323 14.6059 22.0922 14.5994C22.0404 14.5677 21.9673 14.5349 21.8716 14.5134C21.7768 14.4922 21.6974 14.4911 21.6373 14.4976Z" fill="#3B4D57"/>
<path d="M21.0157 16.2667C20.9409 16.2667 20.865 16.2586 20.7888 16.2413C20.323 16.1388 19.9834 15.7163 19.9834 15.2375C19.9834 15.1632 19.992 15.0854 20.0081 15.0132L20.0705 14.7393C20.1134 14.5511 20.3006 14.4332 20.4886 14.4761C20.6768 14.5192 20.7944 14.7062 20.7516 14.8944L20.6896 15.1667C20.6849 15.1881 20.6821 15.2135 20.6821 15.2375C20.6821 15.3907 20.7914 15.5261 20.9416 15.5594C21.12 15.6008 21.2963 15.4869 21.3373 15.308C21.3802 15.1196 21.5684 15.0022 21.7556 15.0451C21.9438 15.0879 22.0615 15.2754 22.0186 15.4636C21.9096 15.9413 21.4843 16.2667 21.0157 16.2667Z" fill="#3B4D57"/>
<path d="M22.3412 16.5625C22.2674 16.5625 22.1901 16.5542 22.1179 16.5383C21.8481 16.4787 21.6185 16.3177 21.4711 16.0846C21.3239 15.8522 21.2763 15.5762 21.3376 15.3081L21.4396 14.849C21.4815 14.6606 21.6686 14.5423 21.8563 14.5837C22.0447 14.6256 22.1635 14.8122 22.1216 15.0004L22.0191 15.4613C21.9993 15.5487 22.0142 15.6365 22.0613 15.7106C22.1085 15.7851 22.1821 15.8366 22.2683 15.8557C22.4437 15.895 22.6247 15.7809 22.6631 15.6067L22.7255 15.33C22.7679 15.1415 22.9552 15.0232 23.1432 15.0661C23.3316 15.1085 23.4497 15.2953 23.4073 15.4837L23.3453 15.7588C23.241 16.2313 22.828 16.5625 22.3412 16.5625Z" fill="#3B4D57"/>
<path d="M28.741 16.0286C28.7349 16.0286 28.7288 16.0284 28.7226 16.0282L24.8841 15.8314C24.6915 15.8216 24.5432 15.6574 24.5529 15.4648C24.5627 15.2719 24.7281 15.1263 24.9195 15.1336L28.7584 15.3304C28.951 15.3404 29.0992 15.5046 29.0894 15.6972C29.0799 15.8838 28.9257 16.0286 28.741 16.0286Z" fill="#3B4D57"/>
<path d="M28.0238 17.5301C27.9942 17.5301 27.9639 17.5264 27.9339 17.5182L24.6395 16.6422C24.453 16.5926 24.3421 16.4014 24.3917 16.2148C24.4413 16.0283 24.633 15.9167 24.8191 15.9672L28.1132 16.8432C28.2998 16.8926 28.4106 17.0841 28.361 17.2706C28.3196 17.4269 28.1782 17.5301 28.0238 17.5301Z" fill="#3B4D57"/>
<path d="M18.7157 14.4543C18.6719 14.4543 18.6272 14.4462 18.5841 14.4287L15.0259 12.9781C14.8473 12.9052 14.7615 12.7014 14.8342 12.5228C14.9071 12.3441 15.1109 12.2575 15.2898 12.3313L18.8478 13.7814C19.0264 13.8543 19.1124 14.0581 19.0395 14.2368C18.9843 14.3723 18.8536 14.4543 18.7157 14.4543Z" fill="#3B4D57"/>
<path d="M18.5249 15.2712C18.5042 15.2712 18.4832 15.2693 18.4623 15.2656L15.1065 14.6596C14.9166 14.6251 14.7906 14.4434 14.8246 14.2536C14.8589 14.064 15.0403 13.9389 15.2306 13.9718L18.5869 14.5785C18.7767 14.6128 18.9027 14.7947 18.8683 14.9845C18.8377 15.1529 18.6905 15.2712 18.5249 15.2712Z" fill="#3B4D57"/>
<path d="M21.8748 24.7733H19.4327C19.3263 24.7733 19.2256 24.7249 19.1595 24.6417L18.2213 23.4637C18.2036 23.4413 18.1887 23.4173 18.1771 23.3912C18.1552 23.3435 17.7371 22.4016 18.2118 21.3614L14.8427 21.8237L15.2649 22.9729L16.382 23.7702C16.5769 23.9067 16.6606 24.1545 16.5879 24.3853C16.5148 24.6175 16.3028 24.7733 16.0606 24.7733H13.284C13.2183 24.7733 13.1538 24.7547 13.0981 24.7198C13.0236 24.6729 11.2686 23.5452 11.2686 21.2997C11.2686 19.7787 11.6641 18.5988 11.9049 18.0216C10.7814 17.6581 7.67056 16.4094 6.81647 13.5278C6.46593 12.3462 6.57261 11.1982 7.12508 10.2083C7.81683 8.96922 9.03264 8.26697 9.86368 8.04221C11.3406 7.64323 12.8764 7.83072 13.9718 8.5439C14.8212 9.09731 15.3525 9.92742 15.5081 10.9443C15.5733 11.3706 15.3849 11.8066 15.0278 12.0549C15.0267 12.0558 15.0092 12.0677 15.008 12.0684C14.7567 12.2419 14.4507 12.3048 14.1484 12.244C13.8409 12.182 13.5658 11.9929 13.3939 11.7248C12.8922 10.9429 12.2177 10.6159 11.3923 10.754C10.8135 10.8512 10.3418 11.2329 10.0985 11.801C9.83969 12.4051 9.89535 13.1004 10.244 13.6154C10.8855 14.5657 13.2856 15.4177 14.2245 15.6871L18.0736 15.5674C18.2698 15.5551 18.4279 15.713 18.4337 15.9056C18.4396 16.0985 18.2882 16.2599 18.0953 16.2657L14.1921 16.3873C14.157 16.3896 14.1211 16.384 14.0869 16.3745C13.9448 16.3346 10.5939 15.383 9.665 14.0067C9.18449 13.2972 9.10438 12.3465 9.45608 11.5259C9.79497 10.7349 10.4585 10.2023 11.2768 10.0648C12.3733 9.882 13.3339 10.3376 13.9821 11.3475C14.0533 11.4588 14.1612 11.5338 14.286 11.559C14.4006 11.582 14.5173 11.558 14.6137 11.4914C14.7686 11.3841 14.8424 11.2147 14.817 11.0503C14.6924 10.2356 14.2683 9.57129 13.5901 9.12969C12.6586 8.52318 11.3336 8.36853 10.0458 8.7172C9.34591 8.90656 8.32085 9.49979 7.73507 10.5493C7.26971 11.3827 7.1861 12.318 7.48609 13.3294C8.39795 16.4057 12.4355 17.4519 12.4763 17.4622C12.5811 17.4885 12.6677 17.5619 12.7113 17.6608C12.7548 17.7598 12.7502 17.873 12.6985 17.9681C12.6915 17.9811 11.9671 19.3469 11.9671 21.3001C11.9671 22.9261 13.08 23.8484 13.3921 24.0751H15.6055L14.7712 23.4795C14.7139 23.4387 14.6703 23.3817 14.6461 23.3158L14.0368 21.6579C14.0002 21.5584 14.0107 21.448 14.0652 21.3574C14.1197 21.2666 14.2124 21.2058 14.3172 21.1911L18.8728 20.5658C19.0174 20.5476 19.159 20.6184 19.2282 20.7467C19.2971 20.8755 19.279 21.0332 19.1823 21.1429C18.4426 21.9821 18.7286 22.8837 18.7985 23.0672L19.6009 24.0748H21.8217L20.8751 22.8415C20.7622 22.6943 20.7838 22.4845 20.9247 22.3636C23.2292 20.3878 23.1144 18.0458 23.1083 17.9471C23.0967 17.7549 23.2427 17.5889 23.4346 17.5765C23.6277 17.5646 23.7926 17.7093 23.8054 17.9017C23.8126 18.0104 23.9503 20.5077 21.6265 22.6731L22.4077 23.691C22.5647 23.898 22.5903 24.1691 22.4757 24.4002C22.3618 24.6303 22.1315 24.7733 21.8748 24.7733Z" fill="#3B4D57"/>
</svg>
