<svg width="56" height="56" viewBox="0 0 56 56" fill="none" xmlns="http://www.w3.org/2000/svg">
<path fill-rule="evenodd" clip-rule="evenodd" d="M36.4324 4.66699L35.0208 10.0803L35.1001 8.90199L27.9998 12.2982V7.75633L19.8331 10.2553V14.4787L17.7681 6.77516L11.2324 12.885L14.0791 23.5052C14.2144 23.5752 14.3377 23.6638 14.4489 23.7712C15.4165 24.7076 16.3498 25.5589 17.2489 26.325L13.8493 13.6328L16.5209 11.1362L19.8343 23.4877V28.3422C20.6299 28.9053 21.4077 29.3914 22.1676 29.8005V11.982L25.6676 10.9122V31.1737C26.5519 31.3813 27.4312 31.475 28.3054 31.4548L29.4791 14.1765L32.5008 12.7298L31.2629 30.9578C32.2634 30.6379 33.228 30.2148 34.1411 29.6955L36.8559 19.5607L40.1693 18.5667L37.8826 27.0973C38.9808 26.1948 40.041 25.247 41.0606 24.2565L43.5654 14.9068L41.5039 15.4342L44.7356 4.66699H36.4324ZM41.5984 7.00033L38.8661 16.1097L35.6438 16.9333L38.2338 7.00033H41.5984Z" fill="white"/>
<path fill-rule="evenodd" clip-rule="evenodd" d="M41.5202 27.0308C36.9096 31.2658 32.6524 33.7998 28.0534 33.7928C23.4521 33.7858 19.1576 31.2332 14.4757 26.9935L17.2267 49.0003H38.7739L41.5202 27.0308ZM13.3802 23.3337C12.4702 23.3337 11.7667 24.1317 11.8787 25.0347L14.9121 49.2897C14.9826 49.8537 15.2565 50.3726 15.6825 50.749C16.1085 51.1253 16.6572 51.3332 17.2256 51.3337H38.7727C39.3414 51.3335 39.8904 51.1257 40.3166 50.7493C40.7428 50.373 41.0169 49.8539 41.0874 49.2897L44.1208 25.0288C44.1608 24.7157 44.1015 24.3978 43.9514 24.1201C43.8012 23.8424 43.5677 23.6188 43.2837 23.4808C42.9998 23.3428 42.6797 23.2974 42.3685 23.351C42.0574 23.4045 41.7709 23.5543 41.5494 23.7793C31.1194 34.0413 25.0306 33.9993 14.4477 23.7712C14.1617 23.4938 13.7798 23.3372 13.3814 23.3337" fill="white"/>
</svg>
