<svg width="38" height="32" viewBox="0 0 38 32" fill="none" xmlns="http://www.w3.org/2000/svg">
<path d="M14.8928 19.8313C14.5224 19.9121 14.1829 19.8076 14.1354 19.5963C14.0879 19.385 14.3515 19.1475 14.7242 19.0644C15.0946 18.9813 15.4341 19.0858 15.4816 19.2971C15.5291 19.5084 15.2656 19.7482 14.8928 19.8313Z" fill="#D8D0BB"/>
<path d="M12.8345 18.3073C12.8819 18.5257 12.7442 18.7441 12.5258 18.7916C12.3074 18.8415 12.0889 18.7038 12.0415 18.4853C11.9916 18.2645 12.1293 18.0485 12.3501 17.9986C12.5685 17.9511 12.7846 18.0888 12.8345 18.3073Z" fill="#D8D0BB"/>
<path d="M16.9067 17.401C16.9542 17.6218 16.8165 17.8378 16.5981 17.8853C16.3796 17.9352 16.1612 17.7975 16.1137 17.579C16.0639 17.3582 16.2016 17.1422 16.4224 17.0947C16.6408 17.0448 16.8569 17.1825 16.9067 17.401Z" fill="#D8D0BB"/>
<path d="M26.9622 13.153C28.4746 13.5638 30.6803 15.4038 29.8208 18.3052C28.8188 21.6837 24.4763 22.7688 24.4763 22.7688C24.4763 22.7688 25.2622 24.2194 25.2622 26.3373C25.2622 28.4575 23.5646 29.5235 23.5646 29.5235H20.7297C20.5279 29.5235 20.4448 29.2647 20.611 29.146L21.8385 28.2723L22.4606 26.5771L17.8118 25.9408C18.8161 27.0804 18.2486 28.3221 18.2486 28.3221L17.2894 29.5235H14.7989C14.5258 29.5235 14.3715 29.2101 14.5377 28.9941L15.5349 27.693C13.0063 25.5253 13.1844 22.8922 13.1844 22.8922C13.9346 23.0916 14.7561 23.1178 15.5847 22.9326C16.9167 22.6358 18.0017 21.857 18.6641 20.8456L22.6481 20.9667C22.6481 20.9667 26.0766 20.0075 26.9622 18.6969C27.8193 17.4267 27.1426 15.4917 25.5519 15.2257C24.2983 15.0144 23.5504 15.7528 23.1515 16.3749C22.9022 16.7666 22.3846 16.8853 22.0023 16.6218L21.9881 16.6123C21.7341 16.4366 21.5987 16.1303 21.6462 15.8241C22.0213 13.3786 24.6544 12.5286 26.9622 13.153Z" fill="#D8D0BB"/>
<path d="M14.8933 19.832C15.2661 19.7489 15.5296 19.5091 15.4821 19.2978C15.4346 19.0865 15.0951 18.982 14.7247 19.0651C14.352 19.1482 14.0884 19.3856 14.1359 19.5969C14.1834 19.8082 14.5229 19.9127 14.8933 19.832ZM10.9046 21.5011C10.6386 21.1948 10.4155 20.8529 10.2516 20.4754C10.1424 20.2356 10.0593 19.9839 9.99996 19.718C9.81002 18.868 9.90737 18.0157 10.2279 17.2464C10.4534 16.7122 10.7835 16.2207 11.2013 15.7981C11.8471 15.1452 12.7019 14.6585 13.6919 14.4376C14.6844 14.2168 15.6649 14.2952 16.5268 14.6133C17.0871 14.8175 17.5952 15.1238 18.0226 15.5108C18.6399 16.0711 19.0886 16.8024 19.2786 17.6524C19.3355 17.9159 19.3688 18.1819 19.3735 18.443C19.383 18.8561 19.3284 19.2598 19.2168 19.6491C19.0957 20.0718 18.9082 20.473 18.6636 20.8458C18.0012 21.8572 16.9162 22.636 15.5842 22.9327C14.7556 23.1179 13.9341 23.0918 13.1838 22.8924C12.284 22.6573 11.4862 22.1706 10.9046 21.5011ZM16.598 17.8851C16.8165 17.8376 16.9542 17.6215 16.9067 17.4007C16.8568 17.1823 16.6408 17.0446 16.4223 17.0944C16.2015 17.1419 16.0638 17.358 16.1137 17.5788C16.1612 17.7972 16.3796 17.9349 16.598 17.8851ZM12.5262 18.792C12.7446 18.7446 12.8823 18.5261 12.8348 18.3077C12.785 18.0893 12.5689 17.9515 12.3505 17.999C12.1297 18.0489 11.992 18.2649 12.0418 18.4858C12.0893 18.7042 12.3077 18.8419 12.5262 18.792Z" fill="#D8D0BB"/>
<path d="M11.2009 15.7981C10.783 16.2207 10.453 16.7122 10.2275 17.2464C10.2275 17.2464 7.53031 16.0973 8.35655 13.4595C8.35655 13.4595 10.8115 13.8109 11.2009 15.7981Z" fill="#D8D0BB"/>
<path d="M18.1101 11.2869C19.9763 13.3264 18.0223 15.5107 18.0223 15.5107C17.5949 15.1237 17.0868 14.8174 16.5265 14.6132C16.035 12.6473 18.1101 11.2869 18.1101 11.2869Z" fill="#D8D0BB"/>
<path d="M10.9046 21.5013C11.4863 22.1709 12.284 22.6576 13.1839 22.8926C13.1839 22.8926 13.0058 25.5257 15.5344 27.6934L14.5372 28.9945C14.371 29.2105 14.5253 29.524 14.7984 29.524H17.289L18.2482 28.3226C18.2482 28.3226 18.8156 27.0808 17.8113 25.9412L22.4601 26.5775L21.838 28.2727L20.6105 29.1464C20.4443 29.2652 20.5274 29.524 20.7293 29.524H23.5641C23.5641 29.524 25.2617 28.4579 25.2617 26.3377C25.2617 24.2199 24.4758 22.7692 24.4758 22.7692C24.4758 22.7692 28.8184 21.6842 29.8203 18.3056C30.6798 15.4042 28.4741 13.5642 26.9617 13.1534C24.6539 12.529 22.0209 13.379 21.6457 15.8245C21.5982 16.1308 21.7336 16.437 21.9876 16.6127L22.0019 16.6222C22.3841 16.8858 22.9017 16.7671 23.151 16.3753C23.5499 15.7533 24.2978 15.0149 25.5514 15.2262C27.1421 15.4921 27.8188 17.4271 26.9617 18.6973C26.0761 20.0079 22.6477 20.9671 22.6477 20.9671L18.6637 20.846C18.9082 20.4733 19.0958 20.072 19.2169 19.6494C19.3284 19.26 19.3831 18.8564 19.3736 18.4433C19.3688 18.1821 19.3356 17.9162 19.2786 17.6527C19.0886 16.8027 18.6399 16.0714 18.0226 15.5111C18.0226 15.5111 19.9766 13.3268 18.1105 11.2873C18.1105 11.2873 16.0354 12.6477 16.5268 14.6136C15.665 14.2955 14.6844 14.2171 13.692 14.4379C12.7019 14.6587 11.8472 15.1455 11.2014 15.7984C10.812 13.8111 8.357 13.4597 8.357 13.4597C7.53076 16.0975 10.2279 17.2467 10.2279 17.2467C9.90739 18.0159 9.81005 18.8683 9.99999 19.7183C10.0593 19.9842 10.1424 20.2358 10.2517 20.4756C10.4155 20.8532 10.6387 21.195 10.9046 21.5013ZM32.4723 13.1012V31.6442H18.8892H5.30371V13.1012L18.8892 3.98169L32.4723 13.1012Z" fill="#E9E5D9"/>
<path d="M37.42 12.799V16.4221L32.472 13.1005L18.8889 3.98096L5.30342 13.1005L0.355469 16.4221V12.799L18.8889 0.355469L37.42 12.799Z" fill="#9DBF9F"/>
<path d="M14.4593 23.4139C13.9956 23.4139 13.5348 23.355 13.092 23.2373C12.1176 22.983 11.2676 22.4633 10.6353 21.7353C10.3357 21.3903 10.0964 21.0145 9.92446 20.618C9.80931 20.3656 9.71671 20.0873 9.6519 19.7965C9.4527 18.905 9.53793 17.9759 9.89858 17.11C9.89882 17.1095 9.89906 17.1091 9.89929 17.1086C10.1438 16.5295 10.4964 16.0046 10.9475 15.5485C11.6638 14.8241 12.5858 14.32 13.6136 14.0907C14.6435 13.8618 15.6932 13.9273 16.6493 14.2799C17.2519 14.4995 17.7944 14.8253 18.261 15.2474C18.9538 15.8764 19.4255 16.6812 19.6254 17.5754C19.6893 17.8705 19.724 18.1597 19.729 18.4372C19.7392 18.8767 19.6817 19.3183 19.5585 19.7481C19.4293 20.1987 19.2282 20.6339 18.9606 21.042C18.2168 22.1774 17.0451 22.9728 15.6609 23.2812C15.2649 23.3697 14.861 23.4139 14.4593 23.4139ZM10.556 17.385C10.2526 18.1139 10.1804 18.894 10.3473 19.641C10.4024 19.8872 10.477 20.1118 10.5757 20.3286C10.7213 20.664 10.9214 20.9782 11.1736 21.2683C11.7113 21.8873 12.4376 22.3303 13.2738 22.5487C13.9916 22.7394 14.7632 22.752 15.5066 22.586C16.7087 22.3182 17.7239 21.6313 18.3657 20.6515C18.5941 20.3034 18.7652 19.9337 18.8745 19.5519C18.978 19.1911 19.0259 18.8214 19.0176 18.452C19.0134 18.219 18.9839 17.9762 18.9305 17.7285C18.7636 16.9811 18.3666 16.3049 17.7833 15.7752C17.3858 15.4153 16.9219 15.137 16.4048 14.9485C15.5759 14.6424 14.6651 14.5869 13.7691 14.7856C12.875 14.9853 12.0744 15.4222 11.4544 16.049C11.0672 16.4405 10.7649 16.8899 10.556 17.385Z" fill="#3B4D57"/>
<path d="M18.0223 15.8675C17.9378 15.8675 17.853 15.8376 17.7851 15.7768C17.6386 15.6457 17.6261 15.4211 17.7566 15.2746C17.8241 15.1986 19.3187 13.474 18.0548 11.7781C17.5627 12.1895 16.5462 13.2237 16.8722 14.5277C16.9199 14.7183 16.8038 14.9116 16.6132 14.9593C16.4216 15.0066 16.229 14.8909 16.1813 14.7001C15.6348 12.5138 17.8217 11.0508 17.9152 10.9896C18.0613 10.8941 18.2552 10.9181 18.3732 11.047C20.0214 12.8484 19.0383 14.9102 18.2882 15.7488C18.2175 15.8273 18.1201 15.8675 18.0223 15.8675Z" fill="#3B4D57"/>
<path d="M10.2283 17.6023C10.1818 17.6023 10.1343 17.5933 10.089 17.5738C9.05354 17.1327 7.28781 15.6827 8.01765 13.3528C8.06989 13.1862 8.2349 13.0803 8.40799 13.1069C8.51839 13.1225 11.1184 13.5195 11.5515 15.7297C11.5893 15.9227 11.4634 16.1098 11.2704 16.1476C11.0759 16.1863 10.8903 16.0595 10.8523 15.8665C10.594 14.5483 9.23517 14.0435 8.61526 13.8799C8.44193 14.7154 8.65277 15.4607 9.24444 16.1003C9.75799 16.655 10.362 16.9164 10.3679 16.9187C10.5489 16.9957 10.6331 17.2051 10.556 17.386C10.4983 17.5211 10.3667 17.6023 10.2283 17.6023Z" fill="#3B4D57"/>
<path d="M16.5064 18.2525C16.3641 18.2525 16.2236 18.2119 16.0994 18.1331C15.9275 18.0238 15.809 17.8546 15.7658 17.6563C15.7212 17.4564 15.7568 17.2517 15.8665 17.0801C15.9762 16.9082 16.1469 16.7897 16.3473 16.7467C16.7516 16.6553 17.1602 16.9122 17.2538 17.322C17.3433 17.7377 17.0826 18.1447 16.6737 18.2337C16.6182 18.2463 16.5624 18.2525 16.5064 18.2525ZM16.5121 17.441C16.5085 17.441 16.5049 17.4414 16.5014 17.4422C16.4836 17.4462 16.4734 17.4531 16.4667 17.4635C16.4598 17.4744 16.4577 17.4873 16.461 17.501C16.4612 17.502 16.4612 17.5029 16.4615 17.5039C16.4641 17.5157 16.471 17.5253 16.4817 17.5319C16.4897 17.5371 16.5023 17.5421 16.5187 17.5383C16.5486 17.5319 16.5645 17.5048 16.5584 17.4761C16.5536 17.4564 16.5341 17.441 16.5121 17.441Z" fill="#3B4D57"/>
<path d="M12.4349 19.1592C12.2929 19.1592 12.1521 19.1188 12.0279 19.0398C11.8555 18.9303 11.7368 18.7605 11.6936 18.5618C11.649 18.3648 11.6844 18.1599 11.7938 17.9875C11.9025 17.8161 12.0725 17.6969 12.272 17.652C12.6818 17.5615 13.089 17.8218 13.1818 18.2287C13.182 18.2301 13.1825 18.2313 13.1825 18.2325C13.2255 18.4305 13.1892 18.634 13.0804 18.8054C12.9707 18.9785 12.8003 19.0975 12.6011 19.1404C12.5462 19.1528 12.4904 19.1592 12.4349 19.1592ZM12.4368 18.3462C12.4332 18.3462 12.4296 18.3467 12.4261 18.3474C12.4104 18.351 12.4002 18.3617 12.3952 18.3697C12.3881 18.3809 12.3859 18.394 12.3893 18.4077C12.3924 18.4225 12.3992 18.4319 12.4099 18.4388C12.4178 18.4438 12.4308 18.4483 12.4467 18.4452C12.4731 18.4395 12.4909 18.4082 12.4871 18.3852C12.4807 18.3619 12.4595 18.3462 12.4368 18.3462Z" fill="#3B4D57"/>
<path d="M14.6463 20.2165C14.2099 20.2165 13.8645 20.0106 13.7895 19.6759C13.7538 19.518 13.7864 19.3487 13.8811 19.1996C14.0247 18.9733 14.3116 18.7934 14.6482 18.7186C15.228 18.588 15.7371 18.8043 15.8306 19.2205C15.8662 19.3788 15.8335 19.5486 15.7385 19.6982C15.5944 19.9254 15.3078 20.1056 14.9716 20.1804C14.8598 20.2049 14.7506 20.2165 14.6463 20.2165ZM14.5784 19.5002C14.6399 19.5071 14.7214 19.5061 14.8182 19.4847C14.9158 19.4631 14.9904 19.4297 15.0431 19.3971C14.9823 19.3902 14.9006 19.3919 14.8037 19.4135C14.7062 19.4351 14.6314 19.4684 14.5784 19.5002Z" fill="#3B4D57"/>
<path d="M15.6744 21.2026C15.4778 21.2026 15.2843 21.1468 15.1141 21.0383C14.8774 20.8877 14.7136 20.6536 14.653 20.3794C14.6105 20.1873 14.7316 19.9974 14.9237 19.9547C15.1167 19.9141 15.3059 20.0335 15.3484 20.2256C15.3682 20.3139 15.4206 20.3892 15.4966 20.4376C15.5723 20.4853 15.6616 20.5007 15.7495 20.482C15.9062 20.4476 16.0144 20.3125 16.0144 20.1529C16.0144 20.1192 16.0106 20.0969 16.0078 20.0841L15.9446 19.8003C15.9019 19.608 16.0232 19.4181 16.2153 19.3753C16.4078 19.3347 16.5973 19.4542 16.64 19.646L16.7018 19.924C16.7179 19.9912 16.7267 20.0703 16.7267 20.1532C16.7267 20.6503 16.3881 21.0715 15.9031 21.1774C15.8271 21.1943 15.7504 21.2026 15.6744 21.2026Z" fill="#3B4D57"/>
<path d="M14.3221 21.5032C13.8252 21.5032 13.4037 21.1644 13.2976 20.6795L13.2361 20.4027C13.1934 20.2106 13.3147 20.0204 13.5065 19.9779C13.6981 19.9352 13.8888 20.0563 13.9315 20.2484L13.9933 20.5262C14.0274 20.6824 14.1628 20.7909 14.3223 20.7909C14.3563 20.7909 14.3788 20.7871 14.3921 20.784C14.5788 20.7425 14.6939 20.5613 14.6538 20.379L14.5472 19.9105C14.5035 19.7187 14.6239 19.528 14.8155 19.4843C15.0073 19.4414 15.1982 19.5608 15.2416 19.7529L15.3485 20.2232C15.4738 20.7902 15.1163 21.3522 14.5517 21.4782C14.4833 21.4944 14.4045 21.5032 14.3221 21.5032Z" fill="#3B4D57"/>
<path d="M7.79242 20.9574C7.60414 20.9574 7.44672 20.8097 7.43699 20.6193C7.42702 20.423 7.57802 20.2556 7.77437 20.2456L11.6917 20.0438C11.884 20.0355 12.0554 20.1843 12.0658 20.3809C12.0761 20.5773 11.925 20.7449 11.7287 20.7551L7.81094 20.9569C7.80476 20.9572 7.79859 20.9574 7.79242 20.9574Z" fill="#3B4D57"/>
<path d="M8.52395 22.4889C8.3663 22.4889 8.22218 22.3837 8.17992 22.2241C8.12959 22.0339 8.24284 21.839 8.43278 21.7884L11.7945 20.896C11.9837 20.8437 12.1796 20.9582 12.2302 21.1486C12.2807 21.3388 12.1677 21.5337 11.9775 21.5843L8.61536 22.4772C8.58497 22.485 8.55411 22.4889 8.52395 22.4889Z" fill="#3B4D57"/>
<path d="M18.0205 19.3501C17.88 19.3501 17.7468 19.2665 17.6905 19.1284C17.6162 18.946 17.7038 18.7383 17.8862 18.6642L21.5185 17.185C21.7009 17.1109 21.9086 17.1986 21.9827 17.3807C22.057 17.5628 21.9694 17.7708 21.7873 17.8448L18.1547 19.324C18.1108 19.3418 18.0654 19.3501 18.0205 19.3501Z" fill="#3B4D57"/>
<path d="M18.217 20.1857C18.0482 20.1857 17.8981 20.0649 17.867 19.893C17.8321 19.6992 17.9608 19.514 18.1541 19.4791L21.5778 18.8618C21.7701 18.8281 21.9565 18.9556 21.9914 19.1494C22.0263 19.3429 21.8976 19.5281 21.7041 19.563L18.2806 20.1803C18.2593 20.1838 18.2379 20.1857 18.217 20.1857Z" fill="#3B4D57"/>
<path d="M23.5644 29.88H20.7295C20.4835 29.88 20.2682 29.7229 20.1932 29.489C20.1181 29.2547 20.2029 29.0004 20.404 28.8567L21.5422 28.0466L21.9739 26.8704L18.5345 26.3999C19.0203 27.4616 18.5948 28.422 18.5725 28.4709C18.5604 28.4975 18.545 28.5224 18.5269 28.5452L17.5677 29.7466C17.5001 29.8311 17.3977 29.8805 17.2895 29.8805H14.7989C14.5358 29.8805 14.3003 29.7338 14.1839 29.4978C14.0678 29.2618 14.0954 28.9859 14.2556 28.7779L15.0515 27.7394C12.6794 25.5294 12.8216 22.9802 12.8292 22.8691C12.8425 22.6727 13.0148 22.5208 13.2086 22.5381C13.4045 22.5514 13.5526 22.7205 13.54 22.9163C13.5339 23.0172 13.4149 25.4072 15.7668 27.4236C15.9105 27.5469 15.9328 27.7605 15.8177 27.9106L14.8537 29.1685H17.1183L17.9388 28.1407C18.0115 27.9502 18.3007 27.0354 17.5447 26.1776C17.4464 26.0658 17.4276 25.9051 17.4982 25.7738C17.5684 25.6427 17.7126 25.57 17.8602 25.5893L22.509 26.2256C22.6159 26.2401 22.7104 26.3025 22.7657 26.3949C22.8212 26.4875 22.8319 26.5998 22.7949 26.7011L22.1728 28.3966C22.1481 28.464 22.1035 28.5224 22.0451 28.564L21.1954 29.1689H23.4545C23.7709 28.9391 24.9063 27.9987 24.9063 26.3388C24.9063 24.3454 24.1705 22.9531 24.1632 22.9394C24.1112 22.8427 24.1069 22.7271 24.1511 22.6269C24.1955 22.5265 24.2835 22.4519 24.3899 22.4249C24.4315 22.4144 28.5484 21.3455 29.4796 18.2056C29.7852 17.1742 29.6995 16.2202 29.2251 15.3698C28.6277 14.2987 27.5823 13.6924 26.8691 13.4984C25.5552 13.1434 24.2028 13.3006 23.2519 13.9196C22.5594 14.3704 22.1261 15.0483 21.9986 15.8798C21.9724 16.049 22.0479 16.2221 22.1911 16.3211C22.3046 16.3992 22.4247 16.4232 22.5437 16.3995C22.6707 16.3738 22.7799 16.2976 22.8512 16.1856C23.5136 15.1523 24.4932 14.6881 25.6112 14.8762C26.4455 15.0158 27.1227 15.5578 27.4689 16.3636C27.8286 17.2006 27.7476 18.1716 27.2575 18.8979C26.3095 20.3009 22.8894 21.2707 22.7443 21.3113C22.7097 21.3211 22.6736 21.3268 22.6375 21.3244L18.6535 21.2033C18.4569 21.1974 18.3023 21.0331 18.3083 20.8365C18.3142 20.6399 18.482 20.4801 18.6751 20.4915L22.6042 20.6109C23.563 20.3358 26.0139 19.4663 26.6673 18.4995C27.023 17.9724 27.0792 17.2618 26.8145 16.645C26.5659 16.0661 26.0842 15.6777 25.4935 15.5789C24.6511 15.4358 23.964 15.7701 23.4516 16.569C23.2788 16.8411 22.9991 17.0341 22.6854 17.0977C22.3751 17.1607 22.061 17.0966 21.8005 16.9168C21.4197 16.654 21.2269 16.2081 21.2946 15.7713C21.4537 14.7344 21.9962 13.8875 22.8633 13.3231C23.9818 12.5952 25.5488 12.4038 27.0555 12.8113C27.9029 13.0416 29.1422 13.7588 29.8474 15.0231C30.4106 16.0329 30.5195 17.2034 30.1627 18.4083C29.2904 21.3503 26.1172 22.625 24.9726 22.9959C25.2169 23.5842 25.6188 24.7873 25.6188 26.3393C25.6188 28.63 23.8305 29.7794 23.7546 29.8271C23.6971 29.861 23.6313 29.88 23.5644 29.88Z" fill="#3B4D57"/>
<path d="M37.4207 16.7789C37.3511 16.7789 37.282 16.7585 37.2222 16.7183L18.8896 4.41042L0.554628 16.7183C0.445412 16.7917 0.304854 16.7988 0.188516 16.7368C0.0724145 16.6751 0 16.5543 0 16.4227V12.7996C0 12.6809 0.0591194 12.57 0.157651 12.504L18.6911 0.0605436C18.811 -0.0201812 18.9682 -0.0201812 19.0881 0.0605436L37.6192 12.504C37.7177 12.57 37.7768 12.6809 37.7768 12.7996V16.4227C37.7768 16.5543 37.7044 16.6751 37.5883 16.7368C37.5356 16.7651 37.4781 16.7789 37.4207 16.7789ZM0.712277 12.9896V15.7546L5.1056 12.8053L18.6911 3.68579C18.8112 3.60507 18.9679 3.60507 19.0881 3.68579L37.0645 15.7546V12.9896L18.8896 0.785167L0.712277 12.9896Z" fill="#3B4D57"/>
<path d="M18.8889 31.9996H5.3034C5.10658 31.9996 4.94727 31.8401 4.94727 31.6435V13.1005C4.94727 12.9039 5.10658 12.7444 5.3034 12.7444C5.50023 12.7444 5.65954 12.9039 5.65954 13.1005V31.2873H18.8889C19.0857 31.2873 19.245 31.4469 19.245 31.6435C19.245 31.8403 19.0857 31.9996 18.8889 31.9996Z" fill="#3B4D57"/>
<path d="M32.4725 31.9996H18.8893C18.6925 31.9996 18.5332 31.8401 18.5332 31.6435C18.5332 31.4469 18.6925 31.2873 18.8893 31.2873H32.1163V13.1005C32.1163 12.9039 32.2756 12.7444 32.4725 12.7444C32.6693 12.7444 32.8286 12.9039 32.8286 13.1005V31.6435C32.8286 31.8403 32.6693 31.9996 32.4725 31.9996Z" fill="#3B4D57"/>
</svg>
