<svg width="20" height="20" viewBox="0 0 20 20" fill="none" xmlns="http://www.w3.org/2000/svg">
<path d="M17.841 9.65033L10.341 2.15033C10.0285 1.84039 9.60614 1.66664 9.16602 1.66699H3.33268C2.89066 1.66699 2.46673 1.84259 2.15417 2.15515C1.84161 2.46771 1.66602 2.89163 1.66602 3.33366V9.16699C1.66584 9.38692 1.7092 9.60471 1.79358 9.8078C1.87796 10.0109 2.00171 10.1953 2.15768 10.3503L9.65768 17.8503C9.97017 18.1603 10.3926 18.334 10.8327 18.3337C11.274 18.3318 11.6966 18.155 12.0077 17.842L17.841 12.0087C18.154 11.6975 18.3308 11.275 18.3327 10.8337C18.3329 10.6137 18.2895 10.3959 18.2051 10.1929C18.1207 9.98976 17.997 9.80538 17.841 9.65033ZM10.8327 16.667L3.33268 9.16699V3.33366H9.16602L16.666 10.8337M5.41602 4.16699C5.66324 4.16699 5.90492 4.2403 6.11048 4.37766C6.31604 4.51501 6.47626 4.71023 6.57087 4.93864C6.66548 5.16705 6.69023 5.41838 6.642 5.66086C6.59377 5.90333 6.47472 6.12606 6.2999 6.30088C6.12508 6.47569 5.90236 6.59474 5.65988 6.64297C5.4174 6.69121 5.16607 6.66645 4.93766 6.57184C4.70925 6.47723 4.51403 6.31702 4.37668 6.11146C4.23933 5.90589 4.16602 5.66422 4.16602 5.41699C4.16602 5.08547 4.29771 4.76753 4.53213 4.53311C4.76655 4.29869 5.0845 4.16699 5.41602 4.16699Z" fill="#514F4C"/>
</svg>
