<svg width="889" height="822" viewBox="0 0 889 822" fill="none" xmlns="http://www.w3.org/2000/svg">
<g opacity="0.1">
<path d="M1447.3 813.074C1361.63 808.597 1168.25 796.223 968.542 768.002C812.073 745.878 682.409 718.509 583.192 686.655C537.651 672.03 498.57 656.486 466.061 640.065C457.776 635.885 449.92 631.653 442.494 627.356C434.719 622.872 427.411 618.305 420.575 613.686C413.41 608.857 406.779 603.968 400.659 599.017C394.214 593.799 388.356 588.516 383.071 583.162C377.457 577.488 372.495 571.725 368.199 565.901C364.158 560.445 360.693 554.928 357.811 549.336C357.412 548.553 357.018 547.779 356.627 546.991L337.119 506.944C337.518 507.727 337.908 508.514 338.302 509.289C341.176 514.841 344.595 520.314 348.606 525.73L348.61 525.739C352.915 531.581 357.868 537.348 363.482 543.022C368.759 548.38 374.621 553.673 381.061 558.882C387.172 563.837 393.808 568.735 400.955 573.551C407.787 578.183 415.091 582.741 422.875 587.243C430.331 591.557 438.224 595.815 446.548 600.008C454.527 604.045 462.907 608.022 471.679 611.943C498.633 624.001 529.312 635.569 563.679 646.599C662.905 678.47 792.569 705.84 949.037 727.941C1148.03 756.075 1340.73 768.449 1426.87 772.975L1447.3 813.074Z" fill="white"/>
<path d="M1488.36 893.673C1403.64 889.283 1208.91 876.945 1007.75 848.504C851.281 826.394 721.626 799.02 622.396 767.162C553.038 744.899 498.672 720.472 459.681 694.131C452.56 689.325 445.96 684.452 439.876 679.528C433.44 674.306 427.573 669.027 422.275 663.668C416.661 657.994 411.704 652.241 407.412 646.403C403.375 640.956 399.911 635.439 397.019 629.852C396.62 629.069 396.235 628.29 395.844 627.502C392.645 620.941 389.971 613.825 387.8 606.153C392.096 611.977 397.053 617.731 402.672 623.414C407.953 628.759 413.824 634.047 420.264 639.256C426.375 644.211 433.024 649.114 440.18 653.947C446.981 658.539 454.249 663.071 461.984 667.543C498.582 688.708 545.591 708.537 602.788 726.898C702.023 758.766 831.678 786.139 988.156 808.259C1188.58 836.58 1382.63 848.936 1467.83 853.372L1488.36 893.673Z" fill="white"/>
<path d="M1529.44 974.289C1445.73 969.979 1249.63 957.664 1046.98 929.031C890.502 906.912 760.838 879.543 661.616 847.68C566.181 817.035 499.118 782.309 461.429 744.121L461.424 744.112C455.85 738.451 450.924 732.737 446.641 726.938C442.595 721.474 439.131 715.957 436.249 710.365C435.845 709.596 435.446 708.812 435.065 708.02L416.041 668.945C416.238 669.332 416.435 669.719 416.646 670.111C419.524 675.694 422.979 681.215 427.012 686.653L427.016 686.662C431.317 692.495 436.292 698.262 441.902 703.949C447.173 709.277 452.996 714.534 459.396 719.73C498.861 751.716 559.937 781.08 642.004 807.43C741.239 839.297 870.894 866.671 1027.37 888.781C1229.26 917.3 1424.67 929.633 1508.9 933.979L1529.44 974.289Z" fill="white"/>
<path d="M1570.4 1054.69C1487.78 1050.47 1290.25 1038.2 1086.09 1009.34C929.617 987.224 799.962 959.851 700.727 927.984C577.879 888.552 502.053 842.341 475.355 790.66C474.956 789.899 474.562 789.103 474.185 788.32C471.008 781.803 468.343 774.726 466.168 767.089C499.394 812.14 571.579 852.725 681.223 887.923C780.457 919.79 910.113 947.163 1066.58 969.287C1269.98 998.034 1466.81 1010.34 1549.97 1014.59L1570.4 1054.69Z" fill="white"/>
<path d="M348.607 525.732C344.597 520.316 341.177 514.843 338.304 509.291C337.909 508.517 337.519 507.729 337.12 506.946C311.818 454.965 318.682 367.763 357.571 247.629C389.456 149.118 442.779 28.7456 516.071 -110.159C612.862 -293.601 719.577 -461.65 763.438 -529.076L783.452 -489.796C739.913 -422.889 632.749 -254.245 535.584 -70.1025C462.288 68.7933 408.969 189.175 377.079 287.676C343.072 392.71 333.55 472.588 348.607 525.732Z" fill="white"/>
<path d="M381.062 558.883C374.622 553.674 368.759 548.382 363.483 543.023C356.177 490.839 367.271 418.806 396.686 327.939C428.572 229.428 481.89 109.047 555.191 -29.8623C652.729 -214.705 760.348 -383.935 803.568 -450.314L823.681 -410.841C780.805 -345.025 672.723 -175.182 574.798 10.401C501.506 149.306 448.175 269.683 416.289 368.193C391.222 445.651 379.46 509.423 381.062 558.883Z" fill="white"/>
<path d="M422.877 587.245C415.093 582.743 407.789 578.185 400.957 573.553C403.29 528.317 414.954 473.151 435.907 408.453C467.783 309.947 521.119 189.556 594.407 50.6649C692.719 -135.658 801.276 -306.109 843.8 -371.357L863.917 -331.875C821.746 -267.216 712.717 -96.1482 614.005 90.9106C540.722 229.811 487.395 350.197 455.51 448.707C438.513 501.248 427.615 547.489 422.877 587.245Z" fill="white"/>
<path d="M471.68 611.945C462.908 608.024 454.528 604.048 446.549 600.011C452.368 566.854 461.889 529.815 475.12 488.958C506.997 390.452 560.329 270.075 633.629 131.166C732.727 -56.6553 842.237 -228.345 884.024 -292.409L904.043 -253.12C862.625 -189.677 752.632 -17.3523 653.134 171.227C579.838 310.122 526.51 430.508 494.625 529.019C485.018 558.675 477.375 586.321 471.68 611.945Z" fill="white"/>
</g>
</svg>
