<svg width="67" height="67" viewBox="0 0 67 67" fill="none" xmlns="http://www.w3.org/2000/svg">
<g opacity="0.1">
<path d="M59.6741 28.8309C61.7545 30.8496 62.5715 33.823 63.0417 36.6776C64.0059 42.4961 63.8967 48.4856 62.7188 54.2661C62.2628 56.4842 61.6121 58.7594 60.1159 60.4646C58.1115 62.754 54.8816 63.6422 51.8417 63.5614C48.7971 63.4807 45.8523 62.5592 42.9122 61.7755C39.9673 60.9965 36.9084 60.3411 33.9017 60.8065C28.2305 61.6805 23.495 66.397 17.7572 66.3828C12.1192 66.3685 7.33619 61.4145 6.12025 55.9095C4.9043 50.4045 6.61432 44.6193 9.3027 39.6652C11.3546 35.8844 14.043 32.3553 17.5958 29.9282C21.2674 27.4155 25.6704 26.1996 30.0545 25.4682C37.3834 24.2475 44.9213 24.2712 52.2217 25.6486C54.9148 26.1568 57.7077 26.9168 59.6741 28.8309Z" fill="white"/>
<path d="M66.3701 6.00402C67.1633 7.78995 66.9591 9.87501 66.8641 11.8509C66.7644 13.8886 66.788 15.9548 66.3083 17.9402C65.8286 19.9208 64.7456 21.8683 62.9977 22.8087C61.3875 23.6732 59.4829 23.564 57.6827 23.4357C54.5811 23.2125 51.2752 22.9132 48.8528 20.9088C46.7819 19.2036 45.6658 16.3965 45.7323 13.6321C45.7988 10.8677 46.9815 8.17932 48.7911 6.13216C51.8785 2.62682 56.8325 1.0452 61.226 2.1519C63.354 2.68862 65.4534 3.93787 66.3701 6.00402Z" fill="white"/>
<path d="M31.5344 20.8169C26.5281 20.1947 22.2391 15.9388 21.8068 11.1653C21.3746 6.387 24.8467 1.60404 29.682 0.312096C32.0427 -0.314875 34.8783 -0.058466 36.5835 1.65621C38.1462 3.22839 38.3741 5.55586 38.8254 7.66951C39.5568 11.0846 41.0293 14.8511 39.1863 17.8293C37.7139 20.2184 34.4508 21.1779 31.5344 20.8169Z" fill="white"/>
<path d="M9.33174 29.7517C5.75515 29.956 2.3164 27.5145 0.877215 24.2324C-0.557221 20.9503 -0.148832 17.0365 1.49459 13.8541C2.34006 12.2154 3.68434 10.6195 5.50826 10.3441C6.8572 10.1398 8.20138 10.7003 9.41732 11.3178C11.8635 12.5717 14.1575 14.1249 16.2237 15.9441C18.0096 17.5163 19.7386 19.5824 19.5771 21.9573C19.4061 24.3892 17.3115 26.2131 15.2453 27.5145C13.4404 28.6497 11.4596 29.633 9.33174 29.7517Z" fill="white"/>
</g>
</svg>
