<svg width="24" height="24" viewBox="0 0 24 24" fill="none" xmlns="http://www.w3.org/2000/svg">
<path d="M14.2753 3.55599C14.3008 3.46081 14.3447 3.37158 14.4047 3.29339C14.4647 3.2152 14.5394 3.1496 14.6248 3.10032C14.7101 3.05104 14.8043 3.01906 14.902 3.0062C14.9996 2.99334 15.0989 2.99985 15.1941 3.02537C16.5844 3.38813 17.853 4.11497 18.869 5.13103C19.8851 6.14708 20.6119 7.41562 20.9747 8.80599C21.0002 8.90116 21.0067 9.00042 20.9939 9.09811C20.981 9.19579 20.949 9.28999 20.8997 9.37531C20.8505 9.46063 20.7849 9.53541 20.7067 9.59536C20.6285 9.65532 20.5393 9.69928 20.4441 9.72474C20.3807 9.74138 20.3155 9.74989 20.25 9.75005C20.0847 9.75005 19.9241 9.69545 19.793 9.59475C19.662 9.49405 19.5679 9.35288 19.5253 9.19318C19.2295 8.05817 18.6363 7.02259 17.8069 6.1932C16.9775 5.36381 15.9419 4.77061 14.8069 4.47474C14.7116 4.44938 14.6223 4.40549 14.544 4.34558C14.4657 4.28566 14.4 4.2109 14.3506 4.12557C14.3013 4.04024 14.2692 3.94601 14.2563 3.84828C14.2433 3.75054 14.2498 3.65122 14.2753 3.55599ZM14.0569 7.47474C15.3497 7.81974 16.1803 8.65037 16.5253 9.94318C16.5679 10.1029 16.662 10.244 16.793 10.3448C16.9241 10.4455 17.0847 10.5 17.25 10.5001C17.3155 10.4999 17.3807 10.4914 17.4441 10.4747C17.5393 10.4493 17.6285 10.4053 17.7067 10.3454C17.7849 10.2854 17.8505 10.2106 17.8997 10.1253C17.949 10.04 17.981 9.94579 17.9939 9.84811C18.0067 9.75042 18.0002 9.65116 17.9747 9.55599C17.4947 7.75974 16.2403 6.50537 14.4441 6.02537C14.3489 5.99994 14.2497 5.99351 14.152 6.00644C14.0544 6.01938 13.9602 6.05141 13.8749 6.10073C13.7897 6.15005 13.7149 6.21568 13.655 6.29387C13.5951 6.37207 13.5512 6.46129 13.5258 6.55646C13.5004 6.65163 13.4939 6.75087 13.5069 6.84852C13.5198 6.94618 13.5518 7.04032 13.6012 7.12559C13.6505 7.21086 13.7161 7.28559 13.7943 7.34549C13.8725 7.4054 13.9617 7.44932 14.0569 7.47474ZM21.7388 16.4138C21.5716 17.6841 20.9477 18.8502 19.9837 19.6942C19.0196 20.5382 17.7813 21.0023 16.5 21.0001C9.05626 21.0001 3.00001 14.9438 3.00001 7.50005C2.99771 6.21876 3.4619 4.98045 4.30588 4.01639C5.14986 3.05234 6.31592 2.42847 7.58626 2.2613C7.9075 2.22208 8.2328 2.2878 8.51362 2.44865C8.79444 2.60951 9.0157 2.85687 9.14438 3.1538L11.1244 7.57412V7.58537C11.2229 7.81267 11.2636 8.06083 11.2428 8.30769C11.222 8.55455 11.1404 8.79242 11.0053 9.00005C10.9884 9.02537 10.9706 9.0488 10.9519 9.07224L9.00001 11.386C9.7022 12.8129 11.1947 14.2922 12.6403 14.9963L14.9222 13.0547C14.9446 13.0359 14.9681 13.0184 14.9925 13.0022C15.2 12.8639 15.4387 12.7794 15.687 12.7565C15.9353 12.7336 16.1854 12.7729 16.4147 12.871L16.4269 12.8766L20.8434 14.8557C21.1409 14.9839 21.3889 15.205 21.5503 15.4858C21.7116 15.7667 21.7778 16.0922 21.7388 16.4138ZM20.25 16.2263H20.2397L15.8334 14.2529L13.5506 16.1944C13.5285 16.2132 13.5053 16.2307 13.4813 16.2469C13.2654 16.3909 13.0159 16.4765 12.7571 16.4952C12.4983 16.5139 12.239 16.4652 12.0047 16.3538C10.2488 15.5054 8.49845 13.7682 7.64907 12.031C7.5366 11.7984 7.48613 11.5406 7.50255 11.2827C7.51898 11.0249 7.60174 10.7756 7.74282 10.5591C7.75872 10.5337 7.77659 10.5096 7.79626 10.4869L9.75001 8.17037L7.78126 3.76412C7.78089 3.76038 7.78089 3.75661 7.78126 3.75287C6.87212 3.87146 6.03739 4.3174 5.43339 5.00716C4.8294 5.69693 4.49755 6.58322 4.50001 7.50005C4.50348 10.6816 5.76888 13.7318 8.01856 15.9815C10.2682 18.2312 13.3185 19.4966 16.5 19.5001C17.4163 19.5032 18.3023 19.1725 18.9925 18.5698C19.6827 17.9671 20.1297 17.1337 20.25 16.2254V16.2263Z" fill="white"/>
</svg>
