<svg width="161" height="100" viewBox="0 0 161 100" fill="none" xmlns="http://www.w3.org/2000/svg">
<path d="M84.5251 93.0241C83.3211 93.6183 82.7808 95.1106 82.9025 96.4478C83.0243 97.7872 86.4145 98.5038 93.1516 98.617C95.9314 98.6641 107.184 87.9666 108.527 85.97C110.401 83.184 109.169 79.8534 108.745 76.5234C108.322 73.1934 108.81 69.3176 110.263 66.2912C102.288 66.1095 94.2939 66.8344 86.4812 68.4486C89.3228 73.6448 92.1627 78.841 95.0043 84.0393C95.4662 84.8849 95.9448 85.8021 95.8314 86.7609C95.7213 87.7028 95.0626 88.4786 94.4323 89.1906C92.9298 90.8862 91.1905 92.7056 88.9292 92.8757C87.4484 92.9876 85.8592 92.3676 84.5251 93.0241Z" fill="#7C5538"/>
<path d="M41.8152 28.0361C41.8152 28.0361 45.097 32.8239 49.6112 32.4135C54.1254 32.0033 73.6429 27.2156 83.9437 28.0361C99.3906 29.2686 107.83 33.1724 111.572 35.5606C119.505 40.6199 130.995 58.8117 134.278 64.6933C137.56 70.5748 152.744 91.5012 150.554 96.0154C148.366 100.53 144.809 99.8464 143.305 99.5727C141.801 99.2991 139.078 96.6094 140.432 94.3745C143.168 89.8603 130.858 81.7907 127.986 79.8769C127.986 79.8769 114.307 71.6685 111.983 69.0708C109.658 66.471 97.1393 69.1873 88.4678 69.9411C75.007 71.1116 66.7091 67.1562 66.7091 68.7971C66.7091 70.438 67.6663 87.1256 66.2988 90.5442C64.9314 93.9641 64.6579 97.7951 62.1949 98.3415C59.7335 98.8887 50.4317 100.119 52.211 96.0154C53.9887 91.9135 56.8603 94.7849 57.544 93.0072C58.2294 91.2282 57.1337 79.74 55.4928 77.1402C53.8519 74.5418 51.1154 70.9851 48.654 70.8484C46.191 70.7117 40.9948 70.3013 40.311 71.9422C39.6273 73.5849 35.9336 79.4665 28.9581 84.7995C21.9825 90.1338 19.3828 93.5544 18.2888 95.332C17.1949 97.1097 14.5968 98.7506 11.3133 98.6152C8.02977 98.4783 4.88468 96.5625 6.79908 94.3745C8.71514 92.1864 11.45 92.3232 12.4072 90.2707C13.3644 88.2194 25.1276 73.4482 25.4011 70.438C25.6746 67.4298 23.0164 53.8284 22.9014 50.2731C22.6763 43.4131 15.3438 42.9611 17.8802 27.8493C20.6568 24.369 41.8152 28.0361 41.8152 28.0361Z" fill="#B08B6A"/>
<path d="M161.064 33.431C160.248 40.4349 155.717 46.8284 149.774 50.6254C143.833 54.4225 136.05 55.3663 129.521 52.7014C120.453 48.9981 114.978 39.3594 106.103 35.2151C103.557 34.0243 100.669 33.2407 98.8075 31.1347C105.113 29.1454 111.871 31.2331 118.438 32.005C125.626 32.8505 132.905 32.0884 140.062 31.013C141.64 30.7765 143.244 30.5159 144.676 29.8105C146.107 29.1037 147.366 27.8779 147.723 26.322C148.273 23.9174 149.112 18.4043 147.406 13.033C146.052 8.7706 162.761 18.8329 161.064 33.431Z" fill="#302822"/>
<path d="M118.438 32.006C124.957 32.7735 131.551 32.2178 138.061 31.3058C136.96 32.8132 136.061 34.5023 135.036 36.0715C133.44 38.5162 131.207 40.8815 128.307 41.2228C124.677 41.6514 121.587 38.8465 118.708 36.5953C115.755 34.286 112.512 32.3929 109.203 30.6153C112.28 31.0023 115.38 31.6458 118.438 32.006Z" fill="#4F423A"/>
<path d="M148.914 46.9557C149.571 45.7351 149.971 44.3788 150.728 43.2187C152.248 40.8905 155.244 39.1109 155.032 36.3398C154.809 33.4144 150.994 31.7038 150.895 28.7721C150.847 27.308 151.779 25.8205 151.27 24.4464C150.955 23.5926 150.065 22.9872 149.154 23.0072C148.834 23.0156 148.521 23.1006 148.237 23.2457C148.547 20.4758 148.576 16.7221 147.405 13.0334C146.051 8.771 162.76 18.8333 161.062 33.4314C160.247 40.4353 155.716 46.8288 149.773 50.6258C145.134 53.5909 139.372 54.8163 133.961 53.9408C136.117 53.8724 138.26 53.6626 140.339 53.111C143.838 52.182 147.2 50.1438 148.914 46.9557Z" fill="black"/>
<path d="M92.8345 65.1481C99.9952 65.0947 107.358 64.6016 114.125 66.9427C119.536 68.8136 124.22 72.4086 128.126 76.5946C130.457 79.0926 132.535 81.8038 134.508 84.5957C131.871 82.4408 129.151 80.6502 127.987 79.8751C127.987 79.8751 114.308 71.6667 111.983 69.0689C109.659 66.4691 97.1402 69.1855 88.4688 69.9392C77.1274 70.9248 69.4515 68.2735 67.3153 68.3954C66.5866 66.1923 65.2425 64.1912 63.4365 62.7334C73.1386 64.4147 82.9891 65.2249 92.8345 65.1481Z" fill="#997252"/>
<path d="M111.573 35.5601C107.831 33.1719 99.3916 29.2681 83.943 28.0356C73.644 27.2151 54.1264 32.0028 49.6123 32.413C48.0514 32.5544 46.6423 32.0691 45.46 31.3806C47.0959 37.1455 51.7618 42.0337 57.5283 43.7423C65.1842 46.0124 73.7156 42.9885 81.2899 45.52C87.3749 47.5549 91.9708 52.9141 98.1476 54.652C105.742 56.7879 113.81 52.9844 121.652 53.8299C124.227 54.1067 126.737 54.9053 129.015 56.1345C124.029 48.5438 116.976 39.0067 111.573 35.5601Z" fill="#7C5D46"/>
<path d="M49.2745 32.4202C44.9371 32.5681 41.8154 28.0343 41.8154 28.0343C41.8154 28.0343 20.6569 24.3672 17.8804 27.8475C15.344 42.9592 22.6764 43.4113 22.9015 50.2713C23.0016 53.3167 24.9627 63.7241 25.3529 68.54C27.8859 68.8722 30.6191 68.0684 32.4718 66.2737C34.4763 64.3325 35.4885 61.5529 37.4529 59.5721C40.1861 56.8134 44.5452 55.8095 46.6147 52.5226C48.3924 49.7013 47.9288 46.0743 47.4685 42.7691C47.0066 39.4658 46.7031 35.7769 48.7025 33.1056C48.8776 32.8716 49.0744 32.6437 49.2745 32.4202Z" fill="#E0D7CE"/>
<path d="M60.2497 90.1531C59.4276 89.8711 58.5771 89.6411 57.7183 89.4724C57.7883 91.157 57.7433 92.4931 57.5449 93.0063C56.8612 94.784 53.9896 91.9126 52.2119 96.0145C50.4326 100.118 59.7344 98.8878 62.1958 98.3406C64.1368 97.9087 64.7189 95.436 65.5476 92.7347C63.8851 91.6774 62.1141 90.7916 60.2497 90.1531Z" fill="white"/>
<path d="M6.79908 94.3735C4.88468 96.5616 8.02977 98.4773 11.3133 98.6142C14.5968 98.7496 17.1949 97.1087 18.2888 95.3311C18.614 94.8041 19.0759 94.1267 19.7413 93.3013C18.3555 91.0886 16.1843 89.3342 13.7213 88.2438C13.0476 89.204 12.569 89.9232 12.4072 90.2698C11.45 92.3222 8.71514 92.1855 6.79908 94.3735Z" fill="white"/>
<path d="M143.732 93.5225C142.88 93.8592 141.933 93.499 141.062 93.2123L140.814 93.1355C140.786 93.5707 140.669 93.9863 140.432 94.3745C139.078 96.6094 141.801 99.2991 143.305 99.5727C144.809 99.8464 148.366 100.53 150.554 96.0154C151.041 95.0103 150.664 93.187 149.752 90.9012C148.451 91.0543 146.947 90.8759 145.88 91.6131C145.086 92.1618 144.629 93.1675 143.732 93.5225Z" fill="white"/>
<path d="M100.797 93.5647C99.6168 92.6906 98.166 92.1806 96.6969 92.1701C95.693 92.1623 94.7008 92.3721 93.6985 92.4456C92.8547 92.5076 91.9776 92.4438 91.2088 92.1121C90.5084 92.5271 89.7547 92.8143 88.9292 92.8757C87.4484 92.9876 85.8592 92.3676 84.5251 93.0241C83.3211 93.6183 82.7808 95.1106 82.9025 96.4478C83.0243 97.7872 86.4145 98.5038 93.1516 98.617C94.4606 98.6392 97.6491 96.2779 100.797 93.5647Z" fill="white"/>
<path d="M57.214 93.4567C57.3657 93.5773 57.5174 93.7003 57.6692 93.8189C59.5019 95.2462 61.4146 96.6987 63.5658 97.4993C64.8332 96.0715 65.2401 93.1884 66.299 90.5436C67.1445 88.4304 67.1011 81.2532 66.9444 75.6883C66.3457 75.7033 65.7287 75.7652 65.1434 75.6721C62.8287 75.3086 61.3463 72.6371 59.0133 72.4333C57.6242 72.3114 56.3485 73.1107 55.0844 73.6957C54.5625 73.9373 53.9838 74.1328 53.4052 74.2247C54.1973 75.188 54.9143 76.2224 55.493 77.1396C57.1339 79.7394 58.2295 91.2276 57.5441 93.0066C57.4641 93.2171 57.3507 93.357 57.214 93.4567Z" fill="black"/>
<path d="M26.4733 75.165C25.6545 74.6094 24.7056 74.1644 23.7368 73.956C20.3982 79.427 13.1509 88.677 12.4071 90.2697C12.2104 90.6931 11.9235 91.0103 11.5967 91.2871C12.6456 91.8421 13.6095 92.6961 14.4366 93.5534C15.3788 94.5304 16.371 95.5845 17.5033 96.3018C17.8085 95.9877 18.0836 95.6646 18.2888 95.3311C19.3827 93.5534 21.9825 90.1328 28.958 84.7985C30.9608 83.2658 32.6851 81.6913 34.1542 80.1826C33.0803 80.0087 32.018 79.5404 31.1142 78.9268C29.465 77.8076 28.1225 76.2835 26.4733 75.165Z" fill="black"/>
<path d="M18.2152 36.8317C18.0035 36.8252 17.7884 36.822 17.5732 36.822C18.5921 43.5939 22.7328 45.1416 22.9012 50.2708C22.9295 51.13 23.108 52.5839 23.3548 54.3232C24.0035 54.3031 24.6572 54.2085 25.2975 54.0984C27.8156 53.6627 30.3137 53.1279 32.7884 52.4909C34.4059 52.0752 36.1152 51.5502 37.1775 50.2611C38.4449 48.7238 38.4448 46.5441 38.9568 44.618C39.6639 41.9499 41.4965 39.5982 43.9129 38.2596C43.0507 37.5242 41.82 37.457 40.6861 37.4272C33.1969 37.2291 25.7061 37.0304 18.2152 36.8317Z" fill="#CCC3BC"/>
<path d="M32.5655 19.3657C28.9168 18.8038 24.1458 16.9794 20.7073 18.7337C17.267 20.488 14.8123 25.1189 14.6005 27.2251C14.3904 29.3296 17.6189 44.0663 22.2498 45.4701C26.8824 46.8745 34.1097 46.9443 41.9691 41.9616C45.7462 39.5683 49.0814 32.5162 44.7073 25.259C41.829 20.488 36.2159 19.9261 32.5655 19.3657Z" fill="#B08B6A"/>
<path d="M46.3998 35.4163C43.7 38.8017 40.9601 36.1049 36.621 35.9401C32.1786 35.77 36.6244 26.4347 32.8606 24.0667C29.6538 22.0489 16.088 31.1927 14.6055 27.7988C14.8223 31.2108 17.924 44.1595 22.2514 45.4701C26.884 46.8745 34.1113 46.9443 41.9707 41.9616C43.8634 40.7625 45.6427 38.3945 46.3998 35.4163Z" fill="#EDE7E2"/>
<path d="M47.6397 14.5495C49.1889 16.1387 49.5241 20.4795 49.289 23.5378C49.0939 26.1159 48.0683 28.549 47.0561 30.9283C46.9344 31.2169 46.7909 31.529 46.5124 31.6742C46.2673 31.8024 45.9721 31.7706 45.697 31.7354C44.8598 31.6305 44.0094 31.5225 43.2256 31.2071C41.7631 30.6183 40.6742 29.3676 39.7837 28.0654C38.3396 25.9559 37.264 23.5929 36.6203 21.1165C40.6859 19.7507 46.0905 12.9586 47.6397 14.5495Z" fill="black"/>
<path d="M21.0037 7.33511C18.7841 8.2773 17.1815 19.1283 17.5834 24.0144C18.3822 25.3835 21.5873 24.0227 23.1682 22.6453C24.7491 21.2679 26.1899 19.697 27.9959 18.6297C26.5267 15.458 22.0959 6.86985 21.0037 7.33511Z" fill="black"/>
<path d="M40.5653 27.5036C39.6882 26.5647 38.7927 25.5992 38.2958 24.4018C38.109 23.9532 37.9872 23.4263 38.1974 22.9894C38.3558 22.6642 38.6693 22.4558 38.9661 22.2573C41.5392 20.5397 43.8872 18.4652 45.9284 16.1089C46.1885 15.8087 46.4853 15.4802 46.8755 15.4552C47.2908 15.4285 47.646 15.7604 47.8928 16.1055C48.6149 17.1111 48.8866 18.3868 48.9867 19.6342C49.2518 22.971 48.3663 26.3913 46.5253 29.1495C46.2135 29.6166 45.85 30.085 45.338 30.2901C44.6176 30.5768 43.8055 30.2666 43.1501 29.8465C42.1729 29.2212 41.3641 28.3574 40.5653 27.5036Z" fill="#645047"/>
<path d="M24.6353 20.2928C23.543 16.2156 21.6903 8.83313 21.1517 8.21112C20.6147 7.58744 17.5814 14.7915 18.682 23.583C19.9544 23.4846 21.2851 23.3662 22.3557 22.6742C23.2829 22.0755 23.9032 21.1183 24.6353 20.2928Z" fill="#645047"/>
<path d="M21.3309 21.5409C22.4031 19.96 24.4292 19.383 26.2753 18.8894C26.8756 18.7293 27.4809 18.5692 28.0913 18.4525C29.6555 18.7643 31.1913 19.1562 32.5671 19.368C33.0707 19.4447 33.611 19.5214 34.1747 19.6098C34.4482 19.7515 34.72 19.8949 34.9918 20.0383C35.8806 20.5103 36.8011 21.0106 37.3914 21.8277C38.0868 22.7899 38.2119 24.0372 38.6171 25.1529C39.7661 28.3163 43.138 30.3806 43.9201 33.6539C44.1986 34.8251 44.1152 36.0556 43.9051 37.2399C43.7466 38.1284 43.4931 39.0508 42.8528 39.6826C41.7305 40.7901 39.8095 40.5861 38.4721 39.7523C37.1363 38.9185 36.4593 37.2529 35.0902 36.4725C32.5421 35.0232 29.9606 36.1026 30.1457 33.254C30.2758 31.2666 30.8395 29.3072 30.5043 27.3457C30.4276 26.8905 30.2975 26.3969 29.9156 26.1384C29.4087 25.7949 28.7183 26.0333 28.1947 26.3468C26.5387 27.3391 25.895 28.8266 25.5248 30.7193C25.3081 31.8352 25.825 33.7777 21.0123 33.1803C19.87 33.0389 18.661 32.5238 17.5237 32.355C16.8433 32.2553 16.1279 32.3817 15.4326 32.4552C14.9073 30.2705 14.6121 28.428 14.5938 27.5425C15.8795 23.7838 18.8762 25.1612 21.3309 21.5409Z" fill="#423227"/>
<path d="M31.3047 34.7308C30.8777 34.4123 30.5059 33.9739 30.4275 33.4501C30.3441 32.8985 30.5943 32.3577 30.8411 31.8594C31.1046 31.3291 31.4064 30.7669 31.935 30.4966C32.3386 30.2902 32.8122 30.2882 33.2641 30.3149C33.8928 30.3534 34.5181 30.4399 35.1335 30.5722C35.6654 30.6869 36.2157 30.8503 36.6009 31.2354C36.9695 31.6061 37.1362 32.1279 37.268 32.6333C37.4581 33.3667 37.5815 34.2124 37.1346 34.8227C36.7194 35.3862 35.9573 35.5496 35.2602 35.6083C33.8845 35.7229 32.4103 35.5561 31.3047 34.7308Z" fill="#231913"/>
<path d="M31.002 33.5564C31.2704 32.9193 31.734 31.1684 33.6601 31.1299C35.5862 31.0915 36.9352 32.8241 36.9352 32.8241C36.9352 32.8241 36.4 35.2305 34.5856 35.2305C33.5484 35.2305 31.8874 35.0989 31.002 33.5564Z" fill="#489FCB"/>
<path d="M33.5423 34.5416C33.0203 34.1996 32.9136 33.4909 32.8802 32.8675C32.8569 32.4506 32.8436 32.0286 32.9236 31.6182L33.0437 31.2098C33.2304 31.1628 33.4355 31.1329 33.6607 31.1296C34.4044 31.1146 35.0598 31.3634 35.5868 31.6749C35.6551 32.0553 35.7068 32.439 35.6918 32.8225C35.6701 33.3808 35.49 33.956 35.0815 34.3365C34.6746 34.7169 34.0092 34.8485 33.5423 34.5416Z" fill="black"/>
<path d="M33.7757 32.955C33.6623 32.7967 33.634 32.5831 33.704 32.4013C33.7724 32.2209 33.9358 32.0776 34.1243 32.0359L34.3561 32.1415L34.4444 32.3948L34.4795 32.7935L34.276 33.1186C34.1059 33.2051 33.8875 33.11 33.7757 32.955Z" fill="white"/>
<path d="M25.3072 31.2325C25.1671 31.8592 24.6485 32.355 24.0532 32.5914C23.4579 32.8297 22.7925 32.8382 22.1572 32.7548C20.8731 32.5849 20.2778 32.0526 19.3706 31.1276C18.4618 30.2033 18.9054 27.7806 19.9109 27.342C20.9165 26.9034 22.1655 27.0935 23.126 27.6238C24.0849 28.1541 24.877 29.0209 25.2122 30.0652C25.3323 30.4417 25.3923 30.8476 25.3072 31.2325Z" fill="#231913"/>
<path d="M19.933 28.96C20.5233 28.5979 21.9207 27.4456 23.5083 28.5379C25.0958 29.6317 25.1792 31.8262 25.1792 31.8262C25.1792 31.8262 22.988 33.202 21.5139 32.1414C20.6717 31.5376 19.7529 30.7273 19.933 28.96Z" fill="#489FCB"/>
<path d="M23.5086 28.5375L23.9156 28.871C23.9806 29.2612 24.0306 29.6515 24.0173 30.0469C23.9956 30.5985 23.8338 31.1673 23.4653 31.5444C23.0951 31.9209 22.4948 32.0511 22.0729 31.7476C21.5993 31.4089 21.5025 30.7074 21.4725 30.0899C21.4508 29.6782 21.4392 29.2593 21.5125 28.8544C21.5592 28.5892 21.6476 28.3291 21.7794 28.1039C22.303 28.0289 22.8916 28.1139 23.5086 28.5375Z" fill="black"/>
<path d="M22.3707 30.1601C22.2573 30.0019 22.2306 29.7881 22.299 29.6063C22.3674 29.4247 22.5308 29.2833 22.7192 29.2416L22.951 29.3465L23.0394 29.5998L23.0744 29.9965L22.871 30.3236C22.6992 30.4103 22.4825 30.3151 22.3707 30.1601Z" fill="white"/>
<path d="M27.9655 43.2223C27.5869 44.2462 26.6597 45.0462 25.5925 45.2736C24.5269 45.5002 23.3546 45.1432 22.5941 44.3609C21.8337 43.5792 21.5085 42.3982 21.7653 41.3378C23.9632 40.7424 26.4697 41.5045 27.9655 43.2223Z" fill="white"/>
<path d="M21.7653 41.3381C23.9632 40.7427 26.4696 41.5048 27.9654 43.2226C27.787 43.7059 27.4835 44.1398 27.1032 44.4863C26.9348 44.3716 26.8031 44.203 26.663 44.0513C26.0643 43.4056 25.2088 43.0409 24.3417 42.8936C23.4979 42.7504 22.6341 42.7992 21.7803 42.8826C21.6536 42.377 21.6419 41.8435 21.7653 41.3381Z" fill="#E1D7CF"/>
<path d="M25.301 42.4821C23.6417 41.6913 21.5639 42.542 19.8796 41.8034C18.9775 41.4067 18.3021 40.5742 17.992 39.6369C17.6818 38.7014 17.7168 37.6728 17.9769 36.7218C18.1554 36.0632 18.4489 35.4249 18.9108 34.9226C19.5695 34.2074 20.52 33.8256 21.4705 33.6322C24.3138 33.057 27.2554 33.9904 29.8452 35.2933C30.9158 35.8313 31.9647 36.4436 32.8302 37.2709C33.6974 38.0995 34.3744 39.1651 34.5645 40.3474C34.6745 41.021 34.6095 41.7552 34.216 42.3134C33.9158 42.7388 33.4572 43.0221 32.997 43.2639C32.0765 43.7492 31.0842 44.123 30.0487 44.2344C29.0148 44.3445 27.9325 44.1777 27.037 43.6474C26.4366 43.2906 25.9313 42.7804 25.301 42.4821Z" fill="white"/>
<path d="M22.9565 38.0115C23.1766 36.7458 25.813 37.1112 26.5751 37.4064C27.639 37.8179 29.0348 39.369 27.2171 39.9364C26.7018 40.0979 25.4561 40.623 24.9309 40.4764C24.4406 40.3397 22.8714 38.5 22.9565 38.0115Z" fill="#F37B83"/>
<path d="M27.8176 38.3567C28.2445 38.9371 28.2795 39.6061 27.2173 39.9364C26.702 40.0979 25.4563 40.623 24.931 40.4764C24.6092 40.3865 23.8221 39.5612 23.3418 38.8673L23.4969 38.9841C24.8543 40.0275 26.7771 39.5644 27.8176 38.3567Z" fill="#E9495D"/>
<path d="M24.0253 37.9768L23.7552 37.9363L23.6151 37.7213L23.9219 37.5142C24.644 37.3846 25.3911 37.3365 26.1098 37.4842L26.3899 37.5911L26.5083 37.8529C25.6879 37.9768 24.8558 37.9768 24.0253 37.9768Z" fill="#FBB5BE"/>
<path fill-rule="evenodd" clip-rule="evenodd" d="M4.4365 32.7964C4.78836 32.7879 5.19524 32.7742 5.63049 32.7827C5.84894 32.786 6.0724 32.7879 6.30086 32.7892C6.52765 32.7977 6.75947 32.8082 6.99127 32.8159C7.91511 32.8511 8.83897 32.9344 9.53936 33.0147C10.3698 33.1097 11.1069 33.2166 11.8389 33.3462C12.2075 33.4029 12.571 33.4849 12.9479 33.5586C13.3248 33.6302 13.7083 33.7254 14.1152 33.8218C14.5288 33.9135 14.9857 34.0504 15.4676 34.184C15.7094 34.2483 15.9529 34.3337 16.2014 34.4106C16.4482 34.492 16.7017 34.5657 16.9501 34.6556C17.4454 34.832 17.944 35.0028 18.4076 35.191C18.6411 35.2827 18.8695 35.3661 19.0863 35.4542C19.3031 35.5441 19.5099 35.6313 19.705 35.7128C20.0102 35.8281 20.7589 36.1916 21.0557 36.3232C21.2175 36.3947 21.1525 36.3895 20.914 36.3062C20.7939 36.2645 20.6322 36.2046 20.4304 36.1244C20.2303 36.045 19.9935 35.9446 19.7183 35.8379C19.5632 35.7759 19.3948 35.7115 19.2147 35.6411L18.9362 35.5329L18.6394 35.4275C18.2308 35.2828 17.7806 35.1193 17.2887 34.9591C16.3081 34.6222 15.3409 34.3122 14.1769 34.0237C12.6494 33.6452 10.8884 33.3697 9.45097 33.2081C9.17582 33.1794 8.8773 33.1417 8.56213 33.1097C8.24862 33.083 7.91842 33.053 7.58156 33.0232C6.90785 32.9761 6.21082 32.9313 5.56213 32.9183C5.40037 32.9129 5.24193 32.9046 5.08685 32.9026C4.93176 32.9026 4.78169 32.9013 4.63827 32.9013C4.34811 32.9013 4.0813 32.8961 3.84617 32.9026C3.37591 32.9163 3.03071 32.9261 2.8873 32.9333C2.71721 32.9429 2.75222 32.9248 3.00569 32.8947C3.13076 32.8797 3.31253 32.8616 3.551 32.8414L3.94958 32.8114C4.09799 32.8082 4.25974 32.801 4.4365 32.7964Z" fill="white"/>
<path fill-rule="evenodd" clip-rule="evenodd" d="M1.7719 37.3758C1.96034 37.3491 2.16543 37.3159 2.38055 37.2892C2.59567 37.2625 2.82414 37.2357 3.05761 37.2077C3.52787 37.1458 4.02816 37.103 4.52844 37.0508C5.02871 37.0006 5.53063 36.9694 6.00256 36.9309C6.47282 36.899 6.91641 36.8755 7.29829 36.854C9.11263 36.7706 10.5301 36.7459 12.3478 36.7856C13.2666 36.8006 14.4106 36.8755 15.5512 36.9726C16.6902 37.0839 17.8275 37.2162 18.7347 37.3661L19.0832 37.4208C19.2216 37.443 19.3767 37.4697 19.5301 37.5028C19.8386 37.5647 20.1471 37.6259 20.3205 37.6611C20.509 37.6963 20.439 37.7048 20.1655 37.6761C20.0304 37.6611 19.8419 37.6378 19.6101 37.6032L19.2299 37.5465C19.0915 37.5275 18.9431 37.508 18.7847 37.4858C18.6029 37.4612 18.4095 37.4325 18.201 37.4045C17.9926 37.3798 17.7708 37.3596 17.5373 37.3341C17.3022 37.3114 17.057 37.2827 16.7986 37.2592C16.5384 37.2377 16.2683 37.2144 15.9881 37.1908C15.708 37.1628 15.4278 37.1406 15.146 37.1211C14.8642 37.0976 14.5807 37.0761 14.2922 37.0541C14.002 37.0378 13.7069 37.0207 13.4034 37.0039C13.2499 36.9974 13.0965 36.9889 12.9398 36.981C12.7813 36.9779 12.6229 36.9739 12.4595 36.9694C10.7469 36.9244 8.80915 36.9844 7.23661 37.0613C6.03594 37.1126 4.40501 37.2144 3.00089 37.3491C2.29884 37.411 1.6535 37.4963 1.14488 37.5562C0.637931 37.6279 0.267737 37.6846 0.114318 37.7093C-0.0691173 37.7393 -0.0341011 37.7178 0.236049 37.6546C0.506199 37.5947 1.00981 37.4813 1.7719 37.3758Z" fill="white"/>
<path fill-rule="evenodd" clip-rule="evenodd" d="M5.15955 40.4292C5.75321 40.2819 6.54365 40.1405 7.33076 39.9836C7.72431 39.9022 8.12119 39.8422 8.49307 39.7803C8.86661 39.7218 9.21512 39.6651 9.51695 39.6169C9.69705 39.5868 9.87047 39.5622 10.0422 39.5418C10.214 39.5205 10.3808 39.4983 10.5458 39.4768C10.876 39.4351 11.1962 39.3934 11.5164 39.3517C11.8349 39.3067 12.1568 39.2813 12.4886 39.2482C12.8205 39.2181 13.1606 39.185 13.5225 39.1518C13.8877 39.1133 14.2996 39.0982 14.7332 39.0749C15.1684 39.0566 15.6237 39.0279 16.0806 39.0182C16.5375 39.0117 16.9944 39.0032 17.428 38.9967C17.6465 38.9947 17.8566 38.9862 18.06 38.9882C18.2635 38.9895 18.4586 38.9895 18.642 38.9915C18.9238 38.9947 19.6459 39.0052 19.9294 39.0097C20.2346 39.0117 19.7176 39.0917 18.6954 39.1016C18.5503 39.1048 18.3936 39.1067 18.2251 39.1101L17.9666 39.1166L17.6915 39.1303C17.3163 39.1498 16.9011 39.17 16.4508 39.185C16.0006 39.1935 15.5553 39.2168 15.0917 39.2383C14.8616 39.25 14.6248 39.2618 14.383 39.2735C14.1395 39.2865 13.8894 39.2964 13.6292 39.3237C13.289 39.3582 12.9389 39.3914 12.5837 39.4266C12.2285 39.4651 11.8683 39.495 11.5147 39.5485C11.1612 39.5967 10.811 39.6435 10.4708 39.6884C10.1306 39.7354 9.80046 39.7738 9.49028 39.8271C9.01502 39.9002 8.45635 39.9822 7.87436 40.0636C7.2957 40.1607 6.69705 40.2604 6.14174 40.3543L5.73319 40.4227L5.35131 40.4975C5.1045 40.547 4.87603 40.5907 4.67592 40.6311C4.27403 40.7091 3.98055 40.7692 3.85882 40.7959C3.57032 40.8611 3.96388 40.704 5.15955 40.4292Z" fill="white"/>
<path fill-rule="evenodd" clip-rule="evenodd" d="M47.4477 43.234C47.2893 43.1486 47.1175 43.0556 46.9374 42.9572C46.759 42.8568 46.5606 42.7682 46.3621 42.6685C46.1637 42.5703 45.9569 42.4699 45.7485 42.3664C45.535 42.272 45.3199 42.1768 45.1031 42.0817C44.2409 41.696 43.3571 41.373 42.6784 41.141C41.8747 40.8694 41.1492 40.6591 40.4188 40.4793C40.0553 40.3769 39.6851 40.3085 39.3066 40.2252C38.9297 40.1353 38.5344 40.0754 38.1192 40.0017C37.699 39.9183 37.2221 39.865 36.7218 39.7888C36.4717 39.7471 36.2132 39.7321 35.9513 39.702C35.6895 39.6767 35.4261 39.637 35.1609 39.6252C34.6306 39.5933 34.0987 39.5516 33.5934 39.5536C33.3399 39.5503 33.0931 39.54 32.8563 39.5471C32.6195 39.555 32.3927 39.5621 32.1792 39.5698C31.849 39.5686 31.0102 39.6337 30.6801 39.6565C30.5033 39.6722 30.5617 39.6415 30.8135 39.5933C30.9385 39.5686 31.1137 39.54 31.3321 39.5099C31.5489 39.4799 31.8107 39.4467 32.1109 39.4371C32.281 39.4266 32.4644 39.4149 32.6612 39.405L32.9647 39.3849L33.2865 39.3784C33.5083 39.375 33.7418 39.3719 33.9836 39.3667C34.2287 39.3582 34.4822 39.3804 34.7457 39.3882C35.8046 39.4266 36.8335 39.5731 38.0425 39.7621C38.8346 39.8917 39.6784 40.0519 40.4955 40.2538C40.9041 40.3574 41.311 40.4506 41.6979 40.5744C42.0864 40.6909 42.4649 40.7958 42.8135 40.9274C43.082 41.0244 43.3755 41.1228 43.6773 41.2407C43.9792 41.3658 44.2943 41.498 44.6162 41.6316C45.2498 41.9194 45.9035 42.2263 46.4922 42.5501L46.9241 42.7819L47.326 43.0171C47.5828 43.1701 47.8246 43.3037 48.0314 43.4353C48.4416 43.7011 48.7418 43.8925 48.8685 43.9707C49.0186 44.0626 48.9769 44.0593 48.7435 43.9407C48.625 43.8822 48.46 43.7941 48.2465 43.6737L47.888 43.4705C47.7546 43.3988 47.6078 43.3207 47.4477 43.234Z" fill="white"/>
<path fill-rule="evenodd" clip-rule="evenodd" d="M47.2316 47.9129C47.0898 47.791 46.9364 47.6594 46.7763 47.5207C46.6179 47.3793 46.4361 47.249 46.2577 47.1038C46.0776 46.9605 45.8908 46.8139 45.7024 46.6654C45.5073 46.5241 45.3105 46.38 45.112 46.2368C44.7218 45.9436 44.3116 45.6818 43.9297 45.4297L43.6479 45.2427L43.3711 45.076C43.191 44.9679 43.0209 44.8642 42.8625 44.7691C42.107 44.3242 41.4183 43.9607 40.7163 43.6272C40.3711 43.4487 40.0109 43.3035 39.6457 43.1401C39.2821 42.972 38.8969 42.8299 38.4917 42.6696C38.0848 42.4997 37.6146 42.3511 37.1243 42.1734L36.7491 42.0496L36.3639 41.9297L35.9736 41.8092L35.5801 41.6978C35.0498 41.559 34.5212 41.4124 34.0092 41.3161C33.7558 41.264 33.5089 41.204 33.2671 41.1656C33.027 41.1271 32.7969 41.0926 32.5801 41.0588C32.2466 40.9924 31.3861 40.9005 31.0493 40.8608C30.8675 40.8425 30.9325 40.8223 31.196 40.8223C31.3277 40.8223 31.5095 40.8275 31.7346 40.8393C31.9597 40.849 32.2299 40.8653 32.5334 40.9142C32.7068 40.9377 32.8952 40.9624 33.0954 40.989L33.4055 41.0276L33.7324 41.0841C33.9558 41.124 34.1926 41.1656 34.4378 41.2092C34.6862 41.249 34.9381 41.3206 35.2032 41.3806C36.2638 41.6294 37.2744 41.9844 38.4584 42.4195C39.2321 42.7133 40.0509 43.0482 40.8364 43.4221C41.2266 43.6103 41.6184 43.7908 41.9836 43.9959C42.3522 44.196 42.7124 44.3829 43.0376 44.5894C43.2877 44.7431 43.5629 44.9047 43.8447 45.0897C44.1215 45.2799 44.4133 45.4799 44.7102 45.6832C45.002 45.8934 45.2905 46.1221 45.5806 46.3404L45.7958 46.5038L46.0042 46.6772L46.4094 47.0172L46.798 47.3461L47.1515 47.6711C47.3783 47.8809 47.5934 48.0698 47.7735 48.2482C48.1304 48.6046 48.3922 48.8664 48.5023 48.972C48.634 49.0984 48.594 49.0867 48.3839 48.9135C48.2772 48.8281 48.1304 48.7017 47.9403 48.5329L47.6251 48.2482L47.2316 47.9129Z" fill="white"/>
<path fill-rule="evenodd" clip-rule="evenodd" d="M41.8446 47.9315C41.4377 47.5798 40.854 47.1916 40.2904 46.7758C40.0119 46.5642 39.7134 46.3805 39.4365 46.204C39.1597 46.0274 38.9013 45.8607 38.6778 45.7154L38.4827 45.5883L38.2842 45.477L37.9007 45.2602C37.6505 45.1181 37.4071 44.98 37.1636 44.8433C36.9235 44.6979 36.6667 44.5846 36.4099 44.4549C36.1531 44.3266 35.8862 44.1944 35.6061 44.0543C35.3259 43.9026 34.9941 43.773 34.6539 43.6139C34.4821 43.5377 34.307 43.4577 34.1286 43.3774L33.8601 43.2537L33.5883 43.1392C33.2181 42.9971 32.8496 42.8558 32.4994 42.7203C32.3243 42.6551 32.1542 42.5835 31.9874 42.53C31.819 42.4786 31.6572 42.4304 31.5055 42.3836C31.2737 42.3099 30.6767 42.1203 30.4432 42.0467C30.1897 41.9698 30.6417 41.9998 31.4988 42.2401L31.894 42.3471L32.1125 42.4037L32.3393 42.4786C32.6511 42.5802 32.9946 42.6956 33.3632 42.8271C33.5483 42.8975 33.735 42.954 33.9135 43.0388C34.0919 43.1208 34.2737 43.2024 34.4588 43.2857C34.6422 43.3671 34.8306 43.4525 35.0241 43.541C35.2175 43.6276 35.421 43.7078 35.6211 43.8147C35.8896 43.9463 36.1664 44.081 36.4465 44.2179C36.725 44.3567 37.0152 44.4817 37.2854 44.64C37.5588 44.7917 37.8307 44.9415 38.0941 45.0881C38.356 45.2353 38.6144 45.3721 38.8429 45.5285C39.1948 45.7604 39.6083 46.0373 40.0352 46.3271C40.4488 46.6359 40.869 46.9713 41.2609 47.275L41.5461 47.4996L41.8045 47.7282C41.9713 47.8748 42.1247 48.0117 42.2598 48.1301C42.5316 48.3699 42.73 48.5438 42.8134 48.6135C43.0152 48.779 42.68 48.605 41.8446 47.9315Z" fill="white"/>
<path d="M117.962 8.67905C118.995 11.4389 119.451 14.6807 117.977 17.2338C116.581 19.6535 113.789 20.8925 111.086 21.6012C105.096 23.1738 98.7826 22.9003 92.6225 22.2649C86.4624 21.6296 80.3057 20.6424 74.1155 20.8241C67.9254 21.0059 61.5752 22.465 56.6575 26.2305C55.4318 21.5295 57.633 16.4417 61.1333 13.0732C64.6336 9.70462 69.2478 7.76688 73.8404 6.181C82.7003 3.12263 91.9221 1.09983 101.254 0.211002C105.383 -0.18255 109.877 -0.262596 113.282 2.10539C115.524 3.66625 117.003 6.12096 117.962 8.67905Z" fill="#FAC51C"/>
<path d="M84.5164 17.2146C83.6409 14.428 83.194 11.6832 83.1473 8.82158C83.144 8.57478 82.9923 8.42636 82.7021 8.383C82.2085 8.30629 81.8149 8.35299 81.7048 8.69484L80.5642 12.2501L80.4108 11.8299C79.8922 10.4258 79.6053 9.22847 79.5086 8.06449C79.4786 7.69762 79.1868 7.60925 78.945 7.59924H78.9067C78.4281 7.59924 78.1078 7.91609 78.0411 8.32965L76.6504 17.1145L76.7421 17.4047C76.9322 17.5564 77.0906 17.5548 77.4909 17.403C77.8477 17.2646 78.0812 17.0445 78.1195 16.8127L78.8866 12.547L79.1318 13.1156C79.3452 13.6543 79.592 14.2413 79.8888 14.9083C79.9889 15.1301 80.114 15.2635 80.4758 15.2552C80.9294 15.2285 81.1645 15.0517 81.2563 14.7615L81.9117 12.7154L82.1051 13.5976C82.3352 14.935 82.6537 16.2524 83.0489 17.5081C83.0973 17.6615 83.2207 17.7632 83.4158 17.8066C83.811 17.8966 84.1179 17.9583 84.3897 17.6615C84.5214 17.5181 84.5648 17.368 84.5164 17.2146Z" fill="black"/>
<path d="M91.5102 15.4797C91.3801 15.2279 90.8248 15.0345 90.2879 15.3096C89.6108 15.6598 88.9804 15.8299 88.3367 15.7966C87.0777 15.7566 87.021 14.6159 86.9827 13.8622L86.986 13.6854L86.9877 13.5703L86.986 13.4169L88.6853 13.3519C89.1322 13.3369 89.7175 13.1818 89.9026 12.8016L89.911 12.5464C89.8359 12.433 89.6325 12.358 89.4407 12.3647L87.046 12.4531L87.0694 12.268C87.1644 11.5342 87.3279 11.1173 87.488 10.4353L87.5163 10.3202L87.633 10.3135C88.2934 10.2802 88.8871 10.2318 89.4491 10.1701C89.7259 10.1384 90.0594 10.0284 90.2778 9.84995C90.5296 9.6415 90.5463 9.04782 90.1461 9.05949C89.5308 9.0795 88.9204 9.1929 88.3034 9.18957C87.7564 9.18623 87.1928 9.14787 86.6658 9.33131C86.1155 9.52308 85.7937 9.965 85.6703 10.5236C85.4368 11.5926 85.19 12.6632 85.1817 13.7655C85.1767 14.5309 85.1667 15.8116 85.8053 16.4002C87.026 17.5225 89.6825 16.8038 91.0699 16.0884C91.4435 15.8966 91.6069 15.6698 91.5102 15.4797Z" fill="black"/>
<path d="M96.1485 14.4817C96.0017 14.7585 95.7966 14.9203 95.5564 14.947L95.4297 14.9537C94.766 14.9537 94.1107 14.43 93.6971 13.818C93.4269 13.4195 93.2485 12.9142 93.2535 12.3956C93.2652 11.2683 94.164 10.3561 95.0512 10.4145C95.428 10.4395 95.7949 10.5562 96.0467 10.9264C96.6087 11.7569 96.6154 13.5996 96.1485 14.4817ZM95.92 9.0954C94.716 8.94865 93.477 9.25882 92.5665 10.2961C91.676 11.3116 91.189 12.8725 91.8261 14.2616C92.6398 16.0376 95.0845 16.9248 96.577 15.9976C97.2624 15.569 97.7844 14.7402 98.0445 13.6629C98.5215 11.6968 97.9812 9.44559 96.1668 9.13041L95.92 9.0954Z" fill="black"/>
<path d="M98.9679 9.67443C99.1247 11.7839 99.5966 14.6238 100.032 16.695L100.135 16.8434C100.329 16.9651 100.744 16.9301 101.042 16.8601C101.798 16.6867 102.226 15.476 102.697 14.6455L102.825 14.4187L102.962 14.6405C103.387 15.3276 103.829 15.9929 104.281 16.6183C104.456 16.8651 104.84 16.8151 104.995 16.7817C105.458 16.6833 105.898 16.3598 105.957 16.0763C106.252 14.6289 106.332 13.1297 106.41 11.6805C106.487 10.2397 106.565 8.75058 106.859 7.31311L106.804 7.09467C106.644 6.95459 106.219 6.95124 105.815 7.08632C105.427 7.21639 105.156 7.43652 105.11 7.65664C104.925 8.57215 104.906 9.51933 104.89 10.4348C104.88 10.8718 104.871 11.3253 104.845 11.7723C104.811 12.3059 104.759 12.8662 104.678 13.5349L104.626 13.9801L104.393 13.5949C104.106 13.118 103.824 12.6511 103.571 12.1725C103.407 11.8673 103.049 11.8606 102.852 11.884C102.37 11.9407 101.906 12.2592 101.82 12.5944L101.796 12.6811C101.748 12.8712 101.659 13.2247 101.539 13.6083L101.349 14.2236L101.241 13.5883C100.984 12.0758 100.797 10.5583 100.684 9.0741C100.666 8.82063 100.264 8.83563 100.152 8.84063C99.5783 8.88399 98.9362 9.25753 98.9679 9.67443Z" fill="black"/>
<path d="M108.532 13.5677C108.544 13.6244 108.764 13.6928 109.164 13.6194C109.761 13.5177 110.292 13.2125 110.253 12.9957C109.818 10.4727 109.888 7.93292 110.465 5.44321L110.355 5.37316C109.895 5.2681 108.823 5.57662 108.749 5.90513C108.156 8.46989 108.085 10.9763 108.532 13.5677Z" fill="black"/>
<path d="M108.728 15.1246L108.711 15.3964C108.793 15.6282 108.911 15.8567 109.069 16.0918C109.215 16.3069 109.508 16.3202 109.668 16.3069C110.102 16.2769 110.552 16.0251 110.694 15.7349L110.655 15.3064C110.57 15.1796 110.507 15.0495 110.444 14.8745C110.359 14.636 110.087 14.5443 109.812 14.5443L109.418 14.6076C109.165 14.6943 108.839 14.8928 108.728 15.1246Z" fill="black"/>
</svg>
