<svg width="20" height="20" viewBox="0 0 20 20" fill="none" xmlns="http://www.w3.org/2000/svg">
<path d="M2.08588 17.5949C2.08648 17.6376 2.09548 17.6797 2.11237 17.7189C2.12926 17.7581 2.1537 17.7936 2.18431 17.8234C2.21491 17.8531 2.25108 17.8766 2.29074 17.8923C2.3304 17.9081 2.37279 17.9159 2.41547 17.9153H17.585C17.6278 17.916 17.6702 17.9082 17.7099 17.8925C17.7496 17.8767 17.7858 17.8533 17.8165 17.8235C17.8471 17.7938 17.8716 17.7583 17.8885 17.719C17.9054 17.6798 17.9145 17.6376 17.915 17.5949V17.2124C17.9225 17.097 17.938 16.522 17.5588 15.8857C17.3196 15.4845 16.9725 15.1382 16.5271 14.8557C15.9884 14.5141 15.303 14.267 14.4738 14.1182C14.0529 14.059 13.6354 13.9778 13.223 13.8749C12.1263 13.5949 12.0305 13.347 12.0296 13.3445C12.0233 13.32 12.0141 13.2964 12.0021 13.2741C11.993 13.2282 11.9709 13.0541 12.0134 12.5878C12.1209 11.4032 12.7563 10.7032 13.2667 10.1407C13.4276 9.96365 13.5796 9.79574 13.6967 9.63157C14.2021 8.92324 14.2488 8.11699 14.2509 8.06699C14.2528 7.97839 14.2406 7.89006 14.2146 7.80532C14.1646 7.65115 14.0717 7.55532 14.0034 7.48449C13.9872 7.46827 13.9715 7.4516 13.9563 7.43449C13.9513 7.42865 13.938 7.41282 13.9501 7.33324C13.9909 7.07686 14.0191 6.81863 14.0346 6.55949C14.058 6.14199 14.0759 5.51782 13.968 4.9099C13.9521 4.79379 13.9282 4.67892 13.8963 4.56615C13.7825 4.14782 13.6001 3.79032 13.3463 3.49532C13.3026 3.4474 12.2409 2.32865 9.1588 2.09949C8.73255 2.06782 8.3113 2.0849 7.8963 2.10615C7.77357 2.10888 7.65143 2.12396 7.53172 2.15115C7.21338 2.23324 7.12838 2.4349 7.1063 2.54782C7.06922 2.73532 7.13422 2.88032 7.17713 2.97699C7.18338 2.99074 7.1913 3.00782 7.17755 3.05282C7.1063 3.16365 6.99338 3.26365 6.8788 3.35824C6.84547 3.38615 6.07297 4.05282 6.03047 4.92324C5.91588 5.58532 5.92422 6.61657 6.05963 7.32949C6.06797 7.36907 6.07922 7.4274 6.06047 7.46699C5.91463 7.5974 5.74963 7.74532 5.75005 8.08282C5.75172 8.11699 5.7988 8.92282 6.30422 9.63157C6.42088 9.79574 6.57297 9.96324 6.73338 10.1403L6.73422 10.1407C7.24463 10.7032 7.88005 11.4032 7.98755 12.5874C8.02963 13.0541 8.00755 13.2278 7.9988 13.2741C7.9867 13.2963 7.97733 13.32 7.97088 13.3445C7.97047 13.347 7.87505 13.5941 6.78338 13.8737C6.15338 14.0349 5.53338 14.1174 5.51463 14.1195C4.7088 14.2557 4.02755 14.497 3.48963 14.8366C3.04588 15.117 2.69797 15.4645 2.4563 15.8687C2.06963 16.5145 2.08005 17.1028 2.08547 17.2103V17.5949H2.08588Z" stroke="#181713" stroke-width="1.66667" stroke-linejoin="round"/>
</svg>
