<svg width="61" height="173" viewBox="0 0 61 173" fill="none" xmlns="http://www.w3.org/2000/svg">
<path d="M33.0613 46.5681C33.3141 41.8955 32.557 21.3263 32.557 16.6387C32.557 16.0074 25.4846 13.4813 21.1905 13.4813C15.3322 13.4813 13.1089 14.618 8.30994 16.386C8.30994 28.8023 7.86129 41.9539 8.68849 47.579C8.68849 47.579 13.7396 55.6612 16.7706 59.4498C19.0441 60.0816 24.0952 59.702 24.3479 59.324C25.1055 59.1971 33.0068 47.5857 33.0613 46.5681Z" fill="#01715D" fill-opacity="0.2"/>
<path d="M21.3968 23.5926C19.414 26.9927 14.8822 34.2299 15.5875 38.7522C16.5806 45.1265 22.2474 44.1345 25.0802 41.5839C28.7642 38.1844 23.5227 27.7008 21.5393 23.4507" fill="#FFFFFB"/>
<path d="M56.8403 169.227C55.7131 170.501 54.1333 169.96 52.8886 169.174C49.8898 167.283 52.1098 164.093 54.6994 163.29C54.7745 163.267 54.8391 163.235 54.9053 163.204C57.9158 163.456 58.7769 167.038 56.8403 169.227ZM16.9694 104.597C17.2828 95.645 17.2945 86.6878 17.2951 77.7311C17.2951 77.7139 17.2907 77.6994 17.2901 77.6827C18.9027 77.7239 20.5204 77.7161 22.1369 77.7099C22.3913 86.7674 21.6849 95.8081 21.5836 104.862C20.045 104.79 18.5081 104.67 16.9694 104.597ZM3.5901 50.5844C2.61817 36.055 3.01507 21.5 2.79797 6.9511C8.07734 5.27834 13.3361 3.47365 18.8666 2.86244C22.9012 2.41655 26.5418 3.54878 30.3666 4.74171C32.0767 5.27499 33.77 5.8645 35.4406 6.51134C35.9343 6.70227 36.417 6.91713 36.8885 7.15427C36.8896 7.16206 36.8907 7.16541 36.8923 7.17377C37.2375 9.1989 37.2464 11.3248 37.3594 13.3716C37.7401 20.2809 37.9539 27.2008 38.1398 34.1178C38.2656 38.7849 38.6369 43.5827 38.3374 48.2548C34.4163 54.4237 30.164 60.5069 25.3138 65.985C25.1891 66.1264 25.105 66.2756 25.046 66.4264C21.6654 66.3034 18.2804 66.481 14.8942 66.6023C14.8625 66.3463 14.7589 66.0874 14.5552 65.8481C10.4894 61.083 7.00243 55.8287 3.5901 50.5844ZM36.8539 6.98672C36.7526 6.81361 36.7877 6.71786 36.8539 6.98672V6.98672ZM11.9584 74.4936C11.8365 72.8258 12.1181 71.1324 12.0129 69.4608C17.0301 69.384 22.049 68.9348 27.0556 69.3233C27.1903 71.207 27.1636 73.0896 27.143 74.979C22.1024 74.8158 16.9399 75.2707 11.9584 74.4936ZM60.5399 165.262C60.2009 163.037 58.7842 161.492 56.8793 160.803C57.3174 154.199 56.3326 147.437 48.5733 146.404C41.8349 145.505 33.9793 148.385 28.0041 144.26C22.84 140.694 21.2602 133.112 20.4953 127.329C19.6331 120.802 19.8056 114.136 20.3473 107.58C21.2162 107.634 22.0863 107.683 22.9569 107.696C23.7173 107.708 24.3458 107.054 24.3485 106.305C24.3814 96.7689 25.1869 87.2506 24.9191 77.7127C26.1243 77.7233 27.3267 77.7523 28.5235 77.8218C29.3602 77.8708 29.7988 77.2902 29.8545 76.6479C29.889 76.5237 29.9146 76.3929 29.9152 76.2448C29.9252 73.8245 30.0126 71.4191 29.8161 69.0093C30.3176 68.2512 29.9435 66.8367 28.7072 66.6908C28.6031 66.678 28.4979 66.6736 28.3933 66.6619C32.9551 61.3335 37.0237 55.512 40.7756 49.6064C40.8691 49.4577 40.9231 49.3119 40.9576 49.1683C41.0334 49.0113 41.0857 48.8343 41.1007 48.6311C41.4854 43.2877 41.0267 37.7823 40.8769 32.4373C40.6732 25.1294 40.4539 17.8116 39.9707 10.5154C39.8722 9.02412 40.0185 6.95221 39.316 5.57837C38.9208 4.80682 37.763 4.47841 37.0298 4.1739C35.0927 3.36842 33.1043 2.69543 31.1059 2.05806C27.0278 0.756577 23.1601 -0.303848 18.8666 0.0791321C12.7199 0.627441 6.87106 2.76613 1.02223 4.59309C0.436061 4.77623 -0.0109297 5.30171 0.000203493 5.9352C0.254598 20.9016 -0.193515 35.8746 0.821278 50.821C0.832968 50.9885 0.874157 51.1355 0.928153 51.2719C0.93873 51.484 1.00274 51.7061 1.1497 51.9326C4.43679 56.9849 7.80959 62.0266 11.6489 66.6836C11.5203 66.6853 11.3934 66.6897 11.2648 66.6908C10.6875 66.6947 10.2984 66.9875 10.093 67.38C9.49462 67.616 9.01811 68.2033 9.18288 69.0071C9.63489 71.2132 9.03481 73.5595 9.34042 75.8112C9.33207 76.0834 9.40052 76.3467 9.55806 76.5627C9.77738 76.9095 10.1409 77.0631 10.5256 77.0614C11.8521 77.3014 13.1875 77.4545 14.5296 77.5513C14.5229 77.6103 14.5118 77.6671 14.5118 77.7311C14.5112 87.1342 14.5029 96.5379 14.1405 105.935C14.111 106.702 14.7963 107.315 15.5322 107.327C16.213 107.337 16.8921 107.368 17.5717 107.406C16.5475 119.252 15.9825 134.219 23.6922 143.954C27.5427 148.816 33.185 149.435 38.9681 149.128C42.8358 148.924 46.9629 148.486 50.6953 149.758C54.7077 151.125 54.4388 156.759 54.1305 160.488C54.0163 160.531 53.9128 160.587 53.8232 160.656C50.1943 161.846 47.5457 165.385 49.1756 169.184C50.4559 172.166 54.828 173.634 57.6218 172.139C59.976 170.879 60.9184 167.748 60.5399 165.262Z" fill="#01715D" fill-opacity="0.2"/>
</svg>
