<svg width="154" height="77" viewBox="0 0 154 77" fill="none" xmlns="http://www.w3.org/2000/svg">
<path d="M140.55 63.0336C135.169 66.1335 129.102 68.0308 123.131 69.6207C108.095 73.6244 92.6338 73.8845 77.1663 73.6133C65.044 73.4006 53.2094 73.0041 41.2728 70.7372C35.2974 69.6017 29.3656 68.1077 23.6552 65.9995C19.2261 64.3647 14.042 62.112 11.1782 58.1618C3.04726 46.9476 14.4164 35.9983 23.6964 30.9267C36.8227 23.753 51.9958 21.7389 66.7231 21.3836C79.4393 21.0774 92.2065 21.3184 104.849 22.8105C116.41 24.1748 128.657 26.6125 138.608 32.9599C144.79 36.9027 149.243 42.9162 150.014 50.3204C150.024 50.4194 150.047 50.5104 150.071 50.599C150.066 50.6555 150.054 50.7084 150.054 50.7693C150.056 56.5934 145.164 60.3751 140.55 63.0336ZM6.78718 10.3095C5.28457 9.93999 3.91292 8.71651 3.46718 7.22803C2.9034 5.34547 4.81793 3.88898 6.35927 3.29015C9.16406 2.20193 10.6642 5.2674 10.5652 7.65473C10.267 8.01624 10.1564 8.51915 10.2369 8.98641C9.42289 10.1097 8.28979 10.6796 6.78718 10.3095ZM153.089 50.4047C153.087 50.3758 153.091 50.3506 153.088 50.3204C150.701 27.4001 122.69 21.8422 104.079 19.6461C91.4657 18.157 78.7039 18.0211 66.0203 18.3267C54.8577 18.596 43.7984 20.0057 33.2863 23.5434C29.6976 14.869 23.0558 8.09309 13.6024 7.24586C13.5255 3.6535 11.4426 0.131241 7.4352 0.00273895C3.9449 -0.109154 0.198197 3.2262 0.303946 6.76754C0.393709 9.77522 2.8671 12.1361 5.52126 13.1346C8.49328 14.2529 11.4874 12.8573 13.0669 10.2892C21.3349 10.9163 27.2052 16.8198 30.3278 24.3734C30.3561 24.4429 30.3948 24.5019 30.4299 24.5646C28.3789 25.3393 26.3481 26.1908 24.3469 27.1474C14.9218 31.651 4.30577 39.9694 5.62885 51.6472C6.83635 62.3038 16.3875 66.8245 25.4825 69.898C36.1003 73.4854 47.5217 75.3459 58.6825 76.1537C73.8684 77.2524 89.6175 77.3582 104.781 76.0142C115.317 75.0803 125.965 72.6794 135.78 68.6997C143.438 65.5943 153.131 60.2251 153.129 50.7693C153.129 50.6389 153.114 50.5172 153.089 50.4047Z" fill="#01715D" fill-opacity="0.2"/>
<path d="M42.7605 52.9729H38.7518V39.9826H42.9381C44.1982 39.9826 45.2765 40.2427 46.1729 40.7628C47.0694 41.2787 47.7566 42.0208 48.2344 42.9892C48.7122 43.9533 48.9511 45.1077 48.9511 46.4524C48.9511 47.8055 48.7101 48.9705 48.228 49.9473C47.746 50.9199 47.044 51.6684 46.1222 52.1927C45.2004 52.7128 44.0798 52.9729 42.7605 52.9729ZM40.3248 51.5775H42.659C43.733 51.5775 44.6232 51.3703 45.3293 50.9559C46.0355 50.5415 46.562 49.9516 46.9087 49.1862C47.2555 48.4208 47.4288 47.5095 47.4288 46.4524C47.4288 45.4037 47.2576 44.5009 46.9151 43.744C46.5725 42.9828 46.0609 42.3993 45.3801 41.9933C44.6993 41.5832 43.8514 41.3781 42.8366 41.3781H40.3248V51.5775ZM62.5503 46.4778C62.5503 47.8478 62.3029 49.0318 61.8082 50.0298C61.3135 51.0277 60.6348 51.7973 59.7721 52.3386C58.9095 52.8799 57.9242 53.1505 56.8163 53.1505C55.7084 53.1505 54.7232 52.8799 53.8605 52.3386C52.9979 51.7973 52.3192 51.0277 51.8245 50.0298C51.3297 49.0318 51.0824 47.8478 51.0824 46.4778C51.0824 45.1077 51.3297 43.9237 51.8245 42.9257C52.3192 41.9278 52.9979 41.1582 53.8605 40.6169C54.7232 40.0757 55.7084 39.805 56.8163 39.805C57.9242 39.805 58.9095 40.0757 59.7721 40.6169C60.6348 41.1582 61.3135 41.9278 61.8082 42.9257C62.3029 43.9237 62.5503 45.1077 62.5503 46.4778ZM61.028 46.4778C61.028 45.353 60.8398 44.4036 60.4635 43.6298C60.0914 42.856 59.5861 42.2703 58.9475 41.8728C58.3133 41.4753 57.6029 41.2766 56.8163 41.2766C56.0298 41.2766 55.3173 41.4753 54.6788 41.8728C54.0445 42.2703 53.5392 42.856 53.1628 43.6298C52.7907 44.4036 52.6046 45.353 52.6046 46.4778C52.6046 47.6026 52.7907 48.5519 53.1628 49.3257C53.5392 50.0996 54.0445 50.6852 54.6788 51.0827C55.3173 51.4802 56.0298 51.6789 56.8163 51.6789C57.6029 51.6789 58.3133 51.4802 58.9475 51.0827C59.5861 50.6852 60.0914 50.0996 60.4635 49.3257C60.8398 48.5519 61.028 47.6026 61.028 46.4778ZM75.4962 39.9826V52.9729H73.9739L66.8952 42.7735H66.7683V52.9729H65.1953V39.9826H66.7176L73.8217 50.2074H73.9485V39.9826H75.4962ZM79.1766 52.9729H77.5275L82.2974 39.9826H83.9211L88.691 52.9729H87.0418L83.16 42.0377H83.0585L79.1766 52.9729ZM79.7856 47.8986H86.4329V49.294H79.7856V47.8986ZM88.4864 41.3781V39.9826H98.2291V41.3781H94.1443V52.9729H92.5713V41.3781H88.4864ZM102.23 39.9826V52.9729H100.657V39.9826H102.23ZM116.344 46.4778C116.344 47.8478 116.097 49.0318 115.602 50.0298C115.108 51.0277 114.429 51.7973 113.566 52.3386C112.704 52.8799 111.718 53.1505 110.61 53.1505C109.503 53.1505 108.517 52.8799 107.655 52.3386C106.792 51.7973 106.113 51.0277 105.619 50.0298C105.124 49.0318 104.876 47.8478 104.876 46.4778C104.876 45.1077 105.124 43.9237 105.619 42.9257C106.113 41.9278 106.792 41.1582 107.655 40.6169C108.517 40.0757 109.503 39.805 110.61 39.805C111.718 39.805 112.704 40.0757 113.566 40.6169C114.429 41.1582 115.108 41.9278 115.602 42.9257C116.097 43.9237 116.344 45.1077 116.344 46.4778ZM114.822 46.4778C114.822 45.353 114.634 44.4036 114.258 43.6298C113.886 42.856 113.38 42.2703 112.742 41.8728C112.107 41.4753 111.397 41.2766 110.61 41.2766C109.824 41.2766 109.111 41.4753 108.473 41.8728C107.839 42.2703 107.333 42.856 106.957 43.6298C106.585 44.4036 106.399 45.353 106.399 46.4778C106.399 47.6026 106.585 48.5519 106.957 49.3257C107.333 50.0996 107.839 50.6852 108.473 51.0827C109.111 51.4802 109.824 51.6789 110.61 51.6789C111.397 51.6789 112.107 51.4802 112.742 51.0827C113.38 50.6852 113.886 50.0996 114.258 49.3257C114.634 48.5519 114.822 47.6026 114.822 46.4778ZM129.29 39.9826V52.9729H127.768L120.689 42.7735H120.562V52.9729H118.989V39.9826H120.512L127.616 50.2074H127.743V39.9826H129.29Z" fill="#01715D" fill-opacity="0.2"/>
</svg>
